<?xml version="1.0" encoding="UTF-8" standalone="no"?>
<!-- Created with Inkscape (http://www.inkscape.org/) -->

<svg
   width="68.002159mm"
   height="81.275154mm"
   viewBox="0 0 68.002159 81.275154"
   version="1.1"
   id="svg1"
   xml:space="preserve"
   sodipodi:docname="d20.svg"
   inkscape:version="1.4.4 (dcaf3e7d9e, 2026-05-05)"
   xmlns:inkscape="http://www.inkscape.org/namespaces/inkscape"
   xmlns:sodipodi="http://sodipodi.sourceforge.net/DTD/sodipodi-0.dtd"
   xmlns="http://www.w3.org/2000/svg"
   xmlns:svg="http://www.w3.org/2000/svg"><sodipodi:namedview
     id="namedview1"
     pagecolor="#ffffff"
     bordercolor="#000000"
     borderopacity="0.25"
     inkscape:showpageshadow="2"
     inkscape:pageopacity="0.0"
     inkscape:pagecheckerboard="0"
     inkscape:deskcolor="#d1d1d1"
     inkscape:document-units="mm"
     inkscape:zoom="3.0412932"
     inkscape:cx="55.897273"
     inkscape:cy="184.2966"
     inkscape:window-width="2560"
     inkscape:window-height="1416"
     inkscape:window-x="1360"
     inkscape:window-y="217"
     inkscape:window-maximized="1"
     inkscape:current-layer="layer1" /><defs
     id="defs1" /><g
     inkscape:label="Layer 1"
     inkscape:groupmode="layer"
     id="layer1"
     transform="translate(-71.038502,-107.79367)"><path
       style="fill:#999999;stroke:#1a1a1a;stroke-width:0.328808"
       d="M 121.49051,13.803493 C 94.261127,30.029656 67.109782,46.39549 40.005982,62.833056 c -1.563224,0.620496 -3.164473,2.406713 -1.821928,4.04138 1.960728,1.526258 4.475403,-0.234811 6.62306,-0.405052 26.02705,-6.276944 52.021349,-12.690285 78.044226,-18.984959 2.60805,-1.160889 1.21766,-4.450171 1.60183,-6.65899 -0.0604,-8.58352 0.24495,-17.206053 -0.21432,-25.767313 -0.40265,-1.078102 -1.65936,-1.692238 -2.74834,-1.254629 z"
       id="path11"
       transform="matrix(0.26458333,0,0,0.26458333,71.038502,107.79367)" /><path
       style="fill:#999999;stroke:#1a1a1a;stroke-width:0.328808"
       d="m 133.37511,13.973034 c -2.00537,1.616297 -1.01826,4.598662 -1.34485,6.831088 -0.007,8.229748 -0.1651,16.504215 0.0626,24.706115 0.79372,2.465776 4.13035,1.924457 6.13836,2.791988 25.96228,6.302667 51.87839,12.826892 77.88328,18.935053 2.50253,0.25768 3.01833,-3.429567 0.79569,-4.240459 -26.95236,-16.361442 -53.99966,-32.572864 -81.05569,-48.764346 -0.76575,-0.580816 -1.60451,-0.579119 -2.47939,-0.259439 z"
       id="path12"
       transform="matrix(0.26458333,0,0,0.26458333,71.038502,107.79367)" /><path
       style="fill:#999999;stroke:#1a1a1a;stroke-width:0.328808"
       d="m 116.43895,56.463053 c -35.253461,8.253216 -70.393709,17.00125 -105.573532,25.560929 -2.7379077,1.229174 -1.5557528,4.86004 -1.8501845,7.188811 -0.1317541,3.255929 -0.080887,6.504176 1.2339675,9.547131 9.922351,32.534186 19.734718,65.104306 29.744579,97.609436 1.0628,2.07649 3.769014,0.96025 4.428339,-0.8324 23.900569,-43.34746 47.654605,-86.78038 71.127721,-130.362553 1.02358,-2.288049 2.72996,-4.359086 3.23315,-6.830344 -0.21507,-1.146581 -1.13601,-2.017489 -2.34404,-1.88101 z"
       id="path13"
       transform="matrix(0.26458333,0,0,0.26458333,71.038502,107.79367)" /><path
       style="fill:#999999;stroke:#1a1a1a;stroke-width:0.328808"
       d="m 128.12639,59.668284 c -2.37986,0.731969 -2.84837,3.713126 -4.21281,5.511878 C 98.807174,110.88578 73.825411,156.6608 48.890206,202.46 c -1.389444,1.4775 -0.55074,4.2642 1.658808,4.04844 50.217766,0.26458 100.437896,0.20234 150.656106,0.0335 2.3291,-0.27104 5.98405,0.80465 7.01094,-2.01279 -1.04562,-3.65583 -3.49876,-6.81198 -5.13106,-10.25901 -24.23892,-44.60609 -48.43838,-89.23631 -72.99219,-133.669408 -0.55705,-0.534691 -1.14133,-1.021997 -1.96642,-0.932478 z"
       id="path14"
       transform="matrix(0.26458333,0,0,0.26458333,71.038502,107.79367)" /><path
       style="fill:#999999;stroke:#1a1a1a;stroke-width:0.328808"
       d="m 139.2808,56.057824 c -2.29674,0.38481 -2.07872,3.219337 -0.89125,4.624444 24.81272,45.447842 49.42243,91.007582 74.32513,136.405712 1.29433,1.82754 3.88184,0.51106 3.94762,-1.50018 10.39241,-33.57576 20.82043,-67.15094 31.08137,-100.761074 -0.0493,-3.85562 0.29192,-7.814821 -0.16751,-11.619689 -1.06196,-2.131811 -4.1323,-1.652275 -6.11023,-2.488042 -33.87577,-8.20342 -67.6992,-16.638861 -101.61486,-24.667593 -0.18902,-0.02588 -0.38045,0.01138 -0.57027,0.0064 z"
       id="path15"
       transform="matrix(0.26458333,0,0,0.26458333,71.038502,107.79367)" /><path
       style="fill:#999999;stroke:#1a1a1a;stroke-width:0.328808"
       d="m 9.8667935,131.51336 c -1.4895869,2.14924 -0.4304879,5.01103 -0.7790426,7.46362 -0.051668,26.61006 -0.2166284,53.22805 0.1278497,79.83349 0.6796047,2.47246 3.4043284,1.51741 4.9276174,0.48422 6.889448,-3.48374 13.878845,-6.80149 20.651293,-10.49937 1.73836,-1.93198 -0.177776,-4.5938 -0.476514,-6.73092 -6.999009,-23.26448 -14.048508,-46.51607 -21.278083,-69.70975 -0.640003,-1.2481 -1.991798,-1.60997 -3.1731205,-0.84129 z"
       id="path16"
       transform="matrix(0.26458333,0,0,0.26458333,71.038502,107.79367)" /><path
       style="fill:#999999;stroke:#1a1a1a;stroke-width:0.328808"
       d="m 38.652219,215.22248 c -7.705734,3.40829 -15.224972,7.29369 -22.677441,11.2334 -1.780624,1.16195 -0.695955,3.60682 1.070965,4.11891 25.448519,15.35029 50.834956,30.80924 76.415859,45.93625 2.098381,1.05538 3.979498,-2.03124 2.195691,-3.4833 -17.867461,-18.8286 -35.790287,-37.61136 -53.971311,-56.13874 -0.873967,-0.87338 -1.642302,-1.85917 -3.033763,-1.66652 z"
       id="path17"
       transform="matrix(0.26458333,0,0,0.26458333,71.038502,107.79367)" /><path
       style="fill:#999999;stroke:#1a1a1a;stroke-width:0.328808"
       d="m 108.49748,213.58872 c -18.290378,0.0171 -36.58069,0.0723 -54.871033,0.10918 -2.415864,0.19708 -2.374565,3.30324 -0.528776,4.33361 24.567659,25.61515 49.134449,51.23168 73.688439,76.85807 2.4942,1.8354 4.18626,-1.68447 5.86113,-3.0464 23.9094,-24.85974 47.69275,-49.84063 71.53643,-74.76345 1.53049,-1.87721 -0.73556,-3.99842 -2.75633,-3.38479 -30.97657,-0.0787 -61.95317,-0.14013 -92.92986,-0.10622 z"
       id="path18"
       transform="matrix(0.26458333,0,0,0.26458333,71.038502,107.79367)" /><path
       style="fill:#999999;stroke:#1a1a1a;stroke-width:0.328808"
       d="m 216.78239,215.2334 c -2.7403,1.51059 -4.54582,4.35184 -6.86662,6.42562 -16.57962,17.27029 -33.13103,34.57977 -49.64331,51.89854 -1.69657,1.67891 0.7225,4.55079 2.66064,3.08642 25.91127,-15.44584 51.7778,-30.9707 77.54398,-46.65663 1.67934,-1.34707 0.449,-3.58909 -1.29241,-4.09828 -7.01547,-3.70632 -14.03814,-7.45471 -21.31374,-10.62163 -0.35202,-0.13506 -0.72552,-0.0248 -1.08854,-0.034 z"
       id="path19"
       transform="matrix(0.26458333,0,0,0.26458333,71.038502,107.79367)" /><path
       style="fill:#999999;stroke:#1a1a1a;stroke-width:0.328808"
       d="m 244.26415,132.0085 c -1.86111,1.99817 -1.881,5.0578 -2.95434,7.49643 -6.87631,22.3448 -13.86958,44.66229 -20.37301,67.1159 0.1221,2.71312 3.46586,3.08564 5.26392,4.40538 6.03391,3.0964 12.11329,6.1109 18.24838,8.99995 2.23465,0.67038 3.13222,-1.80542 2.96505,-3.57129 0.60359,-21.90076 0.30372,-43.81759 0.32168,-65.72489 -0.14828,-5.80221 0.15553,-11.64927 -0.46232,-17.42295 -0.31376,-1.29728 -1.86325,-1.88392 -3.00936,-1.29853 z"
       id="path20"
       transform="matrix(0.26458333,0,0,0.26458333,71.038502,107.79367)" /><path
       style="fill:#000000"
       d="m 104.57075,188.99625 c -0.11641,-0.0411 -1.83091,-1.05319 -3.80999,-2.24916 -6.034363,-3.64661 -7.398053,-4.47032 -8.762993,-5.29308 -0.72178,-0.43509 -2.18863,-1.32079 -3.25967,-1.96824 -1.07103,-0.64744 -2.53788,-1.53318 -3.25966,-1.96831 -0.72179,-0.43512 -3.75074,-2.26407 -6.731,-4.06433 -2.98027,-1.80025 -5.79967,-3.50129 -6.26534,-3.78008 -0.46566,-0.27878 -0.90969,-0.56636 -0.98673,-0.63905 -0.077,-0.0727 -0.19646,-0.24665 -0.26539,-0.38658 l -0.12532,-0.25441 10e-4,-19.50952 c 8.7e-4,-14.11802 -0.0118,-19.58413 -0.0458,-19.77954 -0.0539,-0.30961 -0.007,-0.58598 0.15477,-0.90869 0.21401,-0.42732 0.31656,-0.49882 3.17229,-2.21176 1.49014,-0.89381 4.58576,-2.75471 6.87917,-4.13532 2.29341,-1.38061 5.10328,-3.07164 6.24417,-3.75785 1.14088,-0.68621 2.39818,-1.44251 2.794,-1.68067 4.37409,-2.63185 6.51698,-3.9216 9.884823,-5.9494 2.17699,-1.31078 4.01531,-2.41681 4.08516,-2.45784 0.16489,-0.0969 0.55059,-0.20875 0.71967,-0.20875 0.29588,0 0.61878,0.16035 2.01874,1.0025 5.35335,3.22033 6.84864,4.1201 10.57542,6.36365 6.22796,3.74927 13.30127,8.00533 17.22967,10.36721 2.50122,1.50381 3.54553,2.15388 3.67934,2.29031 0.10277,0.10477 0.23476,0.29488 0.29331,0.42247 l 0.10646,0.23197 0.0101,2.1387 c 0.006,1.17628 0.0102,2.22441 0.0104,2.32919 1.5e-4,0.10477 -0.008,7.88403 -0.0179,17.28724 0.0564,5.86649 0.26179,12.78803 0.0416,18.24381 -0.0922,0.27048 -0.39255,0.59076 -0.73049,0.77884 -0.31253,0.17394 -1.67645,0.99226 -8.87528,5.32498 -2.70086,1.62555 -6.16796,3.7118 -7.70466,4.63611 -1.5367,0.92431 -3.68935,2.2198 -4.78367,2.87886 -1.09432,0.65906 -3.05647,1.84001 -4.36033,2.62432 -1.30387,0.78432 -3.26539,1.96466 -4.35893,2.62299 -1.09354,0.65832 -2.07462,1.26853 -2.18017,1.356 -0.22705,0.18817 -0.32026,0.23903 -0.58577,0.31961 -0.26451,0.0803 -0.53362,0.0748 -0.79147,-0.0162 z m 2.14316,-5.26716 c 0.93979,-0.98372 1.92928,-2.01718 2.19887,-2.29658 0.48126,-0.49877 2.4023,-2.50879 6.0487,-6.32884 1.01123,-1.05939 2.03195,-2.12619 2.26825,-2.37066 0.23631,-0.24448 1.08424,-1.1303 1.88429,-1.9685 1.30487,-1.36709 2.40767,-2.52054 4.86847,-5.09209 0.4297,-0.44903 0.78761,-0.8348 0.79537,-0.85725 0.009,-0.0262 -7.10518,-0.0408 -19.82611,-0.0408 -12.064883,0 -19.834673,0.0153 -19.826093,0.039 0.008,0.0214 0.38655,0.42624 0.84176,0.89959 1.18997,1.23736 5.43758,5.6677 8.78107,9.15883 1.58275,1.65263 3.11717,3.25244 3.40982,3.55512 0.29266,0.30268 0.75993,0.78846 1.03838,1.0795 0.27846,0.29104 1.593323,1.66264 2.921923,3.048 1.3286,1.38536 2.50766,2.61885 2.62012,2.74108 0.11246,0.12224 0.21842,0.22225 0.23547,0.22225 0.017,0 0.79992,-0.80486 1.73971,-1.78858 z m 9.51968,-4.52106 c 1.47849,-0.89064 3.61209,-2.17531 4.74133,-2.85482 1.12924,-0.67951 3.83434,-2.30844 6.01133,-3.61984 3.75169,-2.25999 6.75548,-4.06845 7.29192,-4.39017 0.13388,-0.0803 0.24342,-0.16227 0.24342,-0.18216 0,-0.0401 -5.95065,-3.0057 -6.03114,-3.0057 -0.0278,0 -0.18262,0.13811 -0.34403,0.30691 -0.25918,0.27105 -3.79949,3.97775 -8.03567,8.41334 -0.78962,0.82679 -1.61862,1.69375 -1.84222,1.92658 -0.2236,0.23284 -0.64381,0.67099 -0.9338,0.97367 -0.28998,0.30268 -0.73733,0.76954 -0.99411,1.03747 -0.25678,0.26793 -0.84776,0.88705 -1.3133,1.37583 -0.46554,0.48879 -1.0037,1.05186 -1.19592,1.25129 -0.30297,0.31433 -0.42674,0.47258 -0.31773,0.40625 0.0175,-0.0106 1.24143,-0.74802 2.71992,-1.63865 z m -20.114613,1.23895 c -0.1756,-0.17974 -1.64981,-1.71746 -3.27602,-3.41714 -1.62621,-1.69968 -3.15896,-3.29988 -3.40611,-3.556 -0.24716,-0.25612 -0.68646,-0.71297 -0.97623,-1.01522 -0.28977,-0.30226 -0.76519,-0.79756 -1.0565,-1.10067 -0.29131,-0.30311 -0.93901,-0.97969 -1.43934,-1.50352 -0.50032,-0.52382 -1.13923,-1.19057 -1.4198,-1.48166 -0.81903,-0.84975 -1.43185,-1.48847 -2.28477,-2.38135 -0.43927,-0.45984 -0.82361,-0.83608 -0.85409,-0.83608 -0.0776,0 -5.98185,2.95629 -5.98183,2.99514 10e-6,0.0174 0.60485,0.39557 1.34408,0.84031 0.73924,0.44474 2.18227,1.31356 3.20673,1.93071 2.92674,1.7631 8.7708,5.28306 10.56217,6.36175 3.97667,2.39458 5.57694,3.35884 5.71304,3.44246 0.0804,0.0494 0.1556,0.0804 0.16707,0.069 0.0115,-0.0115 -0.1228,-0.16794 -0.2984,-0.34769 z m -19.12826,-16.26537 c 1.67634,-0.83823 3.04788,-1.53714 3.04788,-1.55313 0,-0.016 -0.15123,-0.52555 -0.33607,-1.13236 -0.71694,-2.35363 -2.43754,-8.00802 -2.71241,-8.91378 -0.74088,-2.44136 -2.0962,-6.89397 -2.77554,-9.11839 -0.14858,-0.48651 -0.28008,-0.8945 -0.29223,-0.90664 -0.0122,-0.0121 -0.0221,5.19127 -0.0221,11.56314 0,6.37187 0.01,11.58522 0.0213,11.58522 0.0117,0 1.39283,-0.68582 3.06917,-1.52406 z M 136.08792,154.1402 c 0,-7.10933 -0.0151,-11.50773 -0.0394,-11.48291 -0.0217,0.0221 -0.50936,1.56421 -1.08375,3.42688 -2,6.48567 -2.48382,8.05388 -3.00395,9.73667 -1.384,4.47769 -1.77715,5.75151 -1.90978,6.18771 -0.0791,0.25999 -0.15418,0.49991 -0.16693,0.53316 -0.0171,0.0446 0.42271,0.28093 1.6811,0.90312 0.93736,0.46347 2.32415,1.15088 3.08175,1.52757 0.7576,0.37669 1.39174,0.68625 1.4092,0.68792 0.0175,0.002 0.0318,-5.18239 0.0318,-11.52012 z m -10.39002,7.76871 c -0.0151,-0.0393 -0.32917,-0.62507 -0.698,-1.30175 -0.94485,-1.7335 -3.01766,-5.54174 -4.57528,-8.40582 -0.72809,-1.33879 -1.95656,-3.59622 -2.72995,-5.0165 -0.77338,-1.42029 -2.24032,-4.11586 -3.25987,-5.99017 -1.01955,-1.87431 -2.32031,-4.26508 -2.89057,-5.31283 -0.57027,-1.04775 -1.27506,-2.34315 -1.56622,-2.87867 -0.29116,-0.53552 -1.04793,-1.92617 -1.68171,-3.09033 -0.63379,-1.16417 -1.53006,-2.812 -1.99172,-3.66184 -1.21575,-2.23801 -1.27103,-2.33663 -1.3091,-2.33573 -0.0325,7.7e-4 -1.01206,1.78424 -6.932683,12.62273 -3.65714,6.69488 -5.22953,9.57271 -6.60364,12.08617 -0.68737,1.2573 -1.92114,3.51473 -2.74171,5.0165 -0.82057,1.50178 -2.17555,3.98145 -3.01107,5.51038 -0.83551,1.52894 -1.51911,2.791 -1.51911,2.80459 0,0.0136 9.34606,0.0247 20.769013,0.0247 19.4681,0 20.76732,-0.004 20.74162,-0.0714 z m 2.84775,-4.54291 c 0.7622,-2.47747 1.43378,-4.65584 2.44708,-7.9375 1.34837,-4.36684 1.68431,-5.45515 2.27371,-7.366 0.33754,-1.09431 1.00762,-3.26601 1.48906,-4.826 0.48145,-1.55998 0.97817,-3.16971 1.10382,-3.57716 l 0.22846,-0.74084 7e-5,-1.49062 7e-5,-1.49061 -0.15875,-0.0426 c -0.0873,-0.0234 -0.98743,-0.24447 -2.00025,-0.49124 -1.01283,-0.24678 -3.08928,-0.75355 -4.61433,-1.12615 -1.52506,-0.37261 -3.11574,-0.76069 -3.53484,-0.86241 -0.4191,-0.10172 -3.5814,-0.87304 -7.02733,-1.71405 -10.28822,-2.51091 -10.95281,-2.67166 -10.97077,-2.6537 -0.0153,0.0153 1.13329,2.13652 5.27615,9.74434 0.64663,1.18745 1.6473,3.02578 2.22372,4.08517 0.57641,1.05939 1.40053,2.57387 1.83138,3.3655 1.50144,2.7587 3.35047,6.15692 4.81417,8.84767 0.81059,1.49013 2.11153,3.88091 2.89097,5.31283 0.77943,1.43193 1.71197,3.14643 2.07231,3.81 0.84068,1.54816 0.86019,1.58154 0.89944,1.5388 0.0182,-0.0198 0.35831,-1.09324 0.75586,-2.38547 z m -45.394533,0.55034 c 0.52856,-0.96626 1.34694,-2.46169 1.81862,-3.32317 0.47168,-0.86148 2.40044,-4.38573 4.28612,-7.83167 3.27048,-5.97652 8.65534,-15.81661 9.93838,-18.161 1.890533,-3.45442 2.371253,-4.33266 2.662703,-4.86445 0.17748,-0.32383 0.31299,-0.59848 0.30114,-0.61033 -0.0236,-0.0236 0.0268,-0.0357 -6.075143,1.45466 -2.33998,0.57153 -4.72123,1.15226 -5.29167,1.2905 -0.97574,0.23647 -10.29517,2.51115 -14.6685,3.58027 -1.09432,0.26753 -2.04205,0.49751 -2.10608,0.51109 l -0.11642,0.0247 v 1.39532 1.39532 l 0.35733,1.17114 c 0.19654,0.64412 1.02643,3.37141 1.84421,6.06064 0.81778,2.68922 1.78887,5.8801 2.15798,7.09083 0.3691,1.21073 0.9314,3.05858 1.24955,4.10633 0.31815,1.04775 0.84243,2.77178 1.16508,3.83117 0.32265,1.05939 0.76903,2.52624 0.99194,3.25967 0.48021,1.57998 0.44005,1.4632 0.48655,1.41466 0.0205,-0.0214 0.46966,-0.8294 0.99821,-1.79566 z m -0.42863,-32.97958 c 0.86384,-0.21061 2.18974,-0.53429 2.94645,-0.7193 2.27951,-0.55733 6.47786,-1.58202 8.23383,-2.00963 0.90805,-0.22113 3.2512,-0.79297 5.207,-1.27075 1.955793,-0.47778 3.731073,-0.9093 3.945063,-0.95892 0.21399,-0.0496 0.40935,-0.10276 0.43413,-0.11807 0.0315,-0.0194 0.0418,-1.24339 0.0343,-4.05774 l -0.0108,-4.02989 -3.17499,1.91182 c -1.746243,1.0515 -4.803773,2.89282 -6.794493,4.09183 -1.99073,1.19902 -5.23875,3.15485 -7.21784,4.34629 -4.26021,2.56473 -5.2433,3.15841 -5.26697,3.18068 -0.0477,0.0449 0.2129,-0.0125 1.66436,-0.36632 z m 45.995903,0.24173 c -0.01,-0.008 -0.78916,-0.47769 -1.73214,-1.0442 -1.93799,-1.16428 -4.70456,-2.82946 -6.83683,-4.11505 -0.79163,-0.47729 -3.16336,-1.90594 -5.2705,-3.17477 -2.10714,-1.26884 -4.8641,-2.92899 -6.12658,-3.68922 -1.26248,-0.76024 -2.30557,-1.38225 -2.31797,-1.38225 -0.0124,0 -0.0177,1.80434 -0.0117,4.00964 l 0.0108,4.00963 0.5715,0.13912 c 1.06754,0.25987 16.39044,3.99846 19.05,4.64795 2.32615,0.56806 2.74084,0.66135 2.66347,0.59915 z"
       id="path1"
       sodipodi:nodetypes="cssssssssccscssssscsssssscccccsssssssscccssssscscsssssssccssssssssssssssssssssssssssssscssssssscsssccsscssscccsssssssssssssssssscssssccccssssssssssssccsssssssssscccssssssssscsssscccssssccssssssccssss" /></g></svg>
