<svg xmlns="http://www.w3.org/2000/svg" width="150" height="210" viewBox="0 0 150 210">
<rect x="0" y="0" width="150" height="210" fill="rgb(22,17,4)"/>
<line x1="-210" y1="0" x2="0" y2="210" stroke="rgb(29,24,11)" stroke-width="1" stroke-linecap="round"/>
<line x1="-196" y1="0" x2="14" y2="210" stroke="rgb(29,24,11)" stroke-width="1" stroke-linecap="round"/>
<line x1="-182" y1="0" x2="28" y2="210" stroke="rgb(29,24,11)" stroke-width="1" stroke-linecap="round"/>
<line x1="-168" y1="0" x2="42" y2="210" stroke="rgb(29,24,11)" stroke-width="1" stroke-linecap="round"/>
<line x1="-154" y1="0" x2="56" y2="210" stroke="rgb(29,24,11)" stroke-width="1" stroke-linecap="round"/>
<line x1="-140" y1="0" x2="70" y2="210" stroke="rgb(29,24,11)" stroke-width="1" stroke-linecap="round"/>
<line x1="-126" y1="0" x2="84" y2="210" stroke="rgb(29,24,11)" stroke-width="1" stroke-linecap="round"/>
<line x1="-112" y1="0" x2="98" y2="210" stroke="rgb(29,24,11)" stroke-width="1" stroke-linecap="round"/>
<line x1="-98" y1="0" x2="112" y2="210" stroke="rgb(29,24,11)" stroke-width="1" stroke-linecap="round"/>
<line x1="-84" y1="0" x2="126" y2="210" stroke="rgb(29,24,11)" stroke-width="1" stroke-linecap="round"/>
<line x1="-70" y1="0" x2="140" y2="210" stroke="rgb(29,24,11)" stroke-width="1" stroke-linecap="round"/>
<line x1="-56" y1="0" x2="154" y2="210" stroke="rgb(29,24,11)" stroke-width="1" stroke-linecap="round"/>
<line x1="-42" y1="0" x2="168" y2="210" stroke="rgb(29,24,11)" stroke-width="1" stroke-linecap="round"/>
<line x1="-28" y1="0" x2="182" y2="210" stroke="rgb(29,24,11)" stroke-width="1" stroke-linecap="round"/>
<line x1="-14" y1="0" x2="196" y2="210" stroke="rgb(29,24,11)" stroke-width="1" stroke-linecap="round"/>
<line x1="0" y1="0" x2="210" y2="210" stroke="rgb(29,24,11)" stroke-width="1" stroke-linecap="round"/>
<line x1="14" y1="0" x2="224" y2="210" stroke="rgb(29,24,11)" stroke-width="1" stroke-linecap="round"/>
<line x1="28" y1="0" x2="238" y2="210" stroke="rgb(29,24,11)" stroke-width="1" stroke-linecap="round"/>
<line x1="42" y1="0" x2="252" y2="210" stroke="rgb(29,24,11)" stroke-width="1" stroke-linecap="round"/>
<line x1="56" y1="0" x2="266" y2="210" stroke="rgb(29,24,11)" stroke-width="1" stroke-linecap="round"/>
<line x1="70" y1="0" x2="280" y2="210" stroke="rgb(29,24,11)" stroke-width="1" stroke-linecap="round"/>
<line x1="84" y1="0" x2="294" y2="210" stroke="rgb(29,24,11)" stroke-width="1" stroke-linecap="round"/>
<line x1="98" y1="0" x2="308" y2="210" stroke="rgb(29,24,11)" stroke-width="1" stroke-linecap="round"/>
<line x1="112" y1="0" x2="322" y2="210" stroke="rgb(29,24,11)" stroke-width="1" stroke-linecap="round"/>
<line x1="126" y1="0" x2="336" y2="210" stroke="rgb(29,24,11)" stroke-width="1" stroke-linecap="round"/>
<line x1="140" y1="0" x2="350" y2="210" stroke="rgb(29,24,11)" stroke-width="1" stroke-linecap="round"/>
<line x1="154" y1="0" x2="364" y2="210" stroke="rgb(29,24,11)" stroke-width="1" stroke-linecap="round"/>
<line x1="168" y1="0" x2="378" y2="210" stroke="rgb(29,24,11)" stroke-width="1" stroke-linecap="round"/>
<line x1="182" y1="0" x2="392" y2="210" stroke="rgb(29,24,11)" stroke-width="1" stroke-linecap="round"/>
<line x1="196" y1="0" x2="406" y2="210" stroke="rgb(29,24,11)" stroke-width="1" stroke-linecap="round"/>
<line x1="210" y1="0" x2="420" y2="210" stroke="rgb(29,24,11)" stroke-width="1" stroke-linecap="round"/>
<line x1="224" y1="0" x2="434" y2="210" stroke="rgb(29,24,11)" stroke-width="1" stroke-linecap="round"/>
<line x1="238" y1="0" x2="448" y2="210" stroke="rgb(29,24,11)" stroke-width="1" stroke-linecap="round"/>
<line x1="252" y1="0" x2="462" y2="210" stroke="rgb(29,24,11)" stroke-width="1" stroke-linecap="round"/>
<line x1="266" y1="0" x2="476" y2="210" stroke="rgb(29,24,11)" stroke-width="1" stroke-linecap="round"/>
<line x1="280" y1="0" x2="490" y2="210" stroke="rgb(29,24,11)" stroke-width="1" stroke-linecap="round"/>
<line x1="294" y1="0" x2="504" y2="210" stroke="rgb(29,24,11)" stroke-width="1" stroke-linecap="round"/>
<line x1="308" y1="0" x2="518" y2="210" stroke="rgb(29,24,11)" stroke-width="1" stroke-linecap="round"/>
<line x1="322" y1="0" x2="532" y2="210" stroke="rgb(29,24,11)" stroke-width="1" stroke-linecap="round"/>
<line x1="336" y1="0" x2="546" y2="210" stroke="rgb(29,24,11)" stroke-width="1" stroke-linecap="round"/>
<line x1="350" y1="0" x2="560" y2="210" stroke="rgb(29,24,11)" stroke-width="1" stroke-linecap="round"/>
<rect x="1" y="1" width="147" height="207" fill="none" stroke="rgb(124,93,20)" stroke-width="3"/>
<rect x="5" y="5" width="139" height="199" fill="none" stroke="rgb(56,40,10)" stroke-width="1"/>
<polygon points="2,-1 5,2 2,5 -1,2" fill="rgb(202,162,44)" stroke-linejoin="round"/>
<polygon points="147,-1 150,2 147,5 144,2" fill="rgb(202,162,44)" stroke-linejoin="round"/>
<polygon points="2,204 5,207 2,210 -1,207" fill="rgb(202,162,44)" stroke-linejoin="round"/>
<polygon points="147,204 150,207 147,210 144,207" fill="rgb(202,162,44)" stroke-linejoin="round"/>
<polygon points="75,29 59,92 91,92" fill="rgb(96,84,31)" stroke-linejoin="round"/>
<polygon points="75,29 61,92 89,92" fill="rgb(84,73,27)" stroke-linejoin="round"/>
<polygon points="75,29 63,92 87,92" fill="rgb(72,63,23)" stroke-linejoin="round"/>
<polygon points="75,29 65,92 85,92" fill="rgb(60,52,19)" stroke-linejoin="round"/>
<polygon points="75,29 67,92 83,92" fill="rgb(48,42,15)" stroke-linejoin="round"/>
<polygon points="75,29 69,92 81,92" fill="rgb(36,31,11)" stroke-linejoin="round"/>
<polygon points="75,29 64,92 86,92" fill="rgb(75,55,115)" stroke-linejoin="round"/>
<line x1="70" y1="35" x2="80" y2="42" stroke="rgb(255,222,82)" stroke-width="1" stroke-linecap="round"/>
<line x1="71" y1="45" x2="79" y2="52" stroke="rgb(255,222,82)" stroke-width="1" stroke-linecap="round"/>
<line x1="70" y1="55" x2="80" y2="62" stroke="rgb(255,222,82)" stroke-width="1" stroke-linecap="round"/>
<line x1="71" y1="65" x2="79" y2="72" stroke="rgb(255,222,82)" stroke-width="1" stroke-linecap="round"/>
<line x1="70" y1="75" x2="80" y2="82" stroke="rgb(255,222,82)" stroke-width="1" stroke-linecap="round"/>
<line x1="71" y1="85" x2="79" y2="92" stroke="rgb(255,222,82)" stroke-width="1" stroke-linecap="round"/>
<rect x="52" y="88" width="46" height="5" fill="rgb(75,55,115)"/>
<ellipse cx="52.00" cy="91.00" rx="4.00" ry="7.00" fill="rgb(75,55,115)"/>
<ellipse cx="98.00" cy="91.00" rx="4.00" ry="7.00" fill="rgb(75,55,115)"/>
<ellipse cx="75.00" cy="90.50" rx="5.00" ry="4.50" fill="rgb(255,222,82)"/>
<rect x="70" y="93" width="10" height="28" fill="rgb(58,38,78)"/>
<polygon points="75,119 67,127 75,133 83,127" fill="rgb(75,55,115)" stroke-linejoin="round"/>
<text x="9" y="7" font-family="'DejaVu Sans Bold',sans-serif" font-weight="bold" font-size="22" fill="rgb(255,242,185)" dominant-baseline="hanging">10</text>
<text x="10" y="31" font-family="'DejaVu Sans Bold',sans-serif" font-weight="bold" font-size="15" fill="rgb(202,162,44)" dominant-baseline="hanging">◆</text>
<rect x="7" y="162" width="135" height="40" fill="rgb(56,40,10)"/>
<rect x="7" y="162" width="135" height="40" fill="none" stroke="rgb(124,93,20)" stroke-width="1"/>
<text x="44.0" y="172" font-family="'DejaVu Sans Bold',sans-serif" font-weight="bold" font-size="9" fill="rgb(255,242,185)" dominant-baseline="hanging">VOID REAVER</text>
</svg>
