<svg xmlns="http://www.w3.org/2000/svg" width="150" height="210" viewBox="0 0 150 210">
<rect x="0" y="0" width="150" height="210" fill="rgb(8,8,22)"/>
<line x1="-210" y1="0" x2="0" y2="210" stroke="rgb(15,15,29)" stroke-width="1" stroke-linecap="round"/>
<line x1="-196" y1="0" x2="14" y2="210" stroke="rgb(15,15,29)" stroke-width="1" stroke-linecap="round"/>
<line x1="-182" y1="0" x2="28" y2="210" stroke="rgb(15,15,29)" stroke-width="1" stroke-linecap="round"/>
<line x1="-168" y1="0" x2="42" y2="210" stroke="rgb(15,15,29)" stroke-width="1" stroke-linecap="round"/>
<line x1="-154" y1="0" x2="56" y2="210" stroke="rgb(15,15,29)" stroke-width="1" stroke-linecap="round"/>
<line x1="-140" y1="0" x2="70" y2="210" stroke="rgb(15,15,29)" stroke-width="1" stroke-linecap="round"/>
<line x1="-126" y1="0" x2="84" y2="210" stroke="rgb(15,15,29)" stroke-width="1" stroke-linecap="round"/>
<line x1="-112" y1="0" x2="98" y2="210" stroke="rgb(15,15,29)" stroke-width="1" stroke-linecap="round"/>
<line x1="-98" y1="0" x2="112" y2="210" stroke="rgb(15,15,29)" stroke-width="1" stroke-linecap="round"/>
<line x1="-84" y1="0" x2="126" y2="210" stroke="rgb(15,15,29)" stroke-width="1" stroke-linecap="round"/>
<line x1="-70" y1="0" x2="140" y2="210" stroke="rgb(15,15,29)" stroke-width="1" stroke-linecap="round"/>
<line x1="-56" y1="0" x2="154" y2="210" stroke="rgb(15,15,29)" stroke-width="1" stroke-linecap="round"/>
<line x1="-42" y1="0" x2="168" y2="210" stroke="rgb(15,15,29)" stroke-width="1" stroke-linecap="round"/>
<line x1="-28" y1="0" x2="182" y2="210" stroke="rgb(15,15,29)" stroke-width="1" stroke-linecap="round"/>
<line x1="-14" y1="0" x2="196" y2="210" stroke="rgb(15,15,29)" stroke-width="1" stroke-linecap="round"/>
<line x1="0" y1="0" x2="210" y2="210" stroke="rgb(15,15,29)" stroke-width="1" stroke-linecap="round"/>
<line x1="14" y1="0" x2="224" y2="210" stroke="rgb(15,15,29)" stroke-width="1" stroke-linecap="round"/>
<line x1="28" y1="0" x2="238" y2="210" stroke="rgb(15,15,29)" stroke-width="1" stroke-linecap="round"/>
<line x1="42" y1="0" x2="252" y2="210" stroke="rgb(15,15,29)" stroke-width="1" stroke-linecap="round"/>
<line x1="56" y1="0" x2="266" y2="210" stroke="rgb(15,15,29)" stroke-width="1" stroke-linecap="round"/>
<line x1="70" y1="0" x2="280" y2="210" stroke="rgb(15,15,29)" stroke-width="1" stroke-linecap="round"/>
<line x1="84" y1="0" x2="294" y2="210" stroke="rgb(15,15,29)" stroke-width="1" stroke-linecap="round"/>
<line x1="98" y1="0" x2="308" y2="210" stroke="rgb(15,15,29)" stroke-width="1" stroke-linecap="round"/>
<line x1="112" y1="0" x2="322" y2="210" stroke="rgb(15,15,29)" stroke-width="1" stroke-linecap="round"/>
<line x1="126" y1="0" x2="336" y2="210" stroke="rgb(15,15,29)" stroke-width="1" stroke-linecap="round"/>
<line x1="140" y1="0" x2="350" y2="210" stroke="rgb(15,15,29)" stroke-width="1" stroke-linecap="round"/>
<line x1="154" y1="0" x2="364" y2="210" stroke="rgb(15,15,29)" stroke-width="1" stroke-linecap="round"/>
<line x1="168" y1="0" x2="378" y2="210" stroke="rgb(15,15,29)" stroke-width="1" stroke-linecap="round"/>
<line x1="182" y1="0" x2="392" y2="210" stroke="rgb(15,15,29)" stroke-width="1" stroke-linecap="round"/>
<line x1="196" y1="0" x2="406" y2="210" stroke="rgb(15,15,29)" stroke-width="1" stroke-linecap="round"/>
<line x1="210" y1="0" x2="420" y2="210" stroke="rgb(15,15,29)" stroke-width="1" stroke-linecap="round"/>
<line x1="224" y1="0" x2="434" y2="210" stroke="rgb(15,15,29)" stroke-width="1" stroke-linecap="round"/>
<line x1="238" y1="0" x2="448" y2="210" stroke="rgb(15,15,29)" stroke-width="1" stroke-linecap="round"/>
<line x1="252" y1="0" x2="462" y2="210" stroke="rgb(15,15,29)" stroke-width="1" stroke-linecap="round"/>
<line x1="266" y1="0" x2="476" y2="210" stroke="rgb(15,15,29)" stroke-width="1" stroke-linecap="round"/>
<line x1="280" y1="0" x2="490" y2="210" stroke="rgb(15,15,29)" stroke-width="1" stroke-linecap="round"/>
<line x1="294" y1="0" x2="504" y2="210" stroke="rgb(15,15,29)" stroke-width="1" stroke-linecap="round"/>
<line x1="308" y1="0" x2="518" y2="210" stroke="rgb(15,15,29)" stroke-width="1" stroke-linecap="round"/>
<line x1="322" y1="0" x2="532" y2="210" stroke="rgb(15,15,29)" stroke-width="1" stroke-linecap="round"/>
<line x1="336" y1="0" x2="546" y2="210" stroke="rgb(15,15,29)" stroke-width="1" stroke-linecap="round"/>
<line x1="350" y1="0" x2="560" y2="210" stroke="rgb(15,15,29)" stroke-width="1" stroke-linecap="round"/>
<rect x="1" y="1" width="147" height="207" fill="none" stroke="rgb(58,32,118)" stroke-width="3"/>
<rect x="5" y="5" width="139" height="199" fill="none" stroke="rgb(28,15,58)" stroke-width="1"/>
<polygon points="2,-1 5,2 2,5 -1,2" fill="rgb(115,65,205)" stroke-linejoin="round"/>
<polygon points="147,-1 150,2 147,5 144,2" fill="rgb(115,65,205)" stroke-linejoin="round"/>
<polygon points="2,204 5,207 2,210 -1,207" fill="rgb(115,65,205)" stroke-linejoin="round"/>
<polygon points="147,204 150,207 147,210 144,207" fill="rgb(115,65,205)" stroke-linejoin="round"/>
<ellipse cx="75.00" cy="73.50" rx="24.00" ry="17.50" fill="rgb(205,187,236)"/>
<rect x="56" y="91" width="38" height="11" fill="rgb(205,187,236)"/>
<ellipse cx="65.00" cy="76.00" rx="8.00" ry="9.00" fill="rgb(45,41,51)"/>
<ellipse cx="65.00" cy="76.00" rx="5.00" ry="6.00" fill="rgb(165,95,255)"/>
<ellipse cx="85.00" cy="76.00" rx="8.00" ry="9.00" fill="rgb(45,41,51)"/>
<ellipse cx="85.00" cy="76.00" rx="5.00" ry="6.00" fill="rgb(165,95,255)"/>
<polygon points="75,81 70,92 80,92" fill="rgb(45,41,51)" stroke-linejoin="round"/>
<rect x="60" y="93" width="3" height="5" fill="rgb(45,41,51)"/>
<rect x="66" y="93" width="3" height="5" fill="rgb(45,41,51)"/>
<rect x="72" y="93" width="3" height="5" fill="rgb(45,41,51)"/>
<rect x="78" y="93" width="3" height="5" fill="rgb(45,41,51)"/>
<rect x="84" y="93" width="3" height="5" fill="rgb(45,41,51)"/>
<polygon points="75,91 35,61 19,83 41,109 25,119 57,115 75,113" fill="rgb(28,15,58)" stroke-linejoin="round"/>
<polygon points="75,91 35,61 19,83 41,109 25,119 57,115 75,113" fill="none" stroke="rgb(58,32,118)" stroke-width="1" stroke-linejoin="round"/>
<polygon points="75,91 115,61 131,83 109,109 125,119 93,115 75,113" fill="rgb(28,15,58)" stroke-linejoin="round"/>
<polygon points="75,91 115,61 131,83 109,109 125,119 93,115 75,113" fill="none" stroke="rgb(58,32,118)" stroke-width="1" stroke-linejoin="round"/>
<polygon points="66,103 72,103 69,117" fill="rgb(228,218,208)" stroke-linejoin="round"/>
<polygon points="74,103 80,103 77,117" fill="rgb(228,218,208)" stroke-linejoin="round"/>
<path transform="translate(9.00,27.42) scale(0.01074,-0.01074)" d="M240 266H580V1231L231 1159V1421L578 1493H944V266H1284V0H240Z" fill="rgb(215,185,255)"/>
<path transform="translate(24.31,27.42) scale(0.01074,-0.01074)" d="M942 748Q942 1028 889.5 1142.5Q837 1257 713 1257Q589 1257 536.0 1142.5Q483 1028 483 748Q483 465 536.0 349.0Q589 233 713 233Q836 233 889.0 349.0Q942 465 942 748ZM1327 745Q1327 374 1167.0 172.5Q1007 -29 713 -29Q418 -29 258.0 172.5Q98 374 98 745Q98 1117 258.0 1318.5Q418 1520 713 1520Q1007 1520 1167.0 1318.5Q1327 1117 1327 745Z" fill="rgb(215,185,255)"/>
<path transform="translate(10.00,44.92) scale(0.00732,-0.00732)" d="M920 1492Q1014 1325 1230 1049Q1467 771 1473 714Q1512 629 1512 549V509Q1512 342 1350 246Q1297 224 1233 224Q1079 224 984 445H942V433Q942 150 1025 0H810V6Q895 157 895 442L892 445H854L807 357Q722 224 595 224Q408 224 332 433L323 506V552Q323 735 510 938Q825 1324 914 1489L917 1492Z" fill="rgb(115,65,205)"/>
<rect x="7" y="162" width="135" height="40" fill="rgb(28,15,58)"/>
<rect x="7" y="162" width="135" height="40" fill="none" stroke="rgb(58,32,118)" stroke-width="1"/>
<path transform="translate(52.00,180.35) scale(0.00439,-0.00439)" d="M10 1493H397L793 391L1188 1493H1575L1022 0H563Z" fill="rgb(215,185,255)"/>
<path transform="translate(58.97,180.35) scale(0.00439,-0.00439)" d="M1094 272H492L397 0H10L563 1493H1022L1575 0H1188ZM588 549H997L793 1143Z" fill="rgb(215,185,255)"/>
<path transform="translate(65.93,180.35) scale(0.00439,-0.00439)" d="M188 1493H678L1018 694L1360 1493H1849V0H1485V1092L1141 287H897L553 1092V0H188Z" fill="rgb(215,185,255)"/>
<path transform="translate(74.89,180.35) scale(0.00439,-0.00439)" d="M188 1493H827Q1112 1493 1264.5 1366.5Q1417 1240 1417 1006Q1417 771 1264.5 644.5Q1112 518 827 518H573V0H188ZM573 1214V797H786Q898 797 959.0 851.5Q1020 906 1020 1006Q1020 1106 959.0 1160.0Q898 1214 786 1214Z" fill="rgb(215,185,255)"/>
<path transform="translate(81.48,180.35) scale(0.00439,-0.00439)" d="M188 1493H573V0H188Z" fill="rgb(215,185,255)"/>
<path transform="translate(84.83,180.35) scale(0.00439,-0.00439)" d="M735 831Q856 831 908.5 876.0Q961 921 961 1024Q961 1126 908.5 1170.0Q856 1214 735 1214H573V831ZM573 565V0H188V1493H776Q1071 1493 1208.5 1394.0Q1346 1295 1346 1081Q1346 933 1274.5 838.0Q1203 743 1059 698Q1138 680 1200.5 616.5Q1263 553 1327 424L1536 0H1126L944 371Q889 483 832.5 524.0Q776 565 682 565Z" fill="rgb(215,185,255)"/>
<path transform="translate(91.76,180.35) scale(0.00439,-0.00439)" d="M188 1493H1227V1202H573V924H1188V633H573V291H1249V0H188Z" fill="rgb(215,185,255)"/>
</svg>
