<svg xmlns="http://www.w3.org/2000/svg" width="150" height="210" viewBox="0 0 150 210">
<rect x="0" y="0" width="150" height="210" fill="rgb(8,18,12)"/>
<line x1="-210" y1="0" x2="0" y2="210" stroke="rgb(15,25,19)" stroke-width="1" stroke-linecap="round"/>
<line x1="-196" y1="0" x2="14" y2="210" stroke="rgb(15,25,19)" stroke-width="1" stroke-linecap="round"/>
<line x1="-182" y1="0" x2="28" y2="210" stroke="rgb(15,25,19)" stroke-width="1" stroke-linecap="round"/>
<line x1="-168" y1="0" x2="42" y2="210" stroke="rgb(15,25,19)" stroke-width="1" stroke-linecap="round"/>
<line x1="-154" y1="0" x2="56" y2="210" stroke="rgb(15,25,19)" stroke-width="1" stroke-linecap="round"/>
<line x1="-140" y1="0" x2="70" y2="210" stroke="rgb(15,25,19)" stroke-width="1" stroke-linecap="round"/>
<line x1="-126" y1="0" x2="84" y2="210" stroke="rgb(15,25,19)" stroke-width="1" stroke-linecap="round"/>
<line x1="-112" y1="0" x2="98" y2="210" stroke="rgb(15,25,19)" stroke-width="1" stroke-linecap="round"/>
<line x1="-98" y1="0" x2="112" y2="210" stroke="rgb(15,25,19)" stroke-width="1" stroke-linecap="round"/>
<line x1="-84" y1="0" x2="126" y2="210" stroke="rgb(15,25,19)" stroke-width="1" stroke-linecap="round"/>
<line x1="-70" y1="0" x2="140" y2="210" stroke="rgb(15,25,19)" stroke-width="1" stroke-linecap="round"/>
<line x1="-56" y1="0" x2="154" y2="210" stroke="rgb(15,25,19)" stroke-width="1" stroke-linecap="round"/>
<line x1="-42" y1="0" x2="168" y2="210" stroke="rgb(15,25,19)" stroke-width="1" stroke-linecap="round"/>
<line x1="-28" y1="0" x2="182" y2="210" stroke="rgb(15,25,19)" stroke-width="1" stroke-linecap="round"/>
<line x1="-14" y1="0" x2="196" y2="210" stroke="rgb(15,25,19)" stroke-width="1" stroke-linecap="round"/>
<line x1="0" y1="0" x2="210" y2="210" stroke="rgb(15,25,19)" stroke-width="1" stroke-linecap="round"/>
<line x1="14" y1="0" x2="224" y2="210" stroke="rgb(15,25,19)" stroke-width="1" stroke-linecap="round"/>
<line x1="28" y1="0" x2="238" y2="210" stroke="rgb(15,25,19)" stroke-width="1" stroke-linecap="round"/>
<line x1="42" y1="0" x2="252" y2="210" stroke="rgb(15,25,19)" stroke-width="1" stroke-linecap="round"/>
<line x1="56" y1="0" x2="266" y2="210" stroke="rgb(15,25,19)" stroke-width="1" stroke-linecap="round"/>
<line x1="70" y1="0" x2="280" y2="210" stroke="rgb(15,25,19)" stroke-width="1" stroke-linecap="round"/>
<line x1="84" y1="0" x2="294" y2="210" stroke="rgb(15,25,19)" stroke-width="1" stroke-linecap="round"/>
<line x1="98" y1="0" x2="308" y2="210" stroke="rgb(15,25,19)" stroke-width="1" stroke-linecap="round"/>
<line x1="112" y1="0" x2="322" y2="210" stroke="rgb(15,25,19)" stroke-width="1" stroke-linecap="round"/>
<line x1="126" y1="0" x2="336" y2="210" stroke="rgb(15,25,19)" stroke-width="1" stroke-linecap="round"/>
<line x1="140" y1="0" x2="350" y2="210" stroke="rgb(15,25,19)" stroke-width="1" stroke-linecap="round"/>
<line x1="154" y1="0" x2="364" y2="210" stroke="rgb(15,25,19)" stroke-width="1" stroke-linecap="round"/>
<line x1="168" y1="0" x2="378" y2="210" stroke="rgb(15,25,19)" stroke-width="1" stroke-linecap="round"/>
<line x1="182" y1="0" x2="392" y2="210" stroke="rgb(15,25,19)" stroke-width="1" stroke-linecap="round"/>
<line x1="196" y1="0" x2="406" y2="210" stroke="rgb(15,25,19)" stroke-width="1" stroke-linecap="round"/>
<line x1="210" y1="0" x2="420" y2="210" stroke="rgb(15,25,19)" stroke-width="1" stroke-linecap="round"/>
<line x1="224" y1="0" x2="434" y2="210" stroke="rgb(15,25,19)" stroke-width="1" stroke-linecap="round"/>
<line x1="238" y1="0" x2="448" y2="210" stroke="rgb(15,25,19)" stroke-width="1" stroke-linecap="round"/>
<line x1="252" y1="0" x2="462" y2="210" stroke="rgb(15,25,19)" stroke-width="1" stroke-linecap="round"/>
<line x1="266" y1="0" x2="476" y2="210" stroke="rgb(15,25,19)" stroke-width="1" stroke-linecap="round"/>
<line x1="280" y1="0" x2="490" y2="210" stroke="rgb(15,25,19)" stroke-width="1" stroke-linecap="round"/>
<line x1="294" y1="0" x2="504" y2="210" stroke="rgb(15,25,19)" stroke-width="1" stroke-linecap="round"/>
<line x1="308" y1="0" x2="518" y2="210" stroke="rgb(15,25,19)" stroke-width="1" stroke-linecap="round"/>
<line x1="322" y1="0" x2="532" y2="210" stroke="rgb(15,25,19)" stroke-width="1" stroke-linecap="round"/>
<line x1="336" y1="0" x2="546" y2="210" stroke="rgb(15,25,19)" stroke-width="1" stroke-linecap="round"/>
<line x1="350" y1="0" x2="560" y2="210" stroke="rgb(15,25,19)" stroke-width="1" stroke-linecap="round"/>
<rect x="1" y="1" width="147" height="207" fill="none" stroke="rgb(40,105,62)" stroke-width="3"/>
<rect x="5" y="5" width="139" height="199" fill="none" stroke="rgb(22,50,32)" stroke-width="1"/>
<polygon points="2,-1 5,2 2,5 -1,2" fill="rgb(65,175,105)" stroke-linejoin="round"/>
<polygon points="147,-1 150,2 147,5 144,2" fill="rgb(65,175,105)" stroke-linejoin="round"/>
<polygon points="2,204 5,207 2,210 -1,207" fill="rgb(65,175,105)" stroke-linejoin="round"/>
<polygon points="147,204 150,207 147,210 144,207" fill="rgb(65,175,105)" stroke-linejoin="round"/>
<ellipse cx="75.00" cy="114.00" rx="16.00" ry="11.00" fill="rgb(48,96,58)"/>
<ellipse cx="75.00" cy="88.00" rx="20.00" ry="19.00" fill="rgb(48,96,58)"/>
<polygon points="55,85 41,69 63,77" fill="rgb(48,96,58)" stroke-linejoin="round"/>
<polygon points="95,85 109,69 87,77" fill="rgb(48,96,58)" stroke-linejoin="round"/>
<ellipse cx="67.00" cy="85.00" rx="6.00" ry="6.00" fill="rgb(0,0,0)"/>
<ellipse cx="67.00" cy="85.00" rx="4.00" ry="4.00" fill="rgb(95,255,140)"/>
<ellipse cx="83.00" cy="85.00" rx="6.00" ry="6.00" fill="rgb(0,0,0)"/>
<ellipse cx="83.00" cy="85.00" rx="4.00" ry="4.00" fill="rgb(95,255,140)"/>
<line x1="68" y1="101" x2="82" y2="101" stroke="rgb(0,0,0)" stroke-width="2" stroke-linecap="round"/>
<path transform="translate(9.00,27.42) scale(0.01074,-0.01074)" d="M954 805Q1105 766 1183.5 669.5Q1262 573 1262 424Q1262 202 1092.0 86.5Q922 -29 596 -29Q481 -29 365.5 -10.5Q250 8 137 45V342Q245 288 351.5 260.5Q458 233 561 233Q714 233 795.5 286.0Q877 339 877 438Q877 540 793.5 592.5Q710 645 547 645H393V893H555Q700 893 771.0 938.5Q842 984 842 1077Q842 1163 773.0 1210.0Q704 1257 578 1257Q485 1257 390.0 1236.0Q295 1215 201 1174V1456Q315 1488 427.0 1504.0Q539 1520 647 1520Q938 1520 1082.5 1424.5Q1227 1329 1227 1137Q1227 1006 1158.0 922.5Q1089 839 954 805Z" fill="rgb(210,255,225)"/>
<path transform="translate(10.00,44.92) scale(0.00732,-0.00732)" d="M919 1492Q1133 1492 1234 1265Q1247 1213 1250 1157Q1250 1040 1130 880L1070 820H1073Q1147 848 1231 848H1250Q1488 848 1584 646Q1607 580 1607 520Q1607 315 1398 211Q1358 199 1287 193Q1045 193 944 467H941V458Q941 115 1023 6V0H815L809 6Q894 134 894 467V470H891Q791 193 546 193Q355 193 253 394Q228 462 228 520Q228 753 474 836Q540 848 591 848H600Q686 848 764 820H767V823Q683 894 654 963Q594 1073 594 1154V1168Q594 1369 809 1473Q880 1492 919 1492Z" fill="rgb(65,175,105)"/>
<rect x="7" y="162" width="135" height="40" fill="rgb(22,50,32)"/>
<rect x="7" y="162" width="135" height="40" fill="none" stroke="rgb(40,105,62)" stroke-width="1"/>
<path transform="translate(55.00,180.35) scale(0.00439,-0.00439)" d="M1530 111Q1386 41 1231.0 6.0Q1076 -29 911 -29Q538 -29 320.0 179.5Q102 388 102 745Q102 1106 324.0 1313.0Q546 1520 932 1520Q1081 1520 1217.5 1492.0Q1354 1464 1475 1409V1100Q1350 1171 1226.5 1206.0Q1103 1241 979 1241Q749 1241 624.5 1112.5Q500 984 500 745Q500 508 620.0 379.0Q740 250 961 250Q1021 250 1072.5 257.5Q1124 265 1165 281V571H930V829H1530Z" fill="rgb(210,255,225)"/>
<path transform="translate(62.39,180.35) scale(0.00439,-0.00439)" d="M870 1241Q694 1241 597.0 1111.0Q500 981 500 745Q500 510 597.0 380.0Q694 250 870 250Q1047 250 1144.0 380.0Q1241 510 1241 745Q1241 981 1144.0 1111.0Q1047 1241 870 1241ZM870 1520Q1230 1520 1434.0 1314.0Q1638 1108 1638 745Q1638 383 1434.0 177.0Q1230 -29 870 -29Q511 -29 306.5 177.0Q102 383 102 745Q102 1108 306.5 1314.0Q511 1520 870 1520Z" fill="rgb(210,255,225)"/>
<path transform="translate(70.04,180.35) scale(0.00439,-0.00439)" d="M786 915Q877 915 924.0 955.0Q971 995 971 1073Q971 1150 924.0 1190.5Q877 1231 786 1231H573V915ZM799 262Q915 262 973.5 311.0Q1032 360 1032 459Q1032 556 974.0 604.5Q916 653 799 653H573V262ZM1157 799Q1281 763 1349.0 666.0Q1417 569 1417 428Q1417 212 1271.0 106.0Q1125 0 827 0H188V1493H766Q1077 1493 1216.5 1399.0Q1356 1305 1356 1098Q1356 989 1305.0 912.5Q1254 836 1157 799Z" fill="rgb(210,255,225)"/>
<path transform="translate(76.90,180.35) scale(0.00439,-0.00439)" d="M188 1493H573V291H1249V0H188Z" fill="rgb(210,255,225)"/>
<path transform="translate(82.63,180.35) scale(0.00439,-0.00439)" d="M188 1493H573V0H188Z" fill="rgb(210,255,225)"/>
<path transform="translate(85.98,180.35) scale(0.00439,-0.00439)" d="M188 1493H618L1161 469V1493H1526V0H1096L553 1024V0H188Z" fill="rgb(210,255,225)"/>
</svg>
