<svg xmlns="http://www.w3.org/2000/svg" width="150" height="210" viewBox="0 0 150 210">
<rect x="0" y="0" width="150" height="210" fill="rgb(22,7,7)"/>
<line x1="-210" y1="0" x2="0" y2="210" stroke="rgb(29,14,14)" stroke-width="1" stroke-linecap="round"/>
<line x1="-196" y1="0" x2="14" y2="210" stroke="rgb(29,14,14)" stroke-width="1" stroke-linecap="round"/>
<line x1="-182" y1="0" x2="28" y2="210" stroke="rgb(29,14,14)" stroke-width="1" stroke-linecap="round"/>
<line x1="-168" y1="0" x2="42" y2="210" stroke="rgb(29,14,14)" stroke-width="1" stroke-linecap="round"/>
<line x1="-154" y1="0" x2="56" y2="210" stroke="rgb(29,14,14)" stroke-width="1" stroke-linecap="round"/>
<line x1="-140" y1="0" x2="70" y2="210" stroke="rgb(29,14,14)" stroke-width="1" stroke-linecap="round"/>
<line x1="-126" y1="0" x2="84" y2="210" stroke="rgb(29,14,14)" stroke-width="1" stroke-linecap="round"/>
<line x1="-112" y1="0" x2="98" y2="210" stroke="rgb(29,14,14)" stroke-width="1" stroke-linecap="round"/>
<line x1="-98" y1="0" x2="112" y2="210" stroke="rgb(29,14,14)" stroke-width="1" stroke-linecap="round"/>
<line x1="-84" y1="0" x2="126" y2="210" stroke="rgb(29,14,14)" stroke-width="1" stroke-linecap="round"/>
<line x1="-70" y1="0" x2="140" y2="210" stroke="rgb(29,14,14)" stroke-width="1" stroke-linecap="round"/>
<line x1="-56" y1="0" x2="154" y2="210" stroke="rgb(29,14,14)" stroke-width="1" stroke-linecap="round"/>
<line x1="-42" y1="0" x2="168" y2="210" stroke="rgb(29,14,14)" stroke-width="1" stroke-linecap="round"/>
<line x1="-28" y1="0" x2="182" y2="210" stroke="rgb(29,14,14)" stroke-width="1" stroke-linecap="round"/>
<line x1="-14" y1="0" x2="196" y2="210" stroke="rgb(29,14,14)" stroke-width="1" stroke-linecap="round"/>
<line x1="0" y1="0" x2="210" y2="210" stroke="rgb(29,14,14)" stroke-width="1" stroke-linecap="round"/>
<line x1="14" y1="0" x2="224" y2="210" stroke="rgb(29,14,14)" stroke-width="1" stroke-linecap="round"/>
<line x1="28" y1="0" x2="238" y2="210" stroke="rgb(29,14,14)" stroke-width="1" stroke-linecap="round"/>
<line x1="42" y1="0" x2="252" y2="210" stroke="rgb(29,14,14)" stroke-width="1" stroke-linecap="round"/>
<line x1="56" y1="0" x2="266" y2="210" stroke="rgb(29,14,14)" stroke-width="1" stroke-linecap="round"/>
<line x1="70" y1="0" x2="280" y2="210" stroke="rgb(29,14,14)" stroke-width="1" stroke-linecap="round"/>
<line x1="84" y1="0" x2="294" y2="210" stroke="rgb(29,14,14)" stroke-width="1" stroke-linecap="round"/>
<line x1="98" y1="0" x2="308" y2="210" stroke="rgb(29,14,14)" stroke-width="1" stroke-linecap="round"/>
<line x1="112" y1="0" x2="322" y2="210" stroke="rgb(29,14,14)" stroke-width="1" stroke-linecap="round"/>
<line x1="126" y1="0" x2="336" y2="210" stroke="rgb(29,14,14)" stroke-width="1" stroke-linecap="round"/>
<line x1="140" y1="0" x2="350" y2="210" stroke="rgb(29,14,14)" stroke-width="1" stroke-linecap="round"/>
<line x1="154" y1="0" x2="364" y2="210" stroke="rgb(29,14,14)" stroke-width="1" stroke-linecap="round"/>
<line x1="168" y1="0" x2="378" y2="210" stroke="rgb(29,14,14)" stroke-width="1" stroke-linecap="round"/>
<line x1="182" y1="0" x2="392" y2="210" stroke="rgb(29,14,14)" stroke-width="1" stroke-linecap="round"/>
<line x1="196" y1="0" x2="406" y2="210" stroke="rgb(29,14,14)" stroke-width="1" stroke-linecap="round"/>
<line x1="210" y1="0" x2="420" y2="210" stroke="rgb(29,14,14)" stroke-width="1" stroke-linecap="round"/>
<line x1="224" y1="0" x2="434" y2="210" stroke="rgb(29,14,14)" stroke-width="1" stroke-linecap="round"/>
<line x1="238" y1="0" x2="448" y2="210" stroke="rgb(29,14,14)" stroke-width="1" stroke-linecap="round"/>
<line x1="252" y1="0" x2="462" y2="210" stroke="rgb(29,14,14)" stroke-width="1" stroke-linecap="round"/>
<line x1="266" y1="0" x2="476" y2="210" stroke="rgb(29,14,14)" stroke-width="1" stroke-linecap="round"/>
<line x1="280" y1="0" x2="490" y2="210" stroke="rgb(29,14,14)" stroke-width="1" stroke-linecap="round"/>
<line x1="294" y1="0" x2="504" y2="210" stroke="rgb(29,14,14)" stroke-width="1" stroke-linecap="round"/>
<line x1="308" y1="0" x2="518" y2="210" stroke="rgb(29,14,14)" stroke-width="1" stroke-linecap="round"/>
<line x1="322" y1="0" x2="532" y2="210" stroke="rgb(29,14,14)" stroke-width="1" stroke-linecap="round"/>
<line x1="336" y1="0" x2="546" y2="210" stroke="rgb(29,14,14)" stroke-width="1" stroke-linecap="round"/>
<line x1="350" y1="0" x2="560" y2="210" stroke="rgb(29,14,14)" stroke-width="1" stroke-linecap="round"/>
<rect x="1" y="1" width="147" height="207" fill="none" stroke="rgb(138,26,26)" stroke-width="3"/>
<rect x="5" y="5" width="139" height="199" fill="none" stroke="rgb(58,15,15)" stroke-width="1"/>
<polygon points="2,-1 5,2 2,5 -1,2" fill="rgb(212,48,48)" stroke-linejoin="round"/>
<polygon points="147,-1 150,2 147,5 144,2" fill="rgb(212,48,48)" stroke-linejoin="round"/>
<polygon points="2,204 5,207 2,210 -1,207" fill="rgb(212,48,48)" stroke-linejoin="round"/>
<polygon points="147,204 150,207 147,210 144,207" fill="rgb(212,48,48)" stroke-linejoin="round"/>
<ellipse cx="75.00" cy="97.00" rx="20.00" ry="17.00" fill="rgb(168,215,225)"/>
<ellipse cx="75.00" cy="106.00" rx="17.00" ry="5.00" fill="rgb(198,77,98)"/>
<line x1="60" y1="89" x2="60" y2="105" stroke="rgb(255,255,255)" stroke-width="2" stroke-linecap="round"/>
<rect x="69" y="72" width="12" height="10" fill="rgb(168,215,225)"/>
<rect x="67" y="67" width="16" height="7" fill="rgb(155,95,45)"/>
<rect x="58" y="91" width="34" height="12" fill="rgb(58,15,15)"/>
<rect x="58" y="91" width="34" height="12" fill="none" stroke="rgb(138,26,26)" stroke-width="1"/>
<line x1="75" y1="92" x2="75" y2="102" stroke="rgb(255,195,195)" stroke-width="2" stroke-linecap="round"/>
<line x1="70" y1="97" x2="80" y2="97" stroke="rgb(255,195,195)" stroke-width="2" stroke-linecap="round"/>
<path transform="translate(9.00,27.42) scale(0.01074,-0.01074)" d="M954 805Q1105 766 1183.5 669.5Q1262 573 1262 424Q1262 202 1092.0 86.5Q922 -29 596 -29Q481 -29 365.5 -10.5Q250 8 137 45V342Q245 288 351.5 260.5Q458 233 561 233Q714 233 795.5 286.0Q877 339 877 438Q877 540 793.5 592.5Q710 645 547 645H393V893H555Q700 893 771.0 938.5Q842 984 842 1077Q842 1163 773.0 1210.0Q704 1257 578 1257Q485 1257 390.0 1236.0Q295 1215 201 1174V1456Q315 1488 427.0 1504.0Q539 1520 647 1520Q938 1520 1082.5 1424.5Q1227 1329 1227 1137Q1227 1006 1158.0 922.5Q1089 839 954 805Z" fill="rgb(255,195,195)"/>
<path transform="translate(10.00,44.92) scale(0.00732,-0.00732)" d="M552 1492Q755 1492 871 1257Q913 1164 915 1115H918Q953 1277 1045 1384Q1153 1492 1288 1492Q1497 1492 1623 1268Q1655 1185 1655 1112Q1655 862 1447 635L918 0H912L350 689Q182 894 182 1112Q182 1323 381 1447Q465 1492 552 1492Z" fill="rgb(212,48,48)"/>
<rect x="7" y="162" width="135" height="40" fill="rgb(58,15,15)"/>
<rect x="7" y="162" width="135" height="40" fill="none" stroke="rgb(138,26,26)" stroke-width="1"/>
<path transform="translate(37.00,180.35) scale(0.00439,-0.00439)" d="M188 1493H573V924H1141V1493H1526V0H1141V633H573V0H188Z" fill="rgb(255,195,195)"/>
<path transform="translate(44.53,180.35) scale(0.00439,-0.00439)" d="M188 1493H1227V1202H573V924H1188V633H573V291H1249V0H188Z" fill="rgb(255,195,195)"/>
<path transform="translate(50.68,180.35) scale(0.00439,-0.00439)" d="M1094 272H492L397 0H10L563 1493H1022L1575 0H1188ZM588 549H997L793 1143Z" fill="rgb(255,195,195)"/>
<path transform="translate(57.65,180.35) scale(0.00439,-0.00439)" d="M188 1493H573V291H1249V0H188Z" fill="rgb(255,195,195)"/>
<path transform="translate(63.38,180.35) scale(0.00439,-0.00439)" d="M188 1493H573V0H188Z" fill="rgb(255,195,195)"/>
<path transform="translate(66.73,180.35) scale(0.00439,-0.00439)" d="M188 1493H618L1161 469V1493H1526V0H1096L553 1024V0H188Z" fill="rgb(255,195,195)"/>
<path transform="translate(74.26,180.35) scale(0.00439,-0.00439)" d="M1530 111Q1386 41 1231.0 6.0Q1076 -29 911 -29Q538 -29 320.0 179.5Q102 388 102 745Q102 1106 324.0 1313.0Q546 1520 932 1520Q1081 1520 1217.5 1492.0Q1354 1464 1475 1409V1100Q1350 1171 1226.5 1206.0Q1103 1241 979 1241Q749 1241 624.5 1112.5Q500 984 500 745Q500 508 620.0 379.0Q740 250 961 250Q1021 250 1072.5 257.5Q1124 265 1165 281V571H930V829H1530Z" fill="rgb(255,195,195)"/>
<path transform="translate(84.78,180.35) scale(0.00439,-0.00439)" d="M188 1493H573V924H1141V1493H1526V0H1141V633H573V0H188Z" fill="rgb(255,195,195)"/>
<path transform="translate(92.31,180.35) scale(0.00439,-0.00439)" d="M188 1493H1227V1202H573V924H1188V633H573V291H1249V0H188Z" fill="rgb(255,195,195)"/>
<path transform="translate(98.46,180.35) scale(0.00439,-0.00439)" d="M735 831Q856 831 908.5 876.0Q961 921 961 1024Q961 1126 908.5 1170.0Q856 1214 735 1214H573V831ZM573 565V0H188V1493H776Q1071 1493 1208.5 1394.0Q1346 1295 1346 1081Q1346 933 1274.5 838.0Q1203 743 1059 698Q1138 680 1200.5 616.5Q1263 553 1327 424L1536 0H1126L944 371Q889 483 832.5 524.0Q776 565 682 565Z" fill="rgb(255,195,195)"/>
<path transform="translate(105.39,180.35) scale(0.00439,-0.00439)" d="M786 915Q877 915 924.0 955.0Q971 995 971 1073Q971 1150 924.0 1190.5Q877 1231 786 1231H573V915ZM799 262Q915 262 973.5 311.0Q1032 360 1032 459Q1032 556 974.0 604.5Q916 653 799 653H573V262ZM1157 799Q1281 763 1349.0 666.0Q1417 569 1417 428Q1417 212 1271.0 106.0Q1125 0 827 0H188V1493H766Q1077 1493 1216.5 1399.0Q1356 1305 1356 1098Q1356 989 1305.0 912.5Q1254 836 1157 799Z" fill="rgb(255,195,195)"/>
</svg>
