<svg xmlns="http://www.w3.org/2000/svg" width="150" height="210" viewBox="0 0 150 210">
<rect x="0" y="0" width="150" height="210" fill="rgb(8,8,22)"/>
<line x1="-210" y1="0" x2="0" y2="210" stroke="rgb(15,15,29)" stroke-width="1" stroke-linecap="round"/>
<line x1="-196" y1="0" x2="14" y2="210" stroke="rgb(15,15,29)" stroke-width="1" stroke-linecap="round"/>
<line x1="-182" y1="0" x2="28" y2="210" stroke="rgb(15,15,29)" stroke-width="1" stroke-linecap="round"/>
<line x1="-168" y1="0" x2="42" y2="210" stroke="rgb(15,15,29)" stroke-width="1" stroke-linecap="round"/>
<line x1="-154" y1="0" x2="56" y2="210" stroke="rgb(15,15,29)" stroke-width="1" stroke-linecap="round"/>
<line x1="-140" y1="0" x2="70" y2="210" stroke="rgb(15,15,29)" stroke-width="1" stroke-linecap="round"/>
<line x1="-126" y1="0" x2="84" y2="210" stroke="rgb(15,15,29)" stroke-width="1" stroke-linecap="round"/>
<line x1="-112" y1="0" x2="98" y2="210" stroke="rgb(15,15,29)" stroke-width="1" stroke-linecap="round"/>
<line x1="-98" y1="0" x2="112" y2="210" stroke="rgb(15,15,29)" stroke-width="1" stroke-linecap="round"/>
<line x1="-84" y1="0" x2="126" y2="210" stroke="rgb(15,15,29)" stroke-width="1" stroke-linecap="round"/>
<line x1="-70" y1="0" x2="140" y2="210" stroke="rgb(15,15,29)" stroke-width="1" stroke-linecap="round"/>
<line x1="-56" y1="0" x2="154" y2="210" stroke="rgb(15,15,29)" stroke-width="1" stroke-linecap="round"/>
<line x1="-42" y1="0" x2="168" y2="210" stroke="rgb(15,15,29)" stroke-width="1" stroke-linecap="round"/>
<line x1="-28" y1="0" x2="182" y2="210" stroke="rgb(15,15,29)" stroke-width="1" stroke-linecap="round"/>
<line x1="-14" y1="0" x2="196" y2="210" stroke="rgb(15,15,29)" stroke-width="1" stroke-linecap="round"/>
<line x1="0" y1="0" x2="210" y2="210" stroke="rgb(15,15,29)" stroke-width="1" stroke-linecap="round"/>
<line x1="14" y1="0" x2="224" y2="210" stroke="rgb(15,15,29)" stroke-width="1" stroke-linecap="round"/>
<line x1="28" y1="0" x2="238" y2="210" stroke="rgb(15,15,29)" stroke-width="1" stroke-linecap="round"/>
<line x1="42" y1="0" x2="252" y2="210" stroke="rgb(15,15,29)" stroke-width="1" stroke-linecap="round"/>
<line x1="56" y1="0" x2="266" y2="210" stroke="rgb(15,15,29)" stroke-width="1" stroke-linecap="round"/>
<line x1="70" y1="0" x2="280" y2="210" stroke="rgb(15,15,29)" stroke-width="1" stroke-linecap="round"/>
<line x1="84" y1="0" x2="294" y2="210" stroke="rgb(15,15,29)" stroke-width="1" stroke-linecap="round"/>
<line x1="98" y1="0" x2="308" y2="210" stroke="rgb(15,15,29)" stroke-width="1" stroke-linecap="round"/>
<line x1="112" y1="0" x2="322" y2="210" stroke="rgb(15,15,29)" stroke-width="1" stroke-linecap="round"/>
<line x1="126" y1="0" x2="336" y2="210" stroke="rgb(15,15,29)" stroke-width="1" stroke-linecap="round"/>
<line x1="140" y1="0" x2="350" y2="210" stroke="rgb(15,15,29)" stroke-width="1" stroke-linecap="round"/>
<line x1="154" y1="0" x2="364" y2="210" stroke="rgb(15,15,29)" stroke-width="1" stroke-linecap="round"/>
<line x1="168" y1="0" x2="378" y2="210" stroke="rgb(15,15,29)" stroke-width="1" stroke-linecap="round"/>
<line x1="182" y1="0" x2="392" y2="210" stroke="rgb(15,15,29)" stroke-width="1" stroke-linecap="round"/>
<line x1="196" y1="0" x2="406" y2="210" stroke="rgb(15,15,29)" stroke-width="1" stroke-linecap="round"/>
<line x1="210" y1="0" x2="420" y2="210" stroke="rgb(15,15,29)" stroke-width="1" stroke-linecap="round"/>
<line x1="224" y1="0" x2="434" y2="210" stroke="rgb(15,15,29)" stroke-width="1" stroke-linecap="round"/>
<line x1="238" y1="0" x2="448" y2="210" stroke="rgb(15,15,29)" stroke-width="1" stroke-linecap="round"/>
<line x1="252" y1="0" x2="462" y2="210" stroke="rgb(15,15,29)" stroke-width="1" stroke-linecap="round"/>
<line x1="266" y1="0" x2="476" y2="210" stroke="rgb(15,15,29)" stroke-width="1" stroke-linecap="round"/>
<line x1="280" y1="0" x2="490" y2="210" stroke="rgb(15,15,29)" stroke-width="1" stroke-linecap="round"/>
<line x1="294" y1="0" x2="504" y2="210" stroke="rgb(15,15,29)" stroke-width="1" stroke-linecap="round"/>
<line x1="308" y1="0" x2="518" y2="210" stroke="rgb(15,15,29)" stroke-width="1" stroke-linecap="round"/>
<line x1="322" y1="0" x2="532" y2="210" stroke="rgb(15,15,29)" stroke-width="1" stroke-linecap="round"/>
<line x1="336" y1="0" x2="546" y2="210" stroke="rgb(15,15,29)" stroke-width="1" stroke-linecap="round"/>
<line x1="350" y1="0" x2="560" y2="210" stroke="rgb(15,15,29)" stroke-width="1" stroke-linecap="round"/>
<rect x="1" y="1" width="147" height="207" fill="none" stroke="rgb(58,32,118)" stroke-width="3"/>
<rect x="5" y="5" width="139" height="199" fill="none" stroke="rgb(28,15,58)" stroke-width="1"/>
<polygon points="2,-1 5,2 2,5 -1,2" fill="rgb(115,65,205)" stroke-linejoin="round"/>
<polygon points="147,-1 150,2 147,5 144,2" fill="rgb(115,65,205)" stroke-linejoin="round"/>
<polygon points="2,204 5,207 2,210 -1,207" fill="rgb(115,65,205)" stroke-linejoin="round"/>
<polygon points="147,204 150,207 147,210 144,207" fill="rgb(115,65,205)" stroke-linejoin="round"/>
<ellipse cx="75.00" cy="72.50" rx="20.00" ry="14.50" fill="rgb(205,187,236)"/>
<rect x="60" y="87" width="30" height="9" fill="rgb(205,187,236)"/>
<ellipse cx="67.00" cy="75.00" rx="6.00" ry="7.00" fill="rgb(45,41,51)"/>
<ellipse cx="67.00" cy="75.00" rx="3.00" ry="4.00" fill="rgb(165,95,255)"/>
<ellipse cx="83.00" cy="75.00" rx="6.00" ry="7.00" fill="rgb(45,41,51)"/>
<ellipse cx="83.00" cy="75.00" rx="3.00" ry="4.00" fill="rgb(165,95,255)"/>
<polygon points="75,78 70,89 80,89" fill="rgb(45,41,51)" stroke-linejoin="round"/>
<rect x="64" y="89" width="2" height="3" fill="rgb(45,41,51)"/>
<rect x="69" y="89" width="2" height="3" fill="rgb(45,41,51)"/>
<rect x="74" y="89" width="2" height="3" fill="rgb(45,41,51)"/>
<rect x="79" y="89" width="2" height="3" fill="rgb(45,41,51)"/>
<rect x="84" y="89" width="2" height="3" fill="rgb(45,41,51)"/>
<line x1="75" y1="101" x2="75" y2="135" stroke="rgb(115,65,205)" stroke-width="3" stroke-linecap="round"/>
<line x1="75" y1="102" x2="49" y2="93" stroke="rgb(115,65,205)" stroke-width="2" stroke-linecap="round"/>
<line x1="75" y1="102" x2="101" y2="93" stroke="rgb(115,65,205)" stroke-width="2" stroke-linecap="round"/>
<line x1="75" y1="111" x2="49" y2="102" stroke="rgb(115,65,205)" stroke-width="2" stroke-linecap="round"/>
<line x1="75" y1="111" x2="101" y2="102" stroke="rgb(115,65,205)" stroke-width="2" stroke-linecap="round"/>
<line x1="75" y1="120" x2="49" y2="111" stroke="rgb(115,65,205)" stroke-width="2" stroke-linecap="round"/>
<line x1="75" y1="120" x2="101" y2="111" stroke="rgb(115,65,205)" stroke-width="2" stroke-linecap="round"/>
<line x1="75" y1="129" x2="49" y2="120" stroke="rgb(115,65,205)" stroke-width="2" stroke-linecap="round"/>
<line x1="75" y1="129" x2="101" y2="120" stroke="rgb(115,65,205)" stroke-width="2" stroke-linecap="round"/>
<text x="9" y="7" font-family="'DejaVu Sans Bold',sans-serif" font-weight="bold" font-size="22" fill="rgb(215,185,255)" dominant-baseline="hanging">3</text>
<text x="10" y="31" font-family="'DejaVu Sans Bold',sans-serif" font-weight="bold" font-size="15" fill="rgb(115,65,205)" dominant-baseline="hanging">♠</text>
<rect x="7" y="162" width="135" height="40" fill="rgb(28,15,58)"/>
<rect x="7" y="162" width="135" height="40" fill="none" stroke="rgb(58,32,118)" stroke-width="1"/>
<text x="52.0" y="172" font-family="'DejaVu Sans Bold',sans-serif" font-weight="bold" font-size="9" fill="rgb(215,185,255)" dominant-baseline="hanging">SKELETON</text>
</svg>
