<svg xmlns="http://www.w3.org/2000/svg" width="150" height="210" viewBox="0 0 150 210">
<rect x="0" y="0" width="150" height="210" fill="rgb(22,7,7)"/>
<line x1="-210" y1="0" x2="0" y2="210" stroke="rgb(29,14,14)" stroke-width="1" stroke-linecap="round"/>
<line x1="-196" y1="0" x2="14" y2="210" stroke="rgb(29,14,14)" stroke-width="1" stroke-linecap="round"/>
<line x1="-182" y1="0" x2="28" y2="210" stroke="rgb(29,14,14)" stroke-width="1" stroke-linecap="round"/>
<line x1="-168" y1="0" x2="42" y2="210" stroke="rgb(29,14,14)" stroke-width="1" stroke-linecap="round"/>
<line x1="-154" y1="0" x2="56" y2="210" stroke="rgb(29,14,14)" stroke-width="1" stroke-linecap="round"/>
<line x1="-140" y1="0" x2="70" y2="210" stroke="rgb(29,14,14)" stroke-width="1" stroke-linecap="round"/>
<line x1="-126" y1="0" x2="84" y2="210" stroke="rgb(29,14,14)" stroke-width="1" stroke-linecap="round"/>
<line x1="-112" y1="0" x2="98" y2="210" stroke="rgb(29,14,14)" stroke-width="1" stroke-linecap="round"/>
<line x1="-98" y1="0" x2="112" y2="210" stroke="rgb(29,14,14)" stroke-width="1" stroke-linecap="round"/>
<line x1="-84" y1="0" x2="126" y2="210" stroke="rgb(29,14,14)" stroke-width="1" stroke-linecap="round"/>
<line x1="-70" y1="0" x2="140" y2="210" stroke="rgb(29,14,14)" stroke-width="1" stroke-linecap="round"/>
<line x1="-56" y1="0" x2="154" y2="210" stroke="rgb(29,14,14)" stroke-width="1" stroke-linecap="round"/>
<line x1="-42" y1="0" x2="168" y2="210" stroke="rgb(29,14,14)" stroke-width="1" stroke-linecap="round"/>
<line x1="-28" y1="0" x2="182" y2="210" stroke="rgb(29,14,14)" stroke-width="1" stroke-linecap="round"/>
<line x1="-14" y1="0" x2="196" y2="210" stroke="rgb(29,14,14)" stroke-width="1" stroke-linecap="round"/>
<line x1="0" y1="0" x2="210" y2="210" stroke="rgb(29,14,14)" stroke-width="1" stroke-linecap="round"/>
<line x1="14" y1="0" x2="224" y2="210" stroke="rgb(29,14,14)" stroke-width="1" stroke-linecap="round"/>
<line x1="28" y1="0" x2="238" y2="210" stroke="rgb(29,14,14)" stroke-width="1" stroke-linecap="round"/>
<line x1="42" y1="0" x2="252" y2="210" stroke="rgb(29,14,14)" stroke-width="1" stroke-linecap="round"/>
<line x1="56" y1="0" x2="266" y2="210" stroke="rgb(29,14,14)" stroke-width="1" stroke-linecap="round"/>
<line x1="70" y1="0" x2="280" y2="210" stroke="rgb(29,14,14)" stroke-width="1" stroke-linecap="round"/>
<line x1="84" y1="0" x2="294" y2="210" stroke="rgb(29,14,14)" stroke-width="1" stroke-linecap="round"/>
<line x1="98" y1="0" x2="308" y2="210" stroke="rgb(29,14,14)" stroke-width="1" stroke-linecap="round"/>
<line x1="112" y1="0" x2="322" y2="210" stroke="rgb(29,14,14)" stroke-width="1" stroke-linecap="round"/>
<line x1="126" y1="0" x2="336" y2="210" stroke="rgb(29,14,14)" stroke-width="1" stroke-linecap="round"/>
<line x1="140" y1="0" x2="350" y2="210" stroke="rgb(29,14,14)" stroke-width="1" stroke-linecap="round"/>
<line x1="154" y1="0" x2="364" y2="210" stroke="rgb(29,14,14)" stroke-width="1" stroke-linecap="round"/>
<line x1="168" y1="0" x2="378" y2="210" stroke="rgb(29,14,14)" stroke-width="1" stroke-linecap="round"/>
<line x1="182" y1="0" x2="392" y2="210" stroke="rgb(29,14,14)" stroke-width="1" stroke-linecap="round"/>
<line x1="196" y1="0" x2="406" y2="210" stroke="rgb(29,14,14)" stroke-width="1" stroke-linecap="round"/>
<line x1="210" y1="0" x2="420" y2="210" stroke="rgb(29,14,14)" stroke-width="1" stroke-linecap="round"/>
<line x1="224" y1="0" x2="434" y2="210" stroke="rgb(29,14,14)" stroke-width="1" stroke-linecap="round"/>
<line x1="238" y1="0" x2="448" y2="210" stroke="rgb(29,14,14)" stroke-width="1" stroke-linecap="round"/>
<line x1="252" y1="0" x2="462" y2="210" stroke="rgb(29,14,14)" stroke-width="1" stroke-linecap="round"/>
<line x1="266" y1="0" x2="476" y2="210" stroke="rgb(29,14,14)" stroke-width="1" stroke-linecap="round"/>
<line x1="280" y1="0" x2="490" y2="210" stroke="rgb(29,14,14)" stroke-width="1" stroke-linecap="round"/>
<line x1="294" y1="0" x2="504" y2="210" stroke="rgb(29,14,14)" stroke-width="1" stroke-linecap="round"/>
<line x1="308" y1="0" x2="518" y2="210" stroke="rgb(29,14,14)" stroke-width="1" stroke-linecap="round"/>
<line x1="322" y1="0" x2="532" y2="210" stroke="rgb(29,14,14)" stroke-width="1" stroke-linecap="round"/>
<line x1="336" y1="0" x2="546" y2="210" stroke="rgb(29,14,14)" stroke-width="1" stroke-linecap="round"/>
<line x1="350" y1="0" x2="560" y2="210" stroke="rgb(29,14,14)" stroke-width="1" stroke-linecap="round"/>
<rect x="1" y="1" width="147" height="207" fill="none" stroke="rgb(138,26,26)" stroke-width="3"/>
<rect x="5" y="5" width="139" height="199" fill="none" stroke="rgb(58,15,15)" stroke-width="1"/>
<polygon points="2,-1 5,2 2,5 -1,2" fill="rgb(212,48,48)" stroke-linejoin="round"/>
<polygon points="147,-1 150,2 147,5 144,2" fill="rgb(212,48,48)" stroke-linejoin="round"/>
<polygon points="2,204 5,207 2,210 -1,207" fill="rgb(212,48,48)" stroke-linejoin="round"/>
<polygon points="147,204 150,207 147,210 144,207" fill="rgb(212,48,48)" stroke-linejoin="round"/>
<ellipse cx="75.00" cy="97.00" rx="23.00" ry="18.00" fill="rgb(168,215,225)"/>
<ellipse cx="75.00" cy="105.50" rx="20.00" ry="6.50" fill="rgb(206,70,92)"/>
<line x1="57" y1="88" x2="57" y2="106" stroke="rgb(255,255,255)" stroke-width="2" stroke-linecap="round"/>
<rect x="68" y="70" width="14" height="11" fill="rgb(168,215,225)"/>
<rect x="66" y="65" width="18" height="7" fill="rgb(155,95,45)"/>
<rect x="55" y="91" width="40" height="12" fill="rgb(58,15,15)"/>
<rect x="55" y="91" width="40" height="12" fill="none" stroke="rgb(138,26,26)" stroke-width="1"/>
<line x1="75" y1="92" x2="75" y2="102" stroke="rgb(255,195,195)" stroke-width="2" stroke-linecap="round"/>
<line x1="70" y1="97" x2="80" y2="97" stroke="rgb(255,195,195)" stroke-width="2" stroke-linecap="round"/>
<path transform="translate(9.00,27.42) scale(0.01074,-0.01074)" d="M754 1176 332 551H754ZM690 1493H1118V551H1331V272H1118V0H754V272H92V602Z" fill="rgb(255,195,195)"/>
<path transform="translate(10.00,44.92) scale(0.00732,-0.00732)" d="M552 1492Q755 1492 871 1257Q913 1164 915 1115H918Q953 1277 1045 1384Q1153 1492 1288 1492Q1497 1492 1623 1268Q1655 1185 1655 1112Q1655 862 1447 635L918 0H912L350 689Q182 894 182 1112Q182 1323 381 1447Q465 1492 552 1492Z" fill="rgb(212,48,48)"/>
<rect x="7" y="162" width="135" height="40" fill="rgb(58,15,15)"/>
<rect x="7" y="162" width="135" height="40" fill="none" stroke="rgb(138,26,26)" stroke-width="1"/>
<path transform="translate(33.00,180.35) scale(0.00439,-0.00439)" d="M188 1493H678L1018 694L1360 1493H1849V0H1485V1092L1141 287H897L553 1092V0H188Z" fill="rgb(255,195,195)"/>
<path transform="translate(41.96,180.35) scale(0.00439,-0.00439)" d="M188 1493H1227V1202H573V924H1188V633H573V291H1249V0H188Z" fill="rgb(255,195,195)"/>
<path transform="translate(48.10,180.35) scale(0.00439,-0.00439)" d="M188 1493H618L1161 469V1493H1526V0H1096L553 1024V0H188Z" fill="rgb(255,195,195)"/>
<path transform="translate(55.64,180.35) scale(0.00439,-0.00439)" d="M573 1202V291H711Q947 291 1071.5 408.0Q1196 525 1196 748Q1196 970 1072.0 1086.0Q948 1202 711 1202ZM188 1493H594Q934 1493 1100.5 1444.5Q1267 1396 1386 1280Q1491 1179 1542.0 1047.0Q1593 915 1593 748Q1593 579 1542.0 446.5Q1491 314 1386 213Q1266 97 1098.0 48.5Q930 0 594 0H188Z" fill="rgb(255,195,195)"/>
<path transform="translate(63.11,180.35) scale(0.00439,-0.00439)" d="M188 1493H573V0H188Z" fill="rgb(255,195,195)"/>
<path transform="translate(66.46,180.35) scale(0.00439,-0.00439)" d="M188 1493H618L1161 469V1493H1526V0H1096L553 1024V0H188Z" fill="rgb(255,195,195)"/>
<path transform="translate(73.99,180.35) scale(0.00439,-0.00439)" d="M1530 111Q1386 41 1231.0 6.0Q1076 -29 911 -29Q538 -29 320.0 179.5Q102 388 102 745Q102 1106 324.0 1313.0Q546 1520 932 1520Q1081 1520 1217.5 1492.0Q1354 1464 1475 1409V1100Q1350 1171 1226.5 1206.0Q1103 1241 979 1241Q749 1241 624.5 1112.5Q500 984 500 745Q500 508 620.0 379.0Q740 250 961 250Q1021 250 1072.5 257.5Q1124 265 1165 281V571H930V829H1530Z" fill="rgb(255,195,195)"/>
<path transform="translate(84.51,180.35) scale(0.00439,-0.00439)" d="M10 1493H1386V1202H891V0H506V1202H10Z" fill="rgb(255,195,195)"/>
<path transform="translate(90.65,180.35) scale(0.00439,-0.00439)" d="M870 1241Q694 1241 597.0 1111.0Q500 981 500 745Q500 510 597.0 380.0Q694 250 870 250Q1047 250 1144.0 380.0Q1241 510 1241 745Q1241 981 1144.0 1111.0Q1047 1241 870 1241ZM870 1520Q1230 1520 1434.0 1314.0Q1638 1108 1638 745Q1638 383 1434.0 177.0Q1230 -29 870 -29Q511 -29 306.5 177.0Q102 383 102 745Q102 1108 306.5 1314.0Q511 1520 870 1520Z" fill="rgb(255,195,195)"/>
<path transform="translate(98.30,180.35) scale(0.00439,-0.00439)" d="M188 1493H618L1161 469V1493H1526V0H1096L553 1024V0H188Z" fill="rgb(255,195,195)"/>
<path transform="translate(105.83,180.35) scale(0.00439,-0.00439)" d="M188 1493H573V0H188Z" fill="rgb(255,195,195)"/>
<path transform="translate(109.18,180.35) scale(0.00439,-0.00439)" d="M1372 82Q1266 27 1151.0 -1.0Q1036 -29 911 -29Q538 -29 320.0 179.5Q102 388 102 745Q102 1103 320.0 1311.5Q538 1520 911 1520Q1036 1520 1151.0 1492.0Q1266 1464 1372 1409V1100Q1265 1173 1161.0 1207.0Q1057 1241 942 1241Q736 1241 618.0 1109.0Q500 977 500 745Q500 514 618.0 382.0Q736 250 942 250Q1057 250 1161.0 284.0Q1265 318 1372 391Z" fill="rgb(255,195,195)"/>
</svg>
