<svg xmlns="http://www.w3.org/2000/svg" width="150" height="210" viewBox="0 0 150 210">
<rect x="0" y="0" width="150" height="210" fill="rgb(22,7,7)"/>
<line x1="-210" y1="0" x2="0" y2="210" stroke="rgb(29,14,14)" stroke-width="1" stroke-linecap="round"/>
<line x1="-196" y1="0" x2="14" y2="210" stroke="rgb(29,14,14)" stroke-width="1" stroke-linecap="round"/>
<line x1="-182" y1="0" x2="28" y2="210" stroke="rgb(29,14,14)" stroke-width="1" stroke-linecap="round"/>
<line x1="-168" y1="0" x2="42" y2="210" stroke="rgb(29,14,14)" stroke-width="1" stroke-linecap="round"/>
<line x1="-154" y1="0" x2="56" y2="210" stroke="rgb(29,14,14)" stroke-width="1" stroke-linecap="round"/>
<line x1="-140" y1="0" x2="70" y2="210" stroke="rgb(29,14,14)" stroke-width="1" stroke-linecap="round"/>
<line x1="-126" y1="0" x2="84" y2="210" stroke="rgb(29,14,14)" stroke-width="1" stroke-linecap="round"/>
<line x1="-112" y1="0" x2="98" y2="210" stroke="rgb(29,14,14)" stroke-width="1" stroke-linecap="round"/>
<line x1="-98" y1="0" x2="112" y2="210" stroke="rgb(29,14,14)" stroke-width="1" stroke-linecap="round"/>
<line x1="-84" y1="0" x2="126" y2="210" stroke="rgb(29,14,14)" stroke-width="1" stroke-linecap="round"/>
<line x1="-70" y1="0" x2="140" y2="210" stroke="rgb(29,14,14)" stroke-width="1" stroke-linecap="round"/>
<line x1="-56" y1="0" x2="154" y2="210" stroke="rgb(29,14,14)" stroke-width="1" stroke-linecap="round"/>
<line x1="-42" y1="0" x2="168" y2="210" stroke="rgb(29,14,14)" stroke-width="1" stroke-linecap="round"/>
<line x1="-28" y1="0" x2="182" y2="210" stroke="rgb(29,14,14)" stroke-width="1" stroke-linecap="round"/>
<line x1="-14" y1="0" x2="196" y2="210" stroke="rgb(29,14,14)" stroke-width="1" stroke-linecap="round"/>
<line x1="0" y1="0" x2="210" y2="210" stroke="rgb(29,14,14)" stroke-width="1" stroke-linecap="round"/>
<line x1="14" y1="0" x2="224" y2="210" stroke="rgb(29,14,14)" stroke-width="1" stroke-linecap="round"/>
<line x1="28" y1="0" x2="238" y2="210" stroke="rgb(29,14,14)" stroke-width="1" stroke-linecap="round"/>
<line x1="42" y1="0" x2="252" y2="210" stroke="rgb(29,14,14)" stroke-width="1" stroke-linecap="round"/>
<line x1="56" y1="0" x2="266" y2="210" stroke="rgb(29,14,14)" stroke-width="1" stroke-linecap="round"/>
<line x1="70" y1="0" x2="280" y2="210" stroke="rgb(29,14,14)" stroke-width="1" stroke-linecap="round"/>
<line x1="84" y1="0" x2="294" y2="210" stroke="rgb(29,14,14)" stroke-width="1" stroke-linecap="round"/>
<line x1="98" y1="0" x2="308" y2="210" stroke="rgb(29,14,14)" stroke-width="1" stroke-linecap="round"/>
<line x1="112" y1="0" x2="322" y2="210" stroke="rgb(29,14,14)" stroke-width="1" stroke-linecap="round"/>
<line x1="126" y1="0" x2="336" y2="210" stroke="rgb(29,14,14)" stroke-width="1" stroke-linecap="round"/>
<line x1="140" y1="0" x2="350" y2="210" stroke="rgb(29,14,14)" stroke-width="1" stroke-linecap="round"/>
<line x1="154" y1="0" x2="364" y2="210" stroke="rgb(29,14,14)" stroke-width="1" stroke-linecap="round"/>
<line x1="168" y1="0" x2="378" y2="210" stroke="rgb(29,14,14)" stroke-width="1" stroke-linecap="round"/>
<line x1="182" y1="0" x2="392" y2="210" stroke="rgb(29,14,14)" stroke-width="1" stroke-linecap="round"/>
<line x1="196" y1="0" x2="406" y2="210" stroke="rgb(29,14,14)" stroke-width="1" stroke-linecap="round"/>
<line x1="210" y1="0" x2="420" y2="210" stroke="rgb(29,14,14)" stroke-width="1" stroke-linecap="round"/>
<line x1="224" y1="0" x2="434" y2="210" stroke="rgb(29,14,14)" stroke-width="1" stroke-linecap="round"/>
<line x1="238" y1="0" x2="448" y2="210" stroke="rgb(29,14,14)" stroke-width="1" stroke-linecap="round"/>
<line x1="252" y1="0" x2="462" y2="210" stroke="rgb(29,14,14)" stroke-width="1" stroke-linecap="round"/>
<line x1="266" y1="0" x2="476" y2="210" stroke="rgb(29,14,14)" stroke-width="1" stroke-linecap="round"/>
<line x1="280" y1="0" x2="490" y2="210" stroke="rgb(29,14,14)" stroke-width="1" stroke-linecap="round"/>
<line x1="294" y1="0" x2="504" y2="210" stroke="rgb(29,14,14)" stroke-width="1" stroke-linecap="round"/>
<line x1="308" y1="0" x2="518" y2="210" stroke="rgb(29,14,14)" stroke-width="1" stroke-linecap="round"/>
<line x1="322" y1="0" x2="532" y2="210" stroke="rgb(29,14,14)" stroke-width="1" stroke-linecap="round"/>
<line x1="336" y1="0" x2="546" y2="210" stroke="rgb(29,14,14)" stroke-width="1" stroke-linecap="round"/>
<line x1="350" y1="0" x2="560" y2="210" stroke="rgb(29,14,14)" stroke-width="1" stroke-linecap="round"/>
<rect x="1" y="1" width="147" height="207" fill="none" stroke="rgb(138,26,26)" stroke-width="3"/>
<rect x="5" y="5" width="139" height="199" fill="none" stroke="rgb(58,15,15)" stroke-width="1"/>
<polygon points="2,-1 5,2 2,5 -1,2" fill="rgb(212,48,48)" stroke-linejoin="round"/>
<polygon points="147,-1 150,2 147,5 144,2" fill="rgb(212,48,48)" stroke-linejoin="round"/>
<polygon points="2,204 5,207 2,210 -1,207" fill="rgb(212,48,48)" stroke-linejoin="round"/>
<polygon points="147,204 150,207 147,210 144,207" fill="rgb(212,48,48)" stroke-linejoin="round"/>
<ellipse cx="75.00" cy="97.00" rx="25.00" ry="20.00" fill="rgb(168,215,225)"/>
<ellipse cx="75.00" cy="104.50" rx="22.00" ry="9.50" fill="rgb(214,63,86)"/>
<line x1="55" y1="87" x2="55" y2="107" stroke="rgb(255,255,255)" stroke-width="2" stroke-linecap="round"/>
<rect x="67" y="67" width="16" height="12" fill="rgb(168,215,225)"/>
<rect x="65" y="62" width="20" height="7" fill="rgb(155,95,45)"/>
<rect x="53" y="91" width="44" height="12" fill="rgb(58,15,15)"/>
<rect x="53" y="91" width="44" height="12" fill="none" stroke="rgb(138,26,26)" stroke-width="1"/>
<line x1="75" y1="92" x2="75" y2="102" stroke="rgb(255,195,195)" stroke-width="2" stroke-linecap="round"/>
<line x1="70" y1="97" x2="80" y2="97" stroke="rgb(255,195,195)" stroke-width="2" stroke-linecap="round"/>
<path transform="translate(9.00,27.42) scale(0.01074,-0.01074)" d="M217 1493H1174V1210H524V979Q568 991 612.5 997.5Q657 1004 705 1004Q978 1004 1130.0 867.5Q1282 731 1282 487Q1282 245 1116.5 108.0Q951 -29 657 -29Q530 -29 405.5 -4.5Q281 20 158 70V373Q280 303 389.5 268.0Q499 233 596 233Q736 233 816.5 301.5Q897 370 897 487Q897 605 816.5 673.0Q736 741 596 741Q513 741 419.0 719.5Q325 698 217 653Z" fill="rgb(255,195,195)"/>
<path transform="translate(10.00,44.92) scale(0.00732,-0.00732)" d="M552 1492Q755 1492 871 1257Q913 1164 915 1115H918Q953 1277 1045 1384Q1153 1492 1288 1492Q1497 1492 1623 1268Q1655 1185 1655 1112Q1655 862 1447 635L918 0H912L350 689Q182 894 182 1112Q182 1323 381 1447Q465 1492 552 1492Z" fill="rgb(212,48,48)"/>
<rect x="7" y="162" width="135" height="40" fill="rgb(58,15,15)"/>
<rect x="7" y="162" width="135" height="40" fill="none" stroke="rgb(138,26,26)" stroke-width="1"/>
<path transform="translate(46.00,180.35) scale(0.00439,-0.00439)" d="M188 1493H573V291H1249V0H188Z" fill="rgb(255,195,195)"/>
<path transform="translate(51.73,180.35) scale(0.00439,-0.00439)" d="M188 1493H573V0H188Z" fill="rgb(255,195,195)"/>
<path transform="translate(55.08,180.35) scale(0.00439,-0.00439)" d="M188 1493H1227V1202H573V924H1188V633H573V0H188Z" fill="rgb(255,195,195)"/>
<path transform="translate(61.23,180.35) scale(0.00439,-0.00439)" d="M188 1493H1227V1202H573V924H1188V633H573V291H1249V0H188Z" fill="rgb(255,195,195)"/>
<path transform="translate(70.51,180.35) scale(0.00439,-0.00439)" d="M188 1493H1227V1202H573V924H1188V633H573V291H1249V0H188Z" fill="rgb(255,195,195)"/>
<path transform="translate(76.66,180.35) scale(0.00439,-0.00439)" d="M188 1493H573V291H1249V0H188Z" fill="rgb(255,195,195)"/>
<path transform="translate(82.40,180.35) scale(0.00439,-0.00439)" d="M188 1493H573V0H188Z" fill="rgb(255,195,195)"/>
<path transform="translate(85.74,180.35) scale(0.00439,-0.00439)" d="M1020 762 1538 0H1137L788 510L442 0H39L557 762L59 1493H461L788 1012L1114 1493H1518Z" fill="rgb(255,195,195)"/>
<path transform="translate(92.68,180.35) scale(0.00439,-0.00439)" d="M188 1493H573V0H188Z" fill="rgb(255,195,195)"/>
<path transform="translate(96.03,180.35) scale(0.00439,-0.00439)" d="M735 831Q856 831 908.5 876.0Q961 921 961 1024Q961 1126 908.5 1170.0Q856 1214 735 1214H573V831ZM573 565V0H188V1493H776Q1071 1493 1208.5 1394.0Q1346 1295 1346 1081Q1346 933 1274.5 838.0Q1203 743 1059 698Q1138 680 1200.5 616.5Q1263 553 1327 424L1536 0H1126L944 371Q889 483 832.5 524.0Q776 565 682 565Z" fill="rgb(255,195,195)"/>
</svg>
