<svg xmlns="http://www.w3.org/2000/svg" width="150" height="210" viewBox="0 0 150 210">
<rect x="0" y="0" width="150" height="210" fill="rgb(8,8,22)"/>
<line x1="-210" y1="0" x2="0" y2="210" stroke="rgb(15,15,29)" stroke-width="1" stroke-linecap="round"/>
<line x1="-196" y1="0" x2="14" y2="210" stroke="rgb(15,15,29)" stroke-width="1" stroke-linecap="round"/>
<line x1="-182" y1="0" x2="28" y2="210" stroke="rgb(15,15,29)" stroke-width="1" stroke-linecap="round"/>
<line x1="-168" y1="0" x2="42" y2="210" stroke="rgb(15,15,29)" stroke-width="1" stroke-linecap="round"/>
<line x1="-154" y1="0" x2="56" y2="210" stroke="rgb(15,15,29)" stroke-width="1" stroke-linecap="round"/>
<line x1="-140" y1="0" x2="70" y2="210" stroke="rgb(15,15,29)" stroke-width="1" stroke-linecap="round"/>
<line x1="-126" y1="0" x2="84" y2="210" stroke="rgb(15,15,29)" stroke-width="1" stroke-linecap="round"/>
<line x1="-112" y1="0" x2="98" y2="210" stroke="rgb(15,15,29)" stroke-width="1" stroke-linecap="round"/>
<line x1="-98" y1="0" x2="112" y2="210" stroke="rgb(15,15,29)" stroke-width="1" stroke-linecap="round"/>
<line x1="-84" y1="0" x2="126" y2="210" stroke="rgb(15,15,29)" stroke-width="1" stroke-linecap="round"/>
<line x1="-70" y1="0" x2="140" y2="210" stroke="rgb(15,15,29)" stroke-width="1" stroke-linecap="round"/>
<line x1="-56" y1="0" x2="154" y2="210" stroke="rgb(15,15,29)" stroke-width="1" stroke-linecap="round"/>
<line x1="-42" y1="0" x2="168" y2="210" stroke="rgb(15,15,29)" stroke-width="1" stroke-linecap="round"/>
<line x1="-28" y1="0" x2="182" y2="210" stroke="rgb(15,15,29)" stroke-width="1" stroke-linecap="round"/>
<line x1="-14" y1="0" x2="196" y2="210" stroke="rgb(15,15,29)" stroke-width="1" stroke-linecap="round"/>
<line x1="0" y1="0" x2="210" y2="210" stroke="rgb(15,15,29)" stroke-width="1" stroke-linecap="round"/>
<line x1="14" y1="0" x2="224" y2="210" stroke="rgb(15,15,29)" stroke-width="1" stroke-linecap="round"/>
<line x1="28" y1="0" x2="238" y2="210" stroke="rgb(15,15,29)" stroke-width="1" stroke-linecap="round"/>
<line x1="42" y1="0" x2="252" y2="210" stroke="rgb(15,15,29)" stroke-width="1" stroke-linecap="round"/>
<line x1="56" y1="0" x2="266" y2="210" stroke="rgb(15,15,29)" stroke-width="1" stroke-linecap="round"/>
<line x1="70" y1="0" x2="280" y2="210" stroke="rgb(15,15,29)" stroke-width="1" stroke-linecap="round"/>
<line x1="84" y1="0" x2="294" y2="210" stroke="rgb(15,15,29)" stroke-width="1" stroke-linecap="round"/>
<line x1="98" y1="0" x2="308" y2="210" stroke="rgb(15,15,29)" stroke-width="1" stroke-linecap="round"/>
<line x1="112" y1="0" x2="322" y2="210" stroke="rgb(15,15,29)" stroke-width="1" stroke-linecap="round"/>
<line x1="126" y1="0" x2="336" y2="210" stroke="rgb(15,15,29)" stroke-width="1" stroke-linecap="round"/>
<line x1="140" y1="0" x2="350" y2="210" stroke="rgb(15,15,29)" stroke-width="1" stroke-linecap="round"/>
<line x1="154" y1="0" x2="364" y2="210" stroke="rgb(15,15,29)" stroke-width="1" stroke-linecap="round"/>
<line x1="168" y1="0" x2="378" y2="210" stroke="rgb(15,15,29)" stroke-width="1" stroke-linecap="round"/>
<line x1="182" y1="0" x2="392" y2="210" stroke="rgb(15,15,29)" stroke-width="1" stroke-linecap="round"/>
<line x1="196" y1="0" x2="406" y2="210" stroke="rgb(15,15,29)" stroke-width="1" stroke-linecap="round"/>
<line x1="210" y1="0" x2="420" y2="210" stroke="rgb(15,15,29)" stroke-width="1" stroke-linecap="round"/>
<line x1="224" y1="0" x2="434" y2="210" stroke="rgb(15,15,29)" stroke-width="1" stroke-linecap="round"/>
<line x1="238" y1="0" x2="448" y2="210" stroke="rgb(15,15,29)" stroke-width="1" stroke-linecap="round"/>
<line x1="252" y1="0" x2="462" y2="210" stroke="rgb(15,15,29)" stroke-width="1" stroke-linecap="round"/>
<line x1="266" y1="0" x2="476" y2="210" stroke="rgb(15,15,29)" stroke-width="1" stroke-linecap="round"/>
<line x1="280" y1="0" x2="490" y2="210" stroke="rgb(15,15,29)" stroke-width="1" stroke-linecap="round"/>
<line x1="294" y1="0" x2="504" y2="210" stroke="rgb(15,15,29)" stroke-width="1" stroke-linecap="round"/>
<line x1="308" y1="0" x2="518" y2="210" stroke="rgb(15,15,29)" stroke-width="1" stroke-linecap="round"/>
<line x1="322" y1="0" x2="532" y2="210" stroke="rgb(15,15,29)" stroke-width="1" stroke-linecap="round"/>
<line x1="336" y1="0" x2="546" y2="210" stroke="rgb(15,15,29)" stroke-width="1" stroke-linecap="round"/>
<line x1="350" y1="0" x2="560" y2="210" stroke="rgb(15,15,29)" stroke-width="1" stroke-linecap="round"/>
<rect x="1" y="1" width="147" height="207" fill="none" stroke="rgb(58,32,118)" stroke-width="3"/>
<rect x="5" y="5" width="139" height="199" fill="none" stroke="rgb(28,15,58)" stroke-width="1"/>
<polygon points="2,-1 5,2 2,5 -1,2" fill="rgb(115,65,205)" stroke-linejoin="round"/>
<polygon points="147,-1 150,2 147,5 144,2" fill="rgb(115,65,205)" stroke-linejoin="round"/>
<polygon points="2,204 5,207 2,210 -1,207" fill="rgb(115,65,205)" stroke-linejoin="round"/>
<polygon points="147,204 150,207 147,210 144,207" fill="rgb(115,65,205)" stroke-linejoin="round"/>
<ellipse cx="75.00" cy="73.50" rx="23.00" ry="16.50" fill="rgb(205,187,236)"/>
<rect x="57" y="90" width="36" height="10" fill="rgb(205,187,236)"/>
<ellipse cx="66.00" cy="77.00" rx="7.00" ry="8.00" fill="rgb(45,41,51)"/>
<ellipse cx="66.00" cy="77.00" rx="4.00" ry="5.00" fill="rgb(165,95,255)"/>
<ellipse cx="84.00" cy="77.00" rx="7.00" ry="8.00" fill="rgb(45,41,51)"/>
<ellipse cx="84.00" cy="77.00" rx="4.00" ry="5.00" fill="rgb(165,95,255)"/>
<polygon points="75,81 70,92 80,92" fill="rgb(45,41,51)" stroke-linejoin="round"/>
<rect x="61" y="92" width="3" height="4" fill="rgb(45,41,51)"/>
<rect x="67" y="92" width="3" height="4" fill="rgb(45,41,51)"/>
<rect x="73" y="92" width="3" height="4" fill="rgb(45,41,51)"/>
<rect x="79" y="92" width="3" height="4" fill="rgb(45,41,51)"/>
<rect x="85" y="92" width="3" height="4" fill="rgb(45,41,51)"/>
<line x1="69" y1="59" x2="79" y2="83" stroke="rgb(45,41,51)" stroke-width="2" stroke-linecap="round"/>
<line x1="40" y1="105" x2="40" y2="85" stroke="rgb(115,65,205)" stroke-width="2" stroke-linecap="round"/>
<line x1="40" y1="105" x2="34" y2="85" stroke="rgb(115,65,205)" stroke-width="2" stroke-linecap="round"/>
<line x1="40" y1="105" x2="28" y2="85" stroke="rgb(115,65,205)" stroke-width="2" stroke-linecap="round"/>
<line x1="110" y1="105" x2="110" y2="85" stroke="rgb(115,65,205)" stroke-width="2" stroke-linecap="round"/>
<line x1="110" y1="105" x2="116" y2="85" stroke="rgb(115,65,205)" stroke-width="2" stroke-linecap="round"/>
<line x1="110" y1="105" x2="122" y2="85" stroke="rgb(115,65,205)" stroke-width="2" stroke-linecap="round"/>
<path transform="translate(9.00,27.42) scale(0.01074,-0.01074)" d="M217 1493H1174V1210H524V979Q568 991 612.5 997.5Q657 1004 705 1004Q978 1004 1130.0 867.5Q1282 731 1282 487Q1282 245 1116.5 108.0Q951 -29 657 -29Q530 -29 405.5 -4.5Q281 20 158 70V373Q280 303 389.5 268.0Q499 233 596 233Q736 233 816.5 301.5Q897 370 897 487Q897 605 816.5 673.0Q736 741 596 741Q513 741 419.0 719.5Q325 698 217 653Z" fill="rgb(215,185,255)"/>
<path transform="translate(10.00,44.92) scale(0.00732,-0.00732)" d="M920 1492Q1014 1325 1230 1049Q1467 771 1473 714Q1512 629 1512 549V509Q1512 342 1350 246Q1297 224 1233 224Q1079 224 984 445H942V433Q942 150 1025 0H810V6Q895 157 895 442L892 445H854L807 357Q722 224 595 224Q408 224 332 433L323 506V552Q323 735 510 938Q825 1324 914 1489L917 1492Z" fill="rgb(115,65,205)"/>
<rect x="7" y="162" width="135" height="40" fill="rgb(28,15,58)"/>
<rect x="7" y="162" width="135" height="40" fill="none" stroke="rgb(58,32,118)" stroke-width="1"/>
<path transform="translate(57.00,180.35) scale(0.00439,-0.00439)" d="M1530 111Q1386 41 1231.0 6.0Q1076 -29 911 -29Q538 -29 320.0 179.5Q102 388 102 745Q102 1106 324.0 1313.0Q546 1520 932 1520Q1081 1520 1217.5 1492.0Q1354 1464 1475 1409V1100Q1350 1171 1226.5 1206.0Q1103 1241 979 1241Q749 1241 624.5 1112.5Q500 984 500 745Q500 508 620.0 379.0Q740 250 961 250Q1021 250 1072.5 257.5Q1124 265 1165 281V571H930V829H1530Z" fill="rgb(215,185,255)"/>
<path transform="translate(64.39,180.35) scale(0.00439,-0.00439)" d="M188 1493H573V924H1141V1493H1526V0H1141V633H573V0H188Z" fill="rgb(215,185,255)"/>
<path transform="translate(71.92,180.35) scale(0.00439,-0.00439)" d="M870 1241Q694 1241 597.0 1111.0Q500 981 500 745Q500 510 597.0 380.0Q694 250 870 250Q1047 250 1144.0 380.0Q1241 510 1241 745Q1241 981 1144.0 1111.0Q1047 1241 870 1241ZM870 1520Q1230 1520 1434.0 1314.0Q1638 1108 1638 745Q1638 383 1434.0 177.0Q1230 -29 870 -29Q511 -29 306.5 177.0Q102 383 102 745Q102 1108 306.5 1314.0Q511 1520 870 1520Z" fill="rgb(215,185,255)"/>
<path transform="translate(79.57,180.35) scale(0.00439,-0.00439)" d="M188 1493H573V598Q573 413 633.5 333.5Q694 254 831 254Q969 254 1029.5 333.5Q1090 413 1090 598V1493H1475V598Q1475 281 1316.0 126.0Q1157 -29 831 -29Q506 -29 347.0 126.0Q188 281 188 598Z" fill="rgb(215,185,255)"/>
<path transform="translate(86.88,180.35) scale(0.00439,-0.00439)" d="M188 1493H573V291H1249V0H188Z" fill="rgb(215,185,255)"/>
</svg>
