<svg xmlns="http://www.w3.org/2000/svg" width="150" height="210" viewBox="0 0 150 210">
<rect x="0" y="0" width="150" height="210" fill="rgb(22,7,7)"/>
<line x1="-210" y1="0" x2="0" y2="210" stroke="rgb(29,14,14)" stroke-width="1" stroke-linecap="round"/>
<line x1="-196" y1="0" x2="14" y2="210" stroke="rgb(29,14,14)" stroke-width="1" stroke-linecap="round"/>
<line x1="-182" y1="0" x2="28" y2="210" stroke="rgb(29,14,14)" stroke-width="1" stroke-linecap="round"/>
<line x1="-168" y1="0" x2="42" y2="210" stroke="rgb(29,14,14)" stroke-width="1" stroke-linecap="round"/>
<line x1="-154" y1="0" x2="56" y2="210" stroke="rgb(29,14,14)" stroke-width="1" stroke-linecap="round"/>
<line x1="-140" y1="0" x2="70" y2="210" stroke="rgb(29,14,14)" stroke-width="1" stroke-linecap="round"/>
<line x1="-126" y1="0" x2="84" y2="210" stroke="rgb(29,14,14)" stroke-width="1" stroke-linecap="round"/>
<line x1="-112" y1="0" x2="98" y2="210" stroke="rgb(29,14,14)" stroke-width="1" stroke-linecap="round"/>
<line x1="-98" y1="0" x2="112" y2="210" stroke="rgb(29,14,14)" stroke-width="1" stroke-linecap="round"/>
<line x1="-84" y1="0" x2="126" y2="210" stroke="rgb(29,14,14)" stroke-width="1" stroke-linecap="round"/>
<line x1="-70" y1="0" x2="140" y2="210" stroke="rgb(29,14,14)" stroke-width="1" stroke-linecap="round"/>
<line x1="-56" y1="0" x2="154" y2="210" stroke="rgb(29,14,14)" stroke-width="1" stroke-linecap="round"/>
<line x1="-42" y1="0" x2="168" y2="210" stroke="rgb(29,14,14)" stroke-width="1" stroke-linecap="round"/>
<line x1="-28" y1="0" x2="182" y2="210" stroke="rgb(29,14,14)" stroke-width="1" stroke-linecap="round"/>
<line x1="-14" y1="0" x2="196" y2="210" stroke="rgb(29,14,14)" stroke-width="1" stroke-linecap="round"/>
<line x1="0" y1="0" x2="210" y2="210" stroke="rgb(29,14,14)" stroke-width="1" stroke-linecap="round"/>
<line x1="14" y1="0" x2="224" y2="210" stroke="rgb(29,14,14)" stroke-width="1" stroke-linecap="round"/>
<line x1="28" y1="0" x2="238" y2="210" stroke="rgb(29,14,14)" stroke-width="1" stroke-linecap="round"/>
<line x1="42" y1="0" x2="252" y2="210" stroke="rgb(29,14,14)" stroke-width="1" stroke-linecap="round"/>
<line x1="56" y1="0" x2="266" y2="210" stroke="rgb(29,14,14)" stroke-width="1" stroke-linecap="round"/>
<line x1="70" y1="0" x2="280" y2="210" stroke="rgb(29,14,14)" stroke-width="1" stroke-linecap="round"/>
<line x1="84" y1="0" x2="294" y2="210" stroke="rgb(29,14,14)" stroke-width="1" stroke-linecap="round"/>
<line x1="98" y1="0" x2="308" y2="210" stroke="rgb(29,14,14)" stroke-width="1" stroke-linecap="round"/>
<line x1="112" y1="0" x2="322" y2="210" stroke="rgb(29,14,14)" stroke-width="1" stroke-linecap="round"/>
<line x1="126" y1="0" x2="336" y2="210" stroke="rgb(29,14,14)" stroke-width="1" stroke-linecap="round"/>
<line x1="140" y1="0" x2="350" y2="210" stroke="rgb(29,14,14)" stroke-width="1" stroke-linecap="round"/>
<line x1="154" y1="0" x2="364" y2="210" stroke="rgb(29,14,14)" stroke-width="1" stroke-linecap="round"/>
<line x1="168" y1="0" x2="378" y2="210" stroke="rgb(29,14,14)" stroke-width="1" stroke-linecap="round"/>
<line x1="182" y1="0" x2="392" y2="210" stroke="rgb(29,14,14)" stroke-width="1" stroke-linecap="round"/>
<line x1="196" y1="0" x2="406" y2="210" stroke="rgb(29,14,14)" stroke-width="1" stroke-linecap="round"/>
<line x1="210" y1="0" x2="420" y2="210" stroke="rgb(29,14,14)" stroke-width="1" stroke-linecap="round"/>
<line x1="224" y1="0" x2="434" y2="210" stroke="rgb(29,14,14)" stroke-width="1" stroke-linecap="round"/>
<line x1="238" y1="0" x2="448" y2="210" stroke="rgb(29,14,14)" stroke-width="1" stroke-linecap="round"/>
<line x1="252" y1="0" x2="462" y2="210" stroke="rgb(29,14,14)" stroke-width="1" stroke-linecap="round"/>
<line x1="266" y1="0" x2="476" y2="210" stroke="rgb(29,14,14)" stroke-width="1" stroke-linecap="round"/>
<line x1="280" y1="0" x2="490" y2="210" stroke="rgb(29,14,14)" stroke-width="1" stroke-linecap="round"/>
<line x1="294" y1="0" x2="504" y2="210" stroke="rgb(29,14,14)" stroke-width="1" stroke-linecap="round"/>
<line x1="308" y1="0" x2="518" y2="210" stroke="rgb(29,14,14)" stroke-width="1" stroke-linecap="round"/>
<line x1="322" y1="0" x2="532" y2="210" stroke="rgb(29,14,14)" stroke-width="1" stroke-linecap="round"/>
<line x1="336" y1="0" x2="546" y2="210" stroke="rgb(29,14,14)" stroke-width="1" stroke-linecap="round"/>
<line x1="350" y1="0" x2="560" y2="210" stroke="rgb(29,14,14)" stroke-width="1" stroke-linecap="round"/>
<rect x="1" y="1" width="147" height="207" fill="none" stroke="rgb(138,26,26)" stroke-width="3"/>
<rect x="5" y="5" width="139" height="199" fill="none" stroke="rgb(58,15,15)" stroke-width="1"/>
<polygon points="2,-1 5,2 2,5 -1,2" fill="rgb(212,48,48)" stroke-linejoin="round"/>
<polygon points="147,-1 150,2 147,5 144,2" fill="rgb(212,48,48)" stroke-linejoin="round"/>
<polygon points="2,204 5,207 2,210 -1,207" fill="rgb(212,48,48)" stroke-linejoin="round"/>
<polygon points="147,204 150,207 147,210 144,207" fill="rgb(212,48,48)" stroke-linejoin="round"/>
<ellipse cx="75.00" cy="97.00" rx="28.00" ry="21.00" fill="rgb(168,215,225)"/>
<ellipse cx="75.00" cy="103.50" rx="25.00" ry="11.50" fill="rgb(222,56,80)"/>
<line x1="52" y1="87" x2="52" y2="107" stroke="rgb(255,255,255)" stroke-width="2" stroke-linecap="round"/>
<rect x="66" y="65" width="18" height="13" fill="rgb(168,215,225)"/>
<rect x="64" y="60" width="22" height="7" fill="rgb(155,95,45)"/>
<rect x="50" y="91" width="50" height="12" fill="rgb(58,15,15)"/>
<rect x="50" y="91" width="50" height="12" fill="none" stroke="rgb(138,26,26)" stroke-width="1"/>
<line x1="75" y1="92" x2="75" y2="102" stroke="rgb(255,195,195)" stroke-width="2" stroke-linecap="round"/>
<line x1="70" y1="97" x2="80" y2="97" stroke="rgb(255,195,195)" stroke-width="2" stroke-linecap="round"/>
<ellipse cx="68.00" cy="105.00" rx="3.00" ry="3.00" fill="rgb(255,121,145)"/>
<ellipse cx="84.00" cy="93.00" rx="3.00" ry="3.00" fill="rgb(255,121,145)"/>
<ellipse cx="77.00" cy="111.00" rx="3.00" ry="3.00" fill="rgb(255,121,145)"/>
<path transform="translate(9.00,27.42) scale(0.01074,-0.01074)" d="M741 737Q640 737 589.5 671.5Q539 606 539 475Q539 344 589.5 278.5Q640 213 741 213Q843 213 893.5 278.5Q944 344 944 475Q944 606 893.5 671.5Q843 737 741 737ZM1217 1454V1178Q1122 1223 1038.0 1244.5Q954 1266 874 1266Q702 1266 606.0 1170.5Q510 1075 494 887Q560 936 637.0 960.5Q714 985 805 985Q1034 985 1174.5 851.0Q1315 717 1315 500Q1315 260 1158.0 115.5Q1001 -29 737 -29Q446 -29 286.5 167.5Q127 364 127 725Q127 1095 313.5 1306.5Q500 1518 825 1518Q928 1518 1025.0 1502.0Q1122 1486 1217 1454Z" fill="rgb(255,195,195)"/>
<path transform="translate(10.00,44.92) scale(0.00732,-0.00732)" d="M552 1492Q755 1492 871 1257Q913 1164 915 1115H918Q953 1277 1045 1384Q1153 1492 1288 1492Q1497 1492 1623 1268Q1655 1185 1655 1112Q1655 862 1447 635L918 0H912L350 689Q182 894 182 1112Q182 1323 381 1447Q465 1492 552 1492Z" fill="rgb(212,48,48)"/>
<rect x="7" y="162" width="135" height="40" fill="rgb(58,15,15)"/>
<rect x="7" y="162" width="135" height="40" fill="none" stroke="rgb(138,26,26)" stroke-width="1"/>
<path transform="translate(35.00,180.35) scale(0.00439,-0.00439)" d="M1227 1446V1130Q1104 1185 987.0 1213.0Q870 1241 766 1241Q628 1241 562.0 1203.0Q496 1165 496 1085Q496 1025 540.5 991.5Q585 958 702 934L866 901Q1115 851 1220.0 749.0Q1325 647 1325 459Q1325 212 1178.5 91.5Q1032 -29 731 -29Q589 -29 446.0 -2.0Q303 25 160 78V403Q303 327 436.5 288.5Q570 250 694 250Q820 250 887.0 292.0Q954 334 954 412Q954 482 908.5 520.0Q863 558 727 588L578 621Q354 669 250.5 774.0Q147 879 147 1057Q147 1280 291.0 1400.0Q435 1520 705 1520Q828 1520 958.0 1501.5Q1088 1483 1227 1446Z" fill="rgb(255,195,195)"/>
<path transform="translate(41.48,180.35) scale(0.00439,-0.00439)" d="M10 1493H1386V1202H891V0H506V1202H10Z" fill="rgb(255,195,195)"/>
<path transform="translate(47.62,180.35) scale(0.00439,-0.00439)" d="M1094 272H492L397 0H10L563 1493H1022L1575 0H1188ZM588 549H997L793 1143Z" fill="rgb(255,195,195)"/>
<path transform="translate(54.59,180.35) scale(0.00439,-0.00439)" d="M188 1493H678L1018 694L1360 1493H1849V0H1485V1092L1141 287H897L553 1092V0H188Z" fill="rgb(255,195,195)"/>
<path transform="translate(63.54,180.35) scale(0.00439,-0.00439)" d="M188 1493H573V0H188Z" fill="rgb(255,195,195)"/>
<path transform="translate(66.89,180.35) scale(0.00439,-0.00439)" d="M188 1493H618L1161 469V1493H1526V0H1096L553 1024V0H188Z" fill="rgb(255,195,195)"/>
<path transform="translate(74.42,180.35) scale(0.00439,-0.00439)" d="M1094 272H492L397 0H10L563 1493H1022L1575 0H1188ZM588 549H997L793 1143Z" fill="rgb(255,195,195)"/>
<path transform="translate(84.52,180.35) scale(0.00439,-0.00439)" d="M786 915Q877 915 924.0 955.0Q971 995 971 1073Q971 1150 924.0 1190.5Q877 1231 786 1231H573V915ZM799 262Q915 262 973.5 311.0Q1032 360 1032 459Q1032 556 974.0 604.5Q916 653 799 653H573V262ZM1157 799Q1281 763 1349.0 666.0Q1417 569 1417 428Q1417 212 1271.0 106.0Q1125 0 827 0H188V1493H766Q1077 1493 1216.5 1399.0Q1356 1305 1356 1098Q1356 989 1305.0 912.5Q1254 836 1157 799Z" fill="rgb(255,195,195)"/>
<path transform="translate(91.38,180.35) scale(0.00439,-0.00439)" d="M735 831Q856 831 908.5 876.0Q961 921 961 1024Q961 1126 908.5 1170.0Q856 1214 735 1214H573V831ZM573 565V0H188V1493H776Q1071 1493 1208.5 1394.0Q1346 1295 1346 1081Q1346 933 1274.5 838.0Q1203 743 1059 698Q1138 680 1200.5 616.5Q1263 553 1327 424L1536 0H1126L944 371Q889 483 832.5 524.0Q776 565 682 565Z" fill="rgb(255,195,195)"/>
<path transform="translate(98.31,180.35) scale(0.00439,-0.00439)" d="M188 1493H1227V1202H573V924H1188V633H573V291H1249V0H188Z" fill="rgb(255,195,195)"/>
<path transform="translate(104.46,180.35) scale(0.00439,-0.00439)" d="M61 1493H430L688 408L944 1493H1315L1571 408L1829 1493H2195L1843 0H1399L1128 1135L860 0H416Z" fill="rgb(255,195,195)"/>
</svg>
