<svg xmlns="http://www.w3.org/2000/svg" width="150" height="210" viewBox="0 0 150 210">
<rect x="0" y="0" width="150" height="210" fill="rgb(8,8,22)"/>
<line x1="-210" y1="0" x2="0" y2="210" stroke="rgb(15,15,29)" stroke-width="1" stroke-linecap="round"/>
<line x1="-196" y1="0" x2="14" y2="210" stroke="rgb(15,15,29)" stroke-width="1" stroke-linecap="round"/>
<line x1="-182" y1="0" x2="28" y2="210" stroke="rgb(15,15,29)" stroke-width="1" stroke-linecap="round"/>
<line x1="-168" y1="0" x2="42" y2="210" stroke="rgb(15,15,29)" stroke-width="1" stroke-linecap="round"/>
<line x1="-154" y1="0" x2="56" y2="210" stroke="rgb(15,15,29)" stroke-width="1" stroke-linecap="round"/>
<line x1="-140" y1="0" x2="70" y2="210" stroke="rgb(15,15,29)" stroke-width="1" stroke-linecap="round"/>
<line x1="-126" y1="0" x2="84" y2="210" stroke="rgb(15,15,29)" stroke-width="1" stroke-linecap="round"/>
<line x1="-112" y1="0" x2="98" y2="210" stroke="rgb(15,15,29)" stroke-width="1" stroke-linecap="round"/>
<line x1="-98" y1="0" x2="112" y2="210" stroke="rgb(15,15,29)" stroke-width="1" stroke-linecap="round"/>
<line x1="-84" y1="0" x2="126" y2="210" stroke="rgb(15,15,29)" stroke-width="1" stroke-linecap="round"/>
<line x1="-70" y1="0" x2="140" y2="210" stroke="rgb(15,15,29)" stroke-width="1" stroke-linecap="round"/>
<line x1="-56" y1="0" x2="154" y2="210" stroke="rgb(15,15,29)" stroke-width="1" stroke-linecap="round"/>
<line x1="-42" y1="0" x2="168" y2="210" stroke="rgb(15,15,29)" stroke-width="1" stroke-linecap="round"/>
<line x1="-28" y1="0" x2="182" y2="210" stroke="rgb(15,15,29)" stroke-width="1" stroke-linecap="round"/>
<line x1="-14" y1="0" x2="196" y2="210" stroke="rgb(15,15,29)" stroke-width="1" stroke-linecap="round"/>
<line x1="0" y1="0" x2="210" y2="210" stroke="rgb(15,15,29)" stroke-width="1" stroke-linecap="round"/>
<line x1="14" y1="0" x2="224" y2="210" stroke="rgb(15,15,29)" stroke-width="1" stroke-linecap="round"/>
<line x1="28" y1="0" x2="238" y2="210" stroke="rgb(15,15,29)" stroke-width="1" stroke-linecap="round"/>
<line x1="42" y1="0" x2="252" y2="210" stroke="rgb(15,15,29)" stroke-width="1" stroke-linecap="round"/>
<line x1="56" y1="0" x2="266" y2="210" stroke="rgb(15,15,29)" stroke-width="1" stroke-linecap="round"/>
<line x1="70" y1="0" x2="280" y2="210" stroke="rgb(15,15,29)" stroke-width="1" stroke-linecap="round"/>
<line x1="84" y1="0" x2="294" y2="210" stroke="rgb(15,15,29)" stroke-width="1" stroke-linecap="round"/>
<line x1="98" y1="0" x2="308" y2="210" stroke="rgb(15,15,29)" stroke-width="1" stroke-linecap="round"/>
<line x1="112" y1="0" x2="322" y2="210" stroke="rgb(15,15,29)" stroke-width="1" stroke-linecap="round"/>
<line x1="126" y1="0" x2="336" y2="210" stroke="rgb(15,15,29)" stroke-width="1" stroke-linecap="round"/>
<line x1="140" y1="0" x2="350" y2="210" stroke="rgb(15,15,29)" stroke-width="1" stroke-linecap="round"/>
<line x1="154" y1="0" x2="364" y2="210" stroke="rgb(15,15,29)" stroke-width="1" stroke-linecap="round"/>
<line x1="168" y1="0" x2="378" y2="210" stroke="rgb(15,15,29)" stroke-width="1" stroke-linecap="round"/>
<line x1="182" y1="0" x2="392" y2="210" stroke="rgb(15,15,29)" stroke-width="1" stroke-linecap="round"/>
<line x1="196" y1="0" x2="406" y2="210" stroke="rgb(15,15,29)" stroke-width="1" stroke-linecap="round"/>
<line x1="210" y1="0" x2="420" y2="210" stroke="rgb(15,15,29)" stroke-width="1" stroke-linecap="round"/>
<line x1="224" y1="0" x2="434" y2="210" stroke="rgb(15,15,29)" stroke-width="1" stroke-linecap="round"/>
<line x1="238" y1="0" x2="448" y2="210" stroke="rgb(15,15,29)" stroke-width="1" stroke-linecap="round"/>
<line x1="252" y1="0" x2="462" y2="210" stroke="rgb(15,15,29)" stroke-width="1" stroke-linecap="round"/>
<line x1="266" y1="0" x2="476" y2="210" stroke="rgb(15,15,29)" stroke-width="1" stroke-linecap="round"/>
<line x1="280" y1="0" x2="490" y2="210" stroke="rgb(15,15,29)" stroke-width="1" stroke-linecap="round"/>
<line x1="294" y1="0" x2="504" y2="210" stroke="rgb(15,15,29)" stroke-width="1" stroke-linecap="round"/>
<line x1="308" y1="0" x2="518" y2="210" stroke="rgb(15,15,29)" stroke-width="1" stroke-linecap="round"/>
<line x1="322" y1="0" x2="532" y2="210" stroke="rgb(15,15,29)" stroke-width="1" stroke-linecap="round"/>
<line x1="336" y1="0" x2="546" y2="210" stroke="rgb(15,15,29)" stroke-width="1" stroke-linecap="round"/>
<line x1="350" y1="0" x2="560" y2="210" stroke="rgb(15,15,29)" stroke-width="1" stroke-linecap="round"/>
<rect x="1" y="1" width="147" height="207" fill="none" stroke="rgb(58,32,118)" stroke-width="3"/>
<rect x="5" y="5" width="139" height="199" fill="none" stroke="rgb(28,15,58)" stroke-width="1"/>
<polygon points="2,-1 5,2 2,5 -1,2" fill="rgb(115,65,205)" stroke-linejoin="round"/>
<polygon points="147,-1 150,2 147,5 144,2" fill="rgb(115,65,205)" stroke-linejoin="round"/>
<polygon points="2,204 5,207 2,210 -1,207" fill="rgb(115,65,205)" stroke-linejoin="round"/>
<polygon points="147,204 150,207 147,210 144,207" fill="rgb(115,65,205)" stroke-linejoin="round"/>
<ellipse cx="75.00" cy="54.50" rx="16.00" ry="12.50" fill="rgb(115,65,205)"/>
<rect x="59" y="55" width="32" height="22" fill="rgb(115,65,205)"/>
<rect x="65" y="57" width="20" height="10" fill="rgb(28,15,58)"/>
<polygon points="53,77 97,77 101,115 49,115" fill="rgb(115,65,205)" stroke-linejoin="round"/>
<rect x="45" y="79" width="8" height="30" fill="rgb(115,65,205)"/>
<rect x="97" y="79" width="8" height="30" fill="rgb(115,65,205)"/>
<rect x="104" y="45" width="6" height="67" fill="rgb(170,120,255)"/>
<rect x="95" y="71" width="24" height="6" fill="rgb(115,65,205)"/>
<path d="M 35.53,82.64 A 42.00,42.00 0 0,1 114.47,82.64" fill="none" stroke="rgb(33,19,51)" stroke-width="2"/>
<path d="M 38.35,83.66 A 39.00,39.00 0 0,1 111.65,83.66" fill="none" stroke="rgb(33,19,51)" stroke-width="2"/>
<path d="M 41.17,84.69 A 36.00,36.00 0 0,1 108.83,84.69" fill="none" stroke="rgb(33,19,51)" stroke-width="2"/>
<path d="M 43.99,85.71 A 33.00,33.00 0 0,1 106.01,85.71" fill="none" stroke="rgb(33,19,51)" stroke-width="2"/>
<path transform="translate(9.00,27.42) scale(0.01074,-0.01074)" d="M713 668Q605 668 547.0 609.0Q489 550 489 440Q489 330 547.0 271.5Q605 213 713 213Q820 213 877.0 271.5Q934 330 934 440Q934 551 877.0 609.5Q820 668 713 668ZM432 795Q296 836 227.0 921.0Q158 1006 158 1133Q158 1322 299.0 1421.0Q440 1520 713 1520Q984 1520 1125.0 1421.5Q1266 1323 1266 1133Q1266 1006 1196.5 921.0Q1127 836 991 795Q1143 753 1220.5 658.5Q1298 564 1298 420Q1298 198 1150.5 84.5Q1003 -29 713 -29Q422 -29 273.5 84.5Q125 198 125 420Q125 564 202.5 658.5Q280 753 432 795ZM522 1094Q522 1005 571.5 957.0Q621 909 713 909Q803 909 852.0 957.0Q901 1005 901 1094Q901 1183 852.0 1230.5Q803 1278 713 1278Q621 1278 571.5 1230.0Q522 1182 522 1094Z" fill="rgb(215,185,255)"/>
<path transform="translate(10.00,44.92) scale(0.00732,-0.00732)" d="M920 1492Q1014 1325 1230 1049Q1467 771 1473 714Q1512 629 1512 549V509Q1512 342 1350 246Q1297 224 1233 224Q1079 224 984 445H942V433Q942 150 1025 0H810V6Q895 157 895 442L892 445H854L807 357Q722 224 595 224Q408 224 332 433L323 506V552Q323 735 510 938Q825 1324 914 1489L917 1492Z" fill="rgb(115,65,205)"/>
<rect x="7" y="162" width="135" height="40" fill="rgb(28,15,58)"/>
<rect x="7" y="162" width="135" height="40" fill="none" stroke="rgb(58,32,118)" stroke-width="1"/>
<path transform="translate(57.00,180.35) scale(0.00439,-0.00439)" d="M61 1493H430L688 408L944 1493H1315L1571 408L1829 1493H2195L1843 0H1399L1128 1135L860 0H416Z" fill="rgb(215,185,255)"/>
<path transform="translate(66.93,180.35) scale(0.00439,-0.00439)" d="M188 1493H573V0H188Z" fill="rgb(215,185,255)"/>
<path transform="translate(70.28,180.35) scale(0.00439,-0.00439)" d="M1530 111Q1386 41 1231.0 6.0Q1076 -29 911 -29Q538 -29 320.0 179.5Q102 388 102 745Q102 1106 324.0 1313.0Q546 1520 932 1520Q1081 1520 1217.5 1492.0Q1354 1464 1475 1409V1100Q1350 1171 1226.5 1206.0Q1103 1241 979 1241Q749 1241 624.5 1112.5Q500 984 500 745Q500 508 620.0 379.0Q740 250 961 250Q1021 250 1072.5 257.5Q1124 265 1165 281V571H930V829H1530Z" fill="rgb(215,185,255)"/>
<path transform="translate(77.66,180.35) scale(0.00439,-0.00439)" d="M188 1493H573V924H1141V1493H1526V0H1141V633H573V0H188Z" fill="rgb(215,185,255)"/>
<path transform="translate(85.20,180.35) scale(0.00439,-0.00439)" d="M10 1493H1386V1202H891V0H506V1202H10Z" fill="rgb(215,185,255)"/>
</svg>
