<svg xmlns="http://www.w3.org/2000/svg" width="150" height="210" viewBox="0 0 150 210">
<rect x="0" y="0" width="150" height="210" fill="rgb(8,18,12)"/>
<line x1="-210" y1="0" x2="0" y2="210" stroke="rgb(15,25,19)" stroke-width="1" stroke-linecap="round"/>
<line x1="-196" y1="0" x2="14" y2="210" stroke="rgb(15,25,19)" stroke-width="1" stroke-linecap="round"/>
<line x1="-182" y1="0" x2="28" y2="210" stroke="rgb(15,25,19)" stroke-width="1" stroke-linecap="round"/>
<line x1="-168" y1="0" x2="42" y2="210" stroke="rgb(15,25,19)" stroke-width="1" stroke-linecap="round"/>
<line x1="-154" y1="0" x2="56" y2="210" stroke="rgb(15,25,19)" stroke-width="1" stroke-linecap="round"/>
<line x1="-140" y1="0" x2="70" y2="210" stroke="rgb(15,25,19)" stroke-width="1" stroke-linecap="round"/>
<line x1="-126" y1="0" x2="84" y2="210" stroke="rgb(15,25,19)" stroke-width="1" stroke-linecap="round"/>
<line x1="-112" y1="0" x2="98" y2="210" stroke="rgb(15,25,19)" stroke-width="1" stroke-linecap="round"/>
<line x1="-98" y1="0" x2="112" y2="210" stroke="rgb(15,25,19)" stroke-width="1" stroke-linecap="round"/>
<line x1="-84" y1="0" x2="126" y2="210" stroke="rgb(15,25,19)" stroke-width="1" stroke-linecap="round"/>
<line x1="-70" y1="0" x2="140" y2="210" stroke="rgb(15,25,19)" stroke-width="1" stroke-linecap="round"/>
<line x1="-56" y1="0" x2="154" y2="210" stroke="rgb(15,25,19)" stroke-width="1" stroke-linecap="round"/>
<line x1="-42" y1="0" x2="168" y2="210" stroke="rgb(15,25,19)" stroke-width="1" stroke-linecap="round"/>
<line x1="-28" y1="0" x2="182" y2="210" stroke="rgb(15,25,19)" stroke-width="1" stroke-linecap="round"/>
<line x1="-14" y1="0" x2="196" y2="210" stroke="rgb(15,25,19)" stroke-width="1" stroke-linecap="round"/>
<line x1="0" y1="0" x2="210" y2="210" stroke="rgb(15,25,19)" stroke-width="1" stroke-linecap="round"/>
<line x1="14" y1="0" x2="224" y2="210" stroke="rgb(15,25,19)" stroke-width="1" stroke-linecap="round"/>
<line x1="28" y1="0" x2="238" y2="210" stroke="rgb(15,25,19)" stroke-width="1" stroke-linecap="round"/>
<line x1="42" y1="0" x2="252" y2="210" stroke="rgb(15,25,19)" stroke-width="1" stroke-linecap="round"/>
<line x1="56" y1="0" x2="266" y2="210" stroke="rgb(15,25,19)" stroke-width="1" stroke-linecap="round"/>
<line x1="70" y1="0" x2="280" y2="210" stroke="rgb(15,25,19)" stroke-width="1" stroke-linecap="round"/>
<line x1="84" y1="0" x2="294" y2="210" stroke="rgb(15,25,19)" stroke-width="1" stroke-linecap="round"/>
<line x1="98" y1="0" x2="308" y2="210" stroke="rgb(15,25,19)" stroke-width="1" stroke-linecap="round"/>
<line x1="112" y1="0" x2="322" y2="210" stroke="rgb(15,25,19)" stroke-width="1" stroke-linecap="round"/>
<line x1="126" y1="0" x2="336" y2="210" stroke="rgb(15,25,19)" stroke-width="1" stroke-linecap="round"/>
<line x1="140" y1="0" x2="350" y2="210" stroke="rgb(15,25,19)" stroke-width="1" stroke-linecap="round"/>
<line x1="154" y1="0" x2="364" y2="210" stroke="rgb(15,25,19)" stroke-width="1" stroke-linecap="round"/>
<line x1="168" y1="0" x2="378" y2="210" stroke="rgb(15,25,19)" stroke-width="1" stroke-linecap="round"/>
<line x1="182" y1="0" x2="392" y2="210" stroke="rgb(15,25,19)" stroke-width="1" stroke-linecap="round"/>
<line x1="196" y1="0" x2="406" y2="210" stroke="rgb(15,25,19)" stroke-width="1" stroke-linecap="round"/>
<line x1="210" y1="0" x2="420" y2="210" stroke="rgb(15,25,19)" stroke-width="1" stroke-linecap="round"/>
<line x1="224" y1="0" x2="434" y2="210" stroke="rgb(15,25,19)" stroke-width="1" stroke-linecap="round"/>
<line x1="238" y1="0" x2="448" y2="210" stroke="rgb(15,25,19)" stroke-width="1" stroke-linecap="round"/>
<line x1="252" y1="0" x2="462" y2="210" stroke="rgb(15,25,19)" stroke-width="1" stroke-linecap="round"/>
<line x1="266" y1="0" x2="476" y2="210" stroke="rgb(15,25,19)" stroke-width="1" stroke-linecap="round"/>
<line x1="280" y1="0" x2="490" y2="210" stroke="rgb(15,25,19)" stroke-width="1" stroke-linecap="round"/>
<line x1="294" y1="0" x2="504" y2="210" stroke="rgb(15,25,19)" stroke-width="1" stroke-linecap="round"/>
<line x1="308" y1="0" x2="518" y2="210" stroke="rgb(15,25,19)" stroke-width="1" stroke-linecap="round"/>
<line x1="322" y1="0" x2="532" y2="210" stroke="rgb(15,25,19)" stroke-width="1" stroke-linecap="round"/>
<line x1="336" y1="0" x2="546" y2="210" stroke="rgb(15,25,19)" stroke-width="1" stroke-linecap="round"/>
<line x1="350" y1="0" x2="560" y2="210" stroke="rgb(15,25,19)" stroke-width="1" stroke-linecap="round"/>
<rect x="1" y="1" width="147" height="207" fill="none" stroke="rgb(40,105,62)" stroke-width="3"/>
<rect x="5" y="5" width="139" height="199" fill="none" stroke="rgb(22,50,32)" stroke-width="1"/>
<polygon points="2,-1 5,2 2,5 -1,2" fill="rgb(65,175,105)" stroke-linejoin="round"/>
<polygon points="147,-1 150,2 147,5 144,2" fill="rgb(65,175,105)" stroke-linejoin="round"/>
<polygon points="2,204 5,207 2,210 -1,207" fill="rgb(65,175,105)" stroke-linejoin="round"/>
<polygon points="147,204 150,207 147,210 144,207" fill="rgb(65,175,105)" stroke-linejoin="round"/>
<ellipse cx="75.00" cy="87.50" rx="29.00" ry="21.50" fill="rgb(187,226,201)"/>
<rect x="52" y="109" width="46" height="13" fill="rgb(187,226,201)"/>
<ellipse cx="63.00" cy="91.00" rx="9.00" ry="11.00" fill="rgb(41,49,44)"/>
<ellipse cx="63.00" cy="91.00" rx="6.00" ry="8.00" fill="rgb(95,255,140)"/>
<ellipse cx="87.00" cy="91.00" rx="9.00" ry="11.00" fill="rgb(41,49,44)"/>
<ellipse cx="87.00" cy="91.00" rx="6.00" ry="8.00" fill="rgb(95,255,140)"/>
<polygon points="75,98 70,109 80,109" fill="rgb(41,49,44)" stroke-linejoin="round"/>
<rect x="56" y="111" width="4" height="7" fill="rgb(41,49,44)"/>
<rect x="63" y="111" width="4" height="7" fill="rgb(41,49,44)"/>
<rect x="70" y="111" width="4" height="7" fill="rgb(41,49,44)"/>
<rect x="77" y="111" width="4" height="7" fill="rgb(41,49,44)"/>
<rect x="84" y="111" width="4" height="7" fill="rgb(41,49,44)"/>
<line x1="69" y1="68" x2="79" y2="99" stroke="rgb(41,49,44)" stroke-width="2" stroke-linecap="round"/>
<polygon points="51,70 34,48 56,66" fill="rgb(120,181,142)" stroke-linejoin="round"/>
<polygon points="99,70 116,48 94,66" fill="rgb(120,181,142)" stroke-linejoin="round"/>
<polygon points="47,71 27,42 57,61" fill="rgb(200,180,148)" stroke-linejoin="round"/>
<polygon points="103,71 123,42 93,61" fill="rgb(200,180,148)" stroke-linejoin="round"/>
<path transform="translate(9.00,27.42) scale(0.01074,-0.01074)" d="M205 33V309Q297 266 381.0 244.5Q465 223 547 223Q719 223 815.0 318.5Q911 414 928 602Q860 552 783.0 527.0Q706 502 616 502Q387 502 246.5 635.5Q106 769 106 987Q106 1228 262.5 1373.0Q419 1518 682 1518Q974 1518 1134.0 1321.0Q1294 1124 1294 764Q1294 394 1107.0 182.5Q920 -29 594 -29Q489 -29 393.0 -13.5Q297 2 205 33ZM680 752Q781 752 832.0 817.5Q883 883 883 1014Q883 1144 832.0 1210.0Q781 1276 680 1276Q579 1276 528.0 1210.0Q477 1144 477 1014Q477 883 528.0 817.5Q579 752 680 752Z" fill="rgb(210,255,225)"/>
<path transform="translate(10.00,44.92) scale(0.00732,-0.00732)" d="M919 1492Q1133 1492 1234 1265Q1247 1213 1250 1157Q1250 1040 1130 880L1070 820H1073Q1147 848 1231 848H1250Q1488 848 1584 646Q1607 580 1607 520Q1607 315 1398 211Q1358 199 1287 193Q1045 193 944 467H941V458Q941 115 1023 6V0H815L809 6Q894 134 894 467V470H891Q791 193 546 193Q355 193 253 394Q228 462 228 520Q228 753 474 836Q540 848 591 848H600Q686 848 764 820H767V823Q683 894 654 963Q594 1073 594 1154V1168Q594 1369 809 1473Q880 1492 919 1492Z" fill="rgb(65,175,105)"/>
<rect x="7" y="162" width="135" height="40" fill="rgb(22,50,32)"/>
<rect x="7" y="162" width="135" height="40" fill="none" stroke="rgb(40,105,62)" stroke-width="1"/>
<path transform="translate(47.00,180.35) scale(0.00439,-0.00439)" d="M188 1493H678L1018 694L1360 1493H1849V0H1485V1092L1141 287H897L553 1092V0H188Z" fill="rgb(210,255,225)"/>
<path transform="translate(55.96,180.35) scale(0.00439,-0.00439)" d="M188 1493H573V0H188Z" fill="rgb(210,255,225)"/>
<path transform="translate(59.30,180.35) scale(0.00439,-0.00439)" d="M188 1493H618L1161 469V1493H1526V0H1096L553 1024V0H188Z" fill="rgb(210,255,225)"/>
<path transform="translate(66.84,180.35) scale(0.00439,-0.00439)" d="M870 1241Q694 1241 597.0 1111.0Q500 981 500 745Q500 510 597.0 380.0Q694 250 870 250Q1047 250 1144.0 380.0Q1241 510 1241 745Q1241 981 1144.0 1111.0Q1047 1241 870 1241ZM870 1520Q1230 1520 1434.0 1314.0Q1638 1108 1638 745Q1638 383 1434.0 177.0Q1230 -29 870 -29Q511 -29 306.5 177.0Q102 383 102 745Q102 1108 306.5 1314.0Q511 1520 870 1520Z" fill="rgb(210,255,225)"/>
<path transform="translate(74.49,180.35) scale(0.00439,-0.00439)" d="M10 1493H1386V1202H891V0H506V1202H10Z" fill="rgb(210,255,225)"/>
<path transform="translate(80.63,180.35) scale(0.00439,-0.00439)" d="M1094 272H492L397 0H10L563 1493H1022L1575 0H1188ZM588 549H997L793 1143Z" fill="rgb(210,255,225)"/>
<path transform="translate(87.59,180.35) scale(0.00439,-0.00439)" d="M188 1493H573V598Q573 413 633.5 333.5Q694 254 831 254Q969 254 1029.5 333.5Q1090 413 1090 598V1493H1475V598Q1475 281 1316.0 126.0Q1157 -29 831 -29Q506 -29 347.0 126.0Q188 281 188 598Z" fill="rgb(210,255,225)"/>
<path transform="translate(94.90,180.35) scale(0.00439,-0.00439)" d="M735 831Q856 831 908.5 876.0Q961 921 961 1024Q961 1126 908.5 1170.0Q856 1214 735 1214H573V831ZM573 565V0H188V1493H776Q1071 1493 1208.5 1394.0Q1346 1295 1346 1081Q1346 933 1274.5 838.0Q1203 743 1059 698Q1138 680 1200.5 616.5Q1263 553 1327 424L1536 0H1126L944 371Q889 483 832.5 524.0Q776 565 682 565Z" fill="rgb(210,255,225)"/>
</svg>
