<svg xmlns="http://www.w3.org/2000/svg" width="150" height="210" viewBox="0 0 150 210">
<rect x="0" y="0" width="150" height="210" fill="rgb(22,17,4)"/>
<line x1="-210" y1="0" x2="0" y2="210" stroke="rgb(29,24,11)" stroke-width="1" stroke-linecap="round"/>
<line x1="-196" y1="0" x2="14" y2="210" stroke="rgb(29,24,11)" stroke-width="1" stroke-linecap="round"/>
<line x1="-182" y1="0" x2="28" y2="210" stroke="rgb(29,24,11)" stroke-width="1" stroke-linecap="round"/>
<line x1="-168" y1="0" x2="42" y2="210" stroke="rgb(29,24,11)" stroke-width="1" stroke-linecap="round"/>
<line x1="-154" y1="0" x2="56" y2="210" stroke="rgb(29,24,11)" stroke-width="1" stroke-linecap="round"/>
<line x1="-140" y1="0" x2="70" y2="210" stroke="rgb(29,24,11)" stroke-width="1" stroke-linecap="round"/>
<line x1="-126" y1="0" x2="84" y2="210" stroke="rgb(29,24,11)" stroke-width="1" stroke-linecap="round"/>
<line x1="-112" y1="0" x2="98" y2="210" stroke="rgb(29,24,11)" stroke-width="1" stroke-linecap="round"/>
<line x1="-98" y1="0" x2="112" y2="210" stroke="rgb(29,24,11)" stroke-width="1" stroke-linecap="round"/>
<line x1="-84" y1="0" x2="126" y2="210" stroke="rgb(29,24,11)" stroke-width="1" stroke-linecap="round"/>
<line x1="-70" y1="0" x2="140" y2="210" stroke="rgb(29,24,11)" stroke-width="1" stroke-linecap="round"/>
<line x1="-56" y1="0" x2="154" y2="210" stroke="rgb(29,24,11)" stroke-width="1" stroke-linecap="round"/>
<line x1="-42" y1="0" x2="168" y2="210" stroke="rgb(29,24,11)" stroke-width="1" stroke-linecap="round"/>
<line x1="-28" y1="0" x2="182" y2="210" stroke="rgb(29,24,11)" stroke-width="1" stroke-linecap="round"/>
<line x1="-14" y1="0" x2="196" y2="210" stroke="rgb(29,24,11)" stroke-width="1" stroke-linecap="round"/>
<line x1="0" y1="0" x2="210" y2="210" stroke="rgb(29,24,11)" stroke-width="1" stroke-linecap="round"/>
<line x1="14" y1="0" x2="224" y2="210" stroke="rgb(29,24,11)" stroke-width="1" stroke-linecap="round"/>
<line x1="28" y1="0" x2="238" y2="210" stroke="rgb(29,24,11)" stroke-width="1" stroke-linecap="round"/>
<line x1="42" y1="0" x2="252" y2="210" stroke="rgb(29,24,11)" stroke-width="1" stroke-linecap="round"/>
<line x1="56" y1="0" x2="266" y2="210" stroke="rgb(29,24,11)" stroke-width="1" stroke-linecap="round"/>
<line x1="70" y1="0" x2="280" y2="210" stroke="rgb(29,24,11)" stroke-width="1" stroke-linecap="round"/>
<line x1="84" y1="0" x2="294" y2="210" stroke="rgb(29,24,11)" stroke-width="1" stroke-linecap="round"/>
<line x1="98" y1="0" x2="308" y2="210" stroke="rgb(29,24,11)" stroke-width="1" stroke-linecap="round"/>
<line x1="112" y1="0" x2="322" y2="210" stroke="rgb(29,24,11)" stroke-width="1" stroke-linecap="round"/>
<line x1="126" y1="0" x2="336" y2="210" stroke="rgb(29,24,11)" stroke-width="1" stroke-linecap="round"/>
<line x1="140" y1="0" x2="350" y2="210" stroke="rgb(29,24,11)" stroke-width="1" stroke-linecap="round"/>
<line x1="154" y1="0" x2="364" y2="210" stroke="rgb(29,24,11)" stroke-width="1" stroke-linecap="round"/>
<line x1="168" y1="0" x2="378" y2="210" stroke="rgb(29,24,11)" stroke-width="1" stroke-linecap="round"/>
<line x1="182" y1="0" x2="392" y2="210" stroke="rgb(29,24,11)" stroke-width="1" stroke-linecap="round"/>
<line x1="196" y1="0" x2="406" y2="210" stroke="rgb(29,24,11)" stroke-width="1" stroke-linecap="round"/>
<line x1="210" y1="0" x2="420" y2="210" stroke="rgb(29,24,11)" stroke-width="1" stroke-linecap="round"/>
<line x1="224" y1="0" x2="434" y2="210" stroke="rgb(29,24,11)" stroke-width="1" stroke-linecap="round"/>
<line x1="238" y1="0" x2="448" y2="210" stroke="rgb(29,24,11)" stroke-width="1" stroke-linecap="round"/>
<line x1="252" y1="0" x2="462" y2="210" stroke="rgb(29,24,11)" stroke-width="1" stroke-linecap="round"/>
<line x1="266" y1="0" x2="476" y2="210" stroke="rgb(29,24,11)" stroke-width="1" stroke-linecap="round"/>
<line x1="280" y1="0" x2="490" y2="210" stroke="rgb(29,24,11)" stroke-width="1" stroke-linecap="round"/>
<line x1="294" y1="0" x2="504" y2="210" stroke="rgb(29,24,11)" stroke-width="1" stroke-linecap="round"/>
<line x1="308" y1="0" x2="518" y2="210" stroke="rgb(29,24,11)" stroke-width="1" stroke-linecap="round"/>
<line x1="322" y1="0" x2="532" y2="210" stroke="rgb(29,24,11)" stroke-width="1" stroke-linecap="round"/>
<line x1="336" y1="0" x2="546" y2="210" stroke="rgb(29,24,11)" stroke-width="1" stroke-linecap="round"/>
<line x1="350" y1="0" x2="560" y2="210" stroke="rgb(29,24,11)" stroke-width="1" stroke-linecap="round"/>
<rect x="1" y="1" width="147" height="207" fill="none" stroke="rgb(124,93,20)" stroke-width="3"/>
<rect x="5" y="5" width="139" height="199" fill="none" stroke="rgb(56,40,10)" stroke-width="1"/>
<polygon points="2,-1 5,2 2,5 -1,2" fill="rgb(202,162,44)" stroke-linejoin="round"/>
<polygon points="147,-1 150,2 147,5 144,2" fill="rgb(202,162,44)" stroke-linejoin="round"/>
<polygon points="2,204 5,207 2,210 -1,207" fill="rgb(202,162,44)" stroke-linejoin="round"/>
<polygon points="147,204 150,207 147,210 144,207" fill="rgb(202,162,44)" stroke-linejoin="round"/>
<polyline points="50,41 51,44 53,48 54,52 55,58 56,64 57,71 58,79 58,86 58,94 58,102 58,110 58,117 57,125 56,131 55,138 54,143 52,147 51,151" fill="none" stroke="rgb(202,162,44)" stroke-width="4" stroke-linecap="round" stroke-linejoin="round"/>
<polyline points="59,39 70,97 59,155" fill="none" stroke="rgb(200,195,175)" stroke-width="1" stroke-linecap="round" stroke-linejoin="round"/>
<line x1="70" y1="97" x2="130" y2="97" stroke="rgb(255,242,185)" stroke-width="2" stroke-linecap="round"/>
<polygon points="130,93 130,101 140,97" fill="rgb(255,242,185)" stroke-linejoin="round"/>
<polygon points="70,97 62,91 65,97" fill="rgb(95,72,50)" stroke-linejoin="round"/>
<polygon points="70,97 62,103 65,97" fill="rgb(72,52,35)" stroke-linejoin="round"/>
<path transform="translate(9.00,27.42) scale(0.01074,-0.01074)" d="M205 33V309Q297 266 381.0 244.5Q465 223 547 223Q719 223 815.0 318.5Q911 414 928 602Q860 552 783.0 527.0Q706 502 616 502Q387 502 246.5 635.5Q106 769 106 987Q106 1228 262.5 1373.0Q419 1518 682 1518Q974 1518 1134.0 1321.0Q1294 1124 1294 764Q1294 394 1107.0 182.5Q920 -29 594 -29Q489 -29 393.0 -13.5Q297 2 205 33ZM680 752Q781 752 832.0 817.5Q883 883 883 1014Q883 1144 832.0 1210.0Q781 1276 680 1276Q579 1276 528.0 1210.0Q477 1144 477 1014Q477 883 528.0 817.5Q579 752 680 752Z" fill="rgb(255,242,185)"/>
<path transform="translate(10.00,44.92) scale(0.00732,-0.00732)" d="M6 532Q6 532 787 1316Q787 1316 1569 532Q1569 532 787 -252Q787 -252 6 532Z" fill="rgb(202,162,44)"/>
<rect x="7" y="162" width="135" height="40" fill="rgb(56,40,10)"/>
<rect x="7" y="162" width="135" height="40" fill="none" stroke="rgb(124,93,20)" stroke-width="1"/>
<path transform="translate(44.00,180.35) scale(0.00439,-0.00439)" d="M188 1493H1227V1202H573V924H1188V633H573V291H1249V0H188Z" fill="rgb(255,242,185)"/>
<path transform="translate(50.15,180.35) scale(0.00439,-0.00439)" d="M188 1493H573V291H1249V0H188Z" fill="rgb(255,242,185)"/>
<path transform="translate(55.88,180.35) scale(0.00439,-0.00439)" d="M10 1493H397L793 391L1188 1493H1575L1022 0H563Z" fill="rgb(255,242,185)"/>
<path transform="translate(62.85,180.35) scale(0.00439,-0.00439)" d="M188 1493H1227V1202H573V924H1188V633H573V291H1249V0H188Z" fill="rgb(255,242,185)"/>
<path transform="translate(69.00,180.35) scale(0.00439,-0.00439)" d="M188 1493H618L1161 469V1493H1526V0H1096L553 1024V0H188Z" fill="rgb(255,242,185)"/>
<path transform="translate(79.66,180.35) scale(0.00439,-0.00439)" d="M786 915Q877 915 924.0 955.0Q971 995 971 1073Q971 1150 924.0 1190.5Q877 1231 786 1231H573V915ZM799 262Q915 262 973.5 311.0Q1032 360 1032 459Q1032 556 974.0 604.5Q916 653 799 653H573V262ZM1157 799Q1281 763 1349.0 666.0Q1417 569 1417 428Q1417 212 1271.0 106.0Q1125 0 827 0H188V1493H766Q1077 1493 1216.5 1399.0Q1356 1305 1356 1098Q1356 989 1305.0 912.5Q1254 836 1157 799Z" fill="rgb(255,242,185)"/>
<path transform="translate(86.52,180.35) scale(0.00439,-0.00439)" d="M870 1241Q694 1241 597.0 1111.0Q500 981 500 745Q500 510 597.0 380.0Q694 250 870 250Q1047 250 1144.0 380.0Q1241 510 1241 745Q1241 981 1144.0 1111.0Q1047 1241 870 1241ZM870 1520Q1230 1520 1434.0 1314.0Q1638 1108 1638 745Q1638 383 1434.0 177.0Q1230 -29 870 -29Q511 -29 306.5 177.0Q102 383 102 745Q102 1108 306.5 1314.0Q511 1520 870 1520Z" fill="rgb(255,242,185)"/>
<path transform="translate(94.17,180.35) scale(0.00439,-0.00439)" d="M61 1493H430L688 408L944 1493H1315L1571 408L1829 1493H2195L1843 0H1399L1128 1135L860 0H416Z" fill="rgb(255,242,185)"/>
</svg>
