<svg xmlns="http://www.w3.org/2000/svg" width="150" height="210" viewBox="0 0 150 210">
<rect x="0" y="0" width="150" height="210" fill="rgb(8,8,22)"/>
<line x1="-210" y1="0" x2="0" y2="210" stroke="rgb(15,15,29)" stroke-width="1" stroke-linecap="round"/>
<line x1="-196" y1="0" x2="14" y2="210" stroke="rgb(15,15,29)" stroke-width="1" stroke-linecap="round"/>
<line x1="-182" y1="0" x2="28" y2="210" stroke="rgb(15,15,29)" stroke-width="1" stroke-linecap="round"/>
<line x1="-168" y1="0" x2="42" y2="210" stroke="rgb(15,15,29)" stroke-width="1" stroke-linecap="round"/>
<line x1="-154" y1="0" x2="56" y2="210" stroke="rgb(15,15,29)" stroke-width="1" stroke-linecap="round"/>
<line x1="-140" y1="0" x2="70" y2="210" stroke="rgb(15,15,29)" stroke-width="1" stroke-linecap="round"/>
<line x1="-126" y1="0" x2="84" y2="210" stroke="rgb(15,15,29)" stroke-width="1" stroke-linecap="round"/>
<line x1="-112" y1="0" x2="98" y2="210" stroke="rgb(15,15,29)" stroke-width="1" stroke-linecap="round"/>
<line x1="-98" y1="0" x2="112" y2="210" stroke="rgb(15,15,29)" stroke-width="1" stroke-linecap="round"/>
<line x1="-84" y1="0" x2="126" y2="210" stroke="rgb(15,15,29)" stroke-width="1" stroke-linecap="round"/>
<line x1="-70" y1="0" x2="140" y2="210" stroke="rgb(15,15,29)" stroke-width="1" stroke-linecap="round"/>
<line x1="-56" y1="0" x2="154" y2="210" stroke="rgb(15,15,29)" stroke-width="1" stroke-linecap="round"/>
<line x1="-42" y1="0" x2="168" y2="210" stroke="rgb(15,15,29)" stroke-width="1" stroke-linecap="round"/>
<line x1="-28" y1="0" x2="182" y2="210" stroke="rgb(15,15,29)" stroke-width="1" stroke-linecap="round"/>
<line x1="-14" y1="0" x2="196" y2="210" stroke="rgb(15,15,29)" stroke-width="1" stroke-linecap="round"/>
<line x1="0" y1="0" x2="210" y2="210" stroke="rgb(15,15,29)" stroke-width="1" stroke-linecap="round"/>
<line x1="14" y1="0" x2="224" y2="210" stroke="rgb(15,15,29)" stroke-width="1" stroke-linecap="round"/>
<line x1="28" y1="0" x2="238" y2="210" stroke="rgb(15,15,29)" stroke-width="1" stroke-linecap="round"/>
<line x1="42" y1="0" x2="252" y2="210" stroke="rgb(15,15,29)" stroke-width="1" stroke-linecap="round"/>
<line x1="56" y1="0" x2="266" y2="210" stroke="rgb(15,15,29)" stroke-width="1" stroke-linecap="round"/>
<line x1="70" y1="0" x2="280" y2="210" stroke="rgb(15,15,29)" stroke-width="1" stroke-linecap="round"/>
<line x1="84" y1="0" x2="294" y2="210" stroke="rgb(15,15,29)" stroke-width="1" stroke-linecap="round"/>
<line x1="98" y1="0" x2="308" y2="210" stroke="rgb(15,15,29)" stroke-width="1" stroke-linecap="round"/>
<line x1="112" y1="0" x2="322" y2="210" stroke="rgb(15,15,29)" stroke-width="1" stroke-linecap="round"/>
<line x1="126" y1="0" x2="336" y2="210" stroke="rgb(15,15,29)" stroke-width="1" stroke-linecap="round"/>
<line x1="140" y1="0" x2="350" y2="210" stroke="rgb(15,15,29)" stroke-width="1" stroke-linecap="round"/>
<line x1="154" y1="0" x2="364" y2="210" stroke="rgb(15,15,29)" stroke-width="1" stroke-linecap="round"/>
<line x1="168" y1="0" x2="378" y2="210" stroke="rgb(15,15,29)" stroke-width="1" stroke-linecap="round"/>
<line x1="182" y1="0" x2="392" y2="210" stroke="rgb(15,15,29)" stroke-width="1" stroke-linecap="round"/>
<line x1="196" y1="0" x2="406" y2="210" stroke="rgb(15,15,29)" stroke-width="1" stroke-linecap="round"/>
<line x1="210" y1="0" x2="420" y2="210" stroke="rgb(15,15,29)" stroke-width="1" stroke-linecap="round"/>
<line x1="224" y1="0" x2="434" y2="210" stroke="rgb(15,15,29)" stroke-width="1" stroke-linecap="round"/>
<line x1="238" y1="0" x2="448" y2="210" stroke="rgb(15,15,29)" stroke-width="1" stroke-linecap="round"/>
<line x1="252" y1="0" x2="462" y2="210" stroke="rgb(15,15,29)" stroke-width="1" stroke-linecap="round"/>
<line x1="266" y1="0" x2="476" y2="210" stroke="rgb(15,15,29)" stroke-width="1" stroke-linecap="round"/>
<line x1="280" y1="0" x2="490" y2="210" stroke="rgb(15,15,29)" stroke-width="1" stroke-linecap="round"/>
<line x1="294" y1="0" x2="504" y2="210" stroke="rgb(15,15,29)" stroke-width="1" stroke-linecap="round"/>
<line x1="308" y1="0" x2="518" y2="210" stroke="rgb(15,15,29)" stroke-width="1" stroke-linecap="round"/>
<line x1="322" y1="0" x2="532" y2="210" stroke="rgb(15,15,29)" stroke-width="1" stroke-linecap="round"/>
<line x1="336" y1="0" x2="546" y2="210" stroke="rgb(15,15,29)" stroke-width="1" stroke-linecap="round"/>
<line x1="350" y1="0" x2="560" y2="210" stroke="rgb(15,15,29)" stroke-width="1" stroke-linecap="round"/>
<rect x="1" y="1" width="147" height="207" fill="none" stroke="rgb(58,32,118)" stroke-width="3"/>
<rect x="5" y="5" width="139" height="199" fill="none" stroke="rgb(28,15,58)" stroke-width="1"/>
<polygon points="2,-1 5,2 2,5 -1,2" fill="rgb(115,65,205)" stroke-linejoin="round"/>
<polygon points="147,-1 150,2 147,5 144,2" fill="rgb(115,65,205)" stroke-linejoin="round"/>
<polygon points="2,204 5,207 2,210 -1,207" fill="rgb(115,65,205)" stroke-linejoin="round"/>
<polygon points="147,204 150,207 147,210 144,207" fill="rgb(115,65,205)" stroke-linejoin="round"/>
<ellipse cx="75.00" cy="76.50" rx="26.00" ry="19.50" fill="rgb(205,187,236)"/>
<rect x="54" y="96" width="42" height="12" fill="rgb(205,187,236)"/>
<ellipse cx="64.00" cy="80.00" rx="8.00" ry="10.00" fill="rgb(45,41,51)"/>
<ellipse cx="64.00" cy="80.00" rx="5.00" ry="7.00" fill="rgb(165,95,255)"/>
<ellipse cx="86.00" cy="80.00" rx="8.00" ry="10.00" fill="rgb(45,41,51)"/>
<ellipse cx="86.00" cy="80.00" rx="5.00" ry="7.00" fill="rgb(165,95,255)"/>
<polygon points="75,86 70,97 80,97" fill="rgb(45,41,51)" stroke-linejoin="round"/>
<rect x="58" y="98" width="3" height="6" fill="rgb(45,41,51)"/>
<rect x="64" y="98" width="3" height="6" fill="rgb(45,41,51)"/>
<rect x="70" y="98" width="3" height="6" fill="rgb(45,41,51)"/>
<rect x="76" y="98" width="3" height="6" fill="rgb(45,41,51)"/>
<rect x="82" y="98" width="3" height="6" fill="rgb(45,41,51)"/>
<line x1="69" y1="59" x2="79" y2="87" stroke="rgb(45,41,51)" stroke-width="2" stroke-linecap="round"/>
<rect x="44" y="51" width="62" height="8" fill="rgb(165,95,255)"/>
<polygon points="40,51 48,51 44,43" fill="rgb(165,95,255)" stroke-linejoin="round"/>
<polygon points="55,51 63,51 59,43" fill="rgb(165,95,255)" stroke-linejoin="round"/>
<polygon points="71,51 79,51 75,43" fill="rgb(165,95,255)" stroke-linejoin="round"/>
<polygon points="86,51 94,51 90,43" fill="rgb(165,95,255)" stroke-linejoin="round"/>
<polygon points="102,51 110,51 106,43" fill="rgb(165,95,255)" stroke-linejoin="round"/>
<line x1="37" y1="97" x2="23" y2="87" stroke="rgb(115,65,205)" stroke-width="2" stroke-linecap="round"/>
<line x1="37" y1="103" x2="23" y2="93" stroke="rgb(115,65,205)" stroke-width="2" stroke-linecap="round"/>
<line x1="37" y1="109" x2="23" y2="99" stroke="rgb(115,65,205)" stroke-width="2" stroke-linecap="round"/>
<line x1="37" y1="115" x2="23" y2="105" stroke="rgb(115,65,205)" stroke-width="2" stroke-linecap="round"/>
<line x1="113" y1="97" x2="127" y2="87" stroke="rgb(115,65,205)" stroke-width="2" stroke-linecap="round"/>
<line x1="113" y1="103" x2="127" y2="93" stroke="rgb(115,65,205)" stroke-width="2" stroke-linecap="round"/>
<line x1="113" y1="109" x2="127" y2="99" stroke="rgb(115,65,205)" stroke-width="2" stroke-linecap="round"/>
<line x1="113" y1="115" x2="127" y2="105" stroke="rgb(115,65,205)" stroke-width="2" stroke-linecap="round"/>
<ellipse cx="75.00" cy="131.00" rx="11.00" ry="11.00" fill="rgb(28,15,58)"/>
<ellipse cx="75.00" cy="131.00" rx="7.00" ry="7.00" fill="rgb(165,95,255)"/>
<text x="9" y="7" font-family="'DejaVu Sans Bold',sans-serif" font-weight="bold" font-size="22" fill="rgb(215,185,255)" dominant-baseline="hanging">9</text>
<text x="10" y="31" font-family="'DejaVu Sans Bold',sans-serif" font-weight="bold" font-size="15" fill="rgb(115,65,205)" dominant-baseline="hanging">♠</text>
<rect x="7" y="162" width="135" height="40" fill="rgb(28,15,58)"/>
<rect x="7" y="162" width="135" height="40" fill="none" stroke="rgb(58,32,118)" stroke-width="1"/>
<text x="63.0" y="172" font-family="'DejaVu Sans Bold',sans-serif" font-weight="bold" font-size="9" fill="rgb(215,185,255)" dominant-baseline="hanging">LICH</text>
</svg>
