<svg xmlns="http://www.w3.org/2000/svg" width="150" height="210" viewBox="0 0 150 210">
<rect x="0" y="0" width="150" height="210" fill="rgb(8,8,22)"/>
<line x1="-210" y1="0" x2="0" y2="210" stroke="rgb(15,15,29)" stroke-width="1" stroke-linecap="round"/>
<line x1="-196" y1="0" x2="14" y2="210" stroke="rgb(15,15,29)" stroke-width="1" stroke-linecap="round"/>
<line x1="-182" y1="0" x2="28" y2="210" stroke="rgb(15,15,29)" stroke-width="1" stroke-linecap="round"/>
<line x1="-168" y1="0" x2="42" y2="210" stroke="rgb(15,15,29)" stroke-width="1" stroke-linecap="round"/>
<line x1="-154" y1="0" x2="56" y2="210" stroke="rgb(15,15,29)" stroke-width="1" stroke-linecap="round"/>
<line x1="-140" y1="0" x2="70" y2="210" stroke="rgb(15,15,29)" stroke-width="1" stroke-linecap="round"/>
<line x1="-126" y1="0" x2="84" y2="210" stroke="rgb(15,15,29)" stroke-width="1" stroke-linecap="round"/>
<line x1="-112" y1="0" x2="98" y2="210" stroke="rgb(15,15,29)" stroke-width="1" stroke-linecap="round"/>
<line x1="-98" y1="0" x2="112" y2="210" stroke="rgb(15,15,29)" stroke-width="1" stroke-linecap="round"/>
<line x1="-84" y1="0" x2="126" y2="210" stroke="rgb(15,15,29)" stroke-width="1" stroke-linecap="round"/>
<line x1="-70" y1="0" x2="140" y2="210" stroke="rgb(15,15,29)" stroke-width="1" stroke-linecap="round"/>
<line x1="-56" y1="0" x2="154" y2="210" stroke="rgb(15,15,29)" stroke-width="1" stroke-linecap="round"/>
<line x1="-42" y1="0" x2="168" y2="210" stroke="rgb(15,15,29)" stroke-width="1" stroke-linecap="round"/>
<line x1="-28" y1="0" x2="182" y2="210" stroke="rgb(15,15,29)" stroke-width="1" stroke-linecap="round"/>
<line x1="-14" y1="0" x2="196" y2="210" stroke="rgb(15,15,29)" stroke-width="1" stroke-linecap="round"/>
<line x1="0" y1="0" x2="210" y2="210" stroke="rgb(15,15,29)" stroke-width="1" stroke-linecap="round"/>
<line x1="14" y1="0" x2="224" y2="210" stroke="rgb(15,15,29)" stroke-width="1" stroke-linecap="round"/>
<line x1="28" y1="0" x2="238" y2="210" stroke="rgb(15,15,29)" stroke-width="1" stroke-linecap="round"/>
<line x1="42" y1="0" x2="252" y2="210" stroke="rgb(15,15,29)" stroke-width="1" stroke-linecap="round"/>
<line x1="56" y1="0" x2="266" y2="210" stroke="rgb(15,15,29)" stroke-width="1" stroke-linecap="round"/>
<line x1="70" y1="0" x2="280" y2="210" stroke="rgb(15,15,29)" stroke-width="1" stroke-linecap="round"/>
<line x1="84" y1="0" x2="294" y2="210" stroke="rgb(15,15,29)" stroke-width="1" stroke-linecap="round"/>
<line x1="98" y1="0" x2="308" y2="210" stroke="rgb(15,15,29)" stroke-width="1" stroke-linecap="round"/>
<line x1="112" y1="0" x2="322" y2="210" stroke="rgb(15,15,29)" stroke-width="1" stroke-linecap="round"/>
<line x1="126" y1="0" x2="336" y2="210" stroke="rgb(15,15,29)" stroke-width="1" stroke-linecap="round"/>
<line x1="140" y1="0" x2="350" y2="210" stroke="rgb(15,15,29)" stroke-width="1" stroke-linecap="round"/>
<line x1="154" y1="0" x2="364" y2="210" stroke="rgb(15,15,29)" stroke-width="1" stroke-linecap="round"/>
<line x1="168" y1="0" x2="378" y2="210" stroke="rgb(15,15,29)" stroke-width="1" stroke-linecap="round"/>
<line x1="182" y1="0" x2="392" y2="210" stroke="rgb(15,15,29)" stroke-width="1" stroke-linecap="round"/>
<line x1="196" y1="0" x2="406" y2="210" stroke="rgb(15,15,29)" stroke-width="1" stroke-linecap="round"/>
<line x1="210" y1="0" x2="420" y2="210" stroke="rgb(15,15,29)" stroke-width="1" stroke-linecap="round"/>
<line x1="224" y1="0" x2="434" y2="210" stroke="rgb(15,15,29)" stroke-width="1" stroke-linecap="round"/>
<line x1="238" y1="0" x2="448" y2="210" stroke="rgb(15,15,29)" stroke-width="1" stroke-linecap="round"/>
<line x1="252" y1="0" x2="462" y2="210" stroke="rgb(15,15,29)" stroke-width="1" stroke-linecap="round"/>
<line x1="266" y1="0" x2="476" y2="210" stroke="rgb(15,15,29)" stroke-width="1" stroke-linecap="round"/>
<line x1="280" y1="0" x2="490" y2="210" stroke="rgb(15,15,29)" stroke-width="1" stroke-linecap="round"/>
<line x1="294" y1="0" x2="504" y2="210" stroke="rgb(15,15,29)" stroke-width="1" stroke-linecap="round"/>
<line x1="308" y1="0" x2="518" y2="210" stroke="rgb(15,15,29)" stroke-width="1" stroke-linecap="round"/>
<line x1="322" y1="0" x2="532" y2="210" stroke="rgb(15,15,29)" stroke-width="1" stroke-linecap="round"/>
<line x1="336" y1="0" x2="546" y2="210" stroke="rgb(15,15,29)" stroke-width="1" stroke-linecap="round"/>
<line x1="350" y1="0" x2="560" y2="210" stroke="rgb(15,15,29)" stroke-width="1" stroke-linecap="round"/>
<rect x="1" y="1" width="147" height="207" fill="none" stroke="rgb(58,32,118)" stroke-width="3"/>
<rect x="5" y="5" width="139" height="199" fill="none" stroke="rgb(28,15,58)" stroke-width="1"/>
<polygon points="2,-1 5,2 2,5 -1,2" fill="rgb(115,65,205)" stroke-linejoin="round"/>
<polygon points="147,-1 150,2 147,5 144,2" fill="rgb(115,65,205)" stroke-linejoin="round"/>
<polygon points="2,204 5,207 2,210 -1,207" fill="rgb(115,65,205)" stroke-linejoin="round"/>
<polygon points="147,204 150,207 147,210 144,207" fill="rgb(115,65,205)" stroke-linejoin="round"/>
<ellipse cx="75.00" cy="76.50" rx="26.00" ry="19.50" fill="rgb(205,187,236)"/>
<rect x="54" y="96" width="42" height="12" fill="rgb(205,187,236)"/>
<ellipse cx="64.00" cy="80.00" rx="8.00" ry="10.00" fill="rgb(45,41,51)"/>
<ellipse cx="64.00" cy="80.00" rx="5.00" ry="7.00" fill="rgb(165,95,255)"/>
<ellipse cx="86.00" cy="80.00" rx="8.00" ry="10.00" fill="rgb(45,41,51)"/>
<ellipse cx="86.00" cy="80.00" rx="5.00" ry="7.00" fill="rgb(165,95,255)"/>
<polygon points="75,86 70,97 80,97" fill="rgb(45,41,51)" stroke-linejoin="round"/>
<rect x="58" y="98" width="3" height="6" fill="rgb(45,41,51)"/>
<rect x="64" y="98" width="3" height="6" fill="rgb(45,41,51)"/>
<rect x="70" y="98" width="3" height="6" fill="rgb(45,41,51)"/>
<rect x="76" y="98" width="3" height="6" fill="rgb(45,41,51)"/>
<rect x="82" y="98" width="3" height="6" fill="rgb(45,41,51)"/>
<line x1="69" y1="59" x2="79" y2="87" stroke="rgb(45,41,51)" stroke-width="2" stroke-linecap="round"/>
<rect x="44" y="51" width="62" height="8" fill="rgb(165,95,255)"/>
<polygon points="40,51 48,51 44,43" fill="rgb(165,95,255)" stroke-linejoin="round"/>
<polygon points="55,51 63,51 59,43" fill="rgb(165,95,255)" stroke-linejoin="round"/>
<polygon points="71,51 79,51 75,43" fill="rgb(165,95,255)" stroke-linejoin="round"/>
<polygon points="86,51 94,51 90,43" fill="rgb(165,95,255)" stroke-linejoin="round"/>
<polygon points="102,51 110,51 106,43" fill="rgb(165,95,255)" stroke-linejoin="round"/>
<line x1="37" y1="97" x2="23" y2="87" stroke="rgb(115,65,205)" stroke-width="2" stroke-linecap="round"/>
<line x1="37" y1="103" x2="23" y2="93" stroke="rgb(115,65,205)" stroke-width="2" stroke-linecap="round"/>
<line x1="37" y1="109" x2="23" y2="99" stroke="rgb(115,65,205)" stroke-width="2" stroke-linecap="round"/>
<line x1="37" y1="115" x2="23" y2="105" stroke="rgb(115,65,205)" stroke-width="2" stroke-linecap="round"/>
<line x1="113" y1="97" x2="127" y2="87" stroke="rgb(115,65,205)" stroke-width="2" stroke-linecap="round"/>
<line x1="113" y1="103" x2="127" y2="93" stroke="rgb(115,65,205)" stroke-width="2" stroke-linecap="round"/>
<line x1="113" y1="109" x2="127" y2="99" stroke="rgb(115,65,205)" stroke-width="2" stroke-linecap="round"/>
<line x1="113" y1="115" x2="127" y2="105" stroke="rgb(115,65,205)" stroke-width="2" stroke-linecap="round"/>
<ellipse cx="75.00" cy="131.00" rx="11.00" ry="11.00" fill="rgb(28,15,58)"/>
<ellipse cx="75.00" cy="131.00" rx="7.00" ry="7.00" fill="rgb(165,95,255)"/>
<path transform="translate(9.00,27.42) scale(0.01074,-0.01074)" d="M205 33V309Q297 266 381.0 244.5Q465 223 547 223Q719 223 815.0 318.5Q911 414 928 602Q860 552 783.0 527.0Q706 502 616 502Q387 502 246.5 635.5Q106 769 106 987Q106 1228 262.5 1373.0Q419 1518 682 1518Q974 1518 1134.0 1321.0Q1294 1124 1294 764Q1294 394 1107.0 182.5Q920 -29 594 -29Q489 -29 393.0 -13.5Q297 2 205 33ZM680 752Q781 752 832.0 817.5Q883 883 883 1014Q883 1144 832.0 1210.0Q781 1276 680 1276Q579 1276 528.0 1210.0Q477 1144 477 1014Q477 883 528.0 817.5Q579 752 680 752Z" fill="rgb(215,185,255)"/>
<path transform="translate(10.00,44.92) scale(0.00732,-0.00732)" d="M920 1492Q1014 1325 1230 1049Q1467 771 1473 714Q1512 629 1512 549V509Q1512 342 1350 246Q1297 224 1233 224Q1079 224 984 445H942V433Q942 150 1025 0H810V6Q895 157 895 442L892 445H854L807 357Q722 224 595 224Q408 224 332 433L323 506V552Q323 735 510 938Q825 1324 914 1489L917 1492Z" fill="rgb(115,65,205)"/>
<rect x="7" y="162" width="135" height="40" fill="rgb(28,15,58)"/>
<rect x="7" y="162" width="135" height="40" fill="none" stroke="rgb(58,32,118)" stroke-width="1"/>
<path transform="translate(63.00,180.35) scale(0.00439,-0.00439)" d="M188 1493H573V291H1249V0H188Z" fill="rgb(215,185,255)"/>
<path transform="translate(68.73,180.35) scale(0.00439,-0.00439)" d="M188 1493H573V0H188Z" fill="rgb(215,185,255)"/>
<path transform="translate(72.08,180.35) scale(0.00439,-0.00439)" d="M1372 82Q1266 27 1151.0 -1.0Q1036 -29 911 -29Q538 -29 320.0 179.5Q102 388 102 745Q102 1103 320.0 1311.5Q538 1520 911 1520Q1036 1520 1151.0 1492.0Q1266 1464 1372 1409V1100Q1265 1173 1161.0 1207.0Q1057 1241 942 1241Q736 1241 618.0 1109.0Q500 977 500 745Q500 514 618.0 382.0Q736 250 942 250Q1057 250 1161.0 284.0Q1265 318 1372 391Z" fill="rgb(215,185,255)"/>
<path transform="translate(78.69,180.35) scale(0.00439,-0.00439)" d="M188 1493H573V924H1141V1493H1526V0H1141V633H573V0H188Z" fill="rgb(215,185,255)"/>
</svg>
