<svg xmlns="http://www.w3.org/2000/svg" width="150" height="210" viewBox="0 0 150 210">
<rect x="0" y="0" width="150" height="210" fill="rgb(8,8,22)"/>
<line x1="-210" y1="0" x2="0" y2="210" stroke="rgb(15,15,29)" stroke-width="1" stroke-linecap="round"/>
<line x1="-196" y1="0" x2="14" y2="210" stroke="rgb(15,15,29)" stroke-width="1" stroke-linecap="round"/>
<line x1="-182" y1="0" x2="28" y2="210" stroke="rgb(15,15,29)" stroke-width="1" stroke-linecap="round"/>
<line x1="-168" y1="0" x2="42" y2="210" stroke="rgb(15,15,29)" stroke-width="1" stroke-linecap="round"/>
<line x1="-154" y1="0" x2="56" y2="210" stroke="rgb(15,15,29)" stroke-width="1" stroke-linecap="round"/>
<line x1="-140" y1="0" x2="70" y2="210" stroke="rgb(15,15,29)" stroke-width="1" stroke-linecap="round"/>
<line x1="-126" y1="0" x2="84" y2="210" stroke="rgb(15,15,29)" stroke-width="1" stroke-linecap="round"/>
<line x1="-112" y1="0" x2="98" y2="210" stroke="rgb(15,15,29)" stroke-width="1" stroke-linecap="round"/>
<line x1="-98" y1="0" x2="112" y2="210" stroke="rgb(15,15,29)" stroke-width="1" stroke-linecap="round"/>
<line x1="-84" y1="0" x2="126" y2="210" stroke="rgb(15,15,29)" stroke-width="1" stroke-linecap="round"/>
<line x1="-70" y1="0" x2="140" y2="210" stroke="rgb(15,15,29)" stroke-width="1" stroke-linecap="round"/>
<line x1="-56" y1="0" x2="154" y2="210" stroke="rgb(15,15,29)" stroke-width="1" stroke-linecap="round"/>
<line x1="-42" y1="0" x2="168" y2="210" stroke="rgb(15,15,29)" stroke-width="1" stroke-linecap="round"/>
<line x1="-28" y1="0" x2="182" y2="210" stroke="rgb(15,15,29)" stroke-width="1" stroke-linecap="round"/>
<line x1="-14" y1="0" x2="196" y2="210" stroke="rgb(15,15,29)" stroke-width="1" stroke-linecap="round"/>
<line x1="0" y1="0" x2="210" y2="210" stroke="rgb(15,15,29)" stroke-width="1" stroke-linecap="round"/>
<line x1="14" y1="0" x2="224" y2="210" stroke="rgb(15,15,29)" stroke-width="1" stroke-linecap="round"/>
<line x1="28" y1="0" x2="238" y2="210" stroke="rgb(15,15,29)" stroke-width="1" stroke-linecap="round"/>
<line x1="42" y1="0" x2="252" y2="210" stroke="rgb(15,15,29)" stroke-width="1" stroke-linecap="round"/>
<line x1="56" y1="0" x2="266" y2="210" stroke="rgb(15,15,29)" stroke-width="1" stroke-linecap="round"/>
<line x1="70" y1="0" x2="280" y2="210" stroke="rgb(15,15,29)" stroke-width="1" stroke-linecap="round"/>
<line x1="84" y1="0" x2="294" y2="210" stroke="rgb(15,15,29)" stroke-width="1" stroke-linecap="round"/>
<line x1="98" y1="0" x2="308" y2="210" stroke="rgb(15,15,29)" stroke-width="1" stroke-linecap="round"/>
<line x1="112" y1="0" x2="322" y2="210" stroke="rgb(15,15,29)" stroke-width="1" stroke-linecap="round"/>
<line x1="126" y1="0" x2="336" y2="210" stroke="rgb(15,15,29)" stroke-width="1" stroke-linecap="round"/>
<line x1="140" y1="0" x2="350" y2="210" stroke="rgb(15,15,29)" stroke-width="1" stroke-linecap="round"/>
<line x1="154" y1="0" x2="364" y2="210" stroke="rgb(15,15,29)" stroke-width="1" stroke-linecap="round"/>
<line x1="168" y1="0" x2="378" y2="210" stroke="rgb(15,15,29)" stroke-width="1" stroke-linecap="round"/>
<line x1="182" y1="0" x2="392" y2="210" stroke="rgb(15,15,29)" stroke-width="1" stroke-linecap="round"/>
<line x1="196" y1="0" x2="406" y2="210" stroke="rgb(15,15,29)" stroke-width="1" stroke-linecap="round"/>
<line x1="210" y1="0" x2="420" y2="210" stroke="rgb(15,15,29)" stroke-width="1" stroke-linecap="round"/>
<line x1="224" y1="0" x2="434" y2="210" stroke="rgb(15,15,29)" stroke-width="1" stroke-linecap="round"/>
<line x1="238" y1="0" x2="448" y2="210" stroke="rgb(15,15,29)" stroke-width="1" stroke-linecap="round"/>
<line x1="252" y1="0" x2="462" y2="210" stroke="rgb(15,15,29)" stroke-width="1" stroke-linecap="round"/>
<line x1="266" y1="0" x2="476" y2="210" stroke="rgb(15,15,29)" stroke-width="1" stroke-linecap="round"/>
<line x1="280" y1="0" x2="490" y2="210" stroke="rgb(15,15,29)" stroke-width="1" stroke-linecap="round"/>
<line x1="294" y1="0" x2="504" y2="210" stroke="rgb(15,15,29)" stroke-width="1" stroke-linecap="round"/>
<line x1="308" y1="0" x2="518" y2="210" stroke="rgb(15,15,29)" stroke-width="1" stroke-linecap="round"/>
<line x1="322" y1="0" x2="532" y2="210" stroke="rgb(15,15,29)" stroke-width="1" stroke-linecap="round"/>
<line x1="336" y1="0" x2="546" y2="210" stroke="rgb(15,15,29)" stroke-width="1" stroke-linecap="round"/>
<line x1="350" y1="0" x2="560" y2="210" stroke="rgb(15,15,29)" stroke-width="1" stroke-linecap="round"/>
<rect x="1" y="1" width="147" height="207" fill="none" stroke="rgb(58,32,118)" stroke-width="3"/>
<rect x="5" y="5" width="139" height="199" fill="none" stroke="rgb(28,15,58)" stroke-width="1"/>
<polygon points="2,-1 5,2 2,5 -1,2" fill="rgb(115,65,205)" stroke-linejoin="round"/>
<polygon points="147,-1 150,2 147,5 144,2" fill="rgb(115,65,205)" stroke-linejoin="round"/>
<polygon points="2,204 5,207 2,210 -1,207" fill="rgb(115,65,205)" stroke-linejoin="round"/>
<polygon points="147,204 150,207 147,210 144,207" fill="rgb(115,65,205)" stroke-linejoin="round"/>
<polygon points="43,129 107,129 87,55 63,55" fill="rgb(38,33,45)" stroke-linejoin="round"/>
<ellipse cx="75.00" cy="56.00" rx="16.00" ry="11.00" fill="rgb(38,33,45)"/>
<ellipse cx="68.00" cy="54.00" rx="4.00" ry="3.00" fill="rgb(165,95,255)"/>
<ellipse cx="82.00" cy="54.00" rx="4.00" ry="3.00" fill="rgb(165,95,255)"/>
<line x1="90" y1="42" x2="95" y2="129" stroke="rgb(58,32,118)" stroke-width="4" stroke-linecap="round"/>
<ellipse cx="64.00" cy="52.00" rx="2.00" ry="2.00" fill="rgb(165,95,255)"/>
<ellipse cx="65.00" cy="51.00" rx="2.00" ry="2.00" fill="rgb(165,95,255)"/>
<ellipse cx="67.00" cy="49.00" rx="2.00" ry="2.00" fill="rgb(165,95,255)"/>
<ellipse cx="68.00" cy="48.00" rx="2.00" ry="2.00" fill="rgb(165,95,255)"/>
<ellipse cx="70.00" cy="47.00" rx="2.00" ry="2.00" fill="rgb(165,95,255)"/>
<ellipse cx="73.00" cy="46.00" rx="2.00" ry="2.00" fill="rgb(165,95,255)"/>
<ellipse cx="75.00" cy="45.00" rx="2.00" ry="2.00" fill="rgb(165,95,255)"/>
<ellipse cx="77.00" cy="44.00" rx="2.00" ry="2.00" fill="rgb(165,95,255)"/>
<ellipse cx="80.00" cy="43.00" rx="2.00" ry="2.00" fill="rgb(165,95,255)"/>
<ellipse cx="83.00" cy="43.00" rx="2.00" ry="2.00" fill="rgb(165,95,255)"/>
<ellipse cx="86.00" cy="42.00" rx="2.00" ry="2.00" fill="rgb(165,95,255)"/>
<ellipse cx="89.00" cy="42.00" rx="2.00" ry="2.00" fill="rgb(165,95,255)"/>
<ellipse cx="90.00" cy="42.00" rx="2.00" ry="2.00" fill="rgb(165,95,255)"/>
<ellipse cx="93.00" cy="42.00" rx="2.00" ry="2.00" fill="rgb(165,95,255)"/>
<ellipse cx="96.00" cy="43.00" rx="2.00" ry="2.00" fill="rgb(165,95,255)"/>
<ellipse cx="99.00" cy="43.00" rx="2.00" ry="2.00" fill="rgb(165,95,255)"/>
<ellipse cx="102.00" cy="44.00" rx="2.00" ry="2.00" fill="rgb(165,95,255)"/>
<ellipse cx="104.00" cy="44.00" rx="2.00" ry="2.00" fill="rgb(165,95,255)"/>
<ellipse cx="107.00" cy="45.00" rx="2.00" ry="2.00" fill="rgb(165,95,255)"/>
<ellipse cx="109.00" cy="46.00" rx="2.00" ry="2.00" fill="rgb(165,95,255)"/>
<ellipse cx="111.00" cy="48.00" rx="2.00" ry="2.00" fill="rgb(165,95,255)"/>
<ellipse cx="113.00" cy="49.00" rx="2.00" ry="2.00" fill="rgb(165,95,255)"/>
<ellipse cx="114.00" cy="50.00" rx="2.00" ry="2.00" fill="rgb(165,95,255)"/>
<ellipse cx="66.00" cy="53.00" rx="2.00" ry="2.00" fill="rgb(165,95,255)"/>
<ellipse cx="67.00" cy="51.00" rx="2.00" ry="2.00" fill="rgb(165,95,255)"/>
<ellipse cx="68.00" cy="50.00" rx="2.00" ry="2.00" fill="rgb(165,95,255)"/>
<ellipse cx="70.00" cy="49.00" rx="2.00" ry="2.00" fill="rgb(165,95,255)"/>
<ellipse cx="72.00" cy="48.00" rx="2.00" ry="2.00" fill="rgb(165,95,255)"/>
<ellipse cx="74.00" cy="47.00" rx="2.00" ry="2.00" fill="rgb(165,95,255)"/>
<ellipse cx="76.00" cy="46.00" rx="2.00" ry="2.00" fill="rgb(165,95,255)"/>
<ellipse cx="78.00" cy="45.00" rx="2.00" ry="2.00" fill="rgb(165,95,255)"/>
<ellipse cx="81.00" cy="44.00" rx="2.00" ry="2.00" fill="rgb(165,95,255)"/>
<ellipse cx="83.00" cy="44.00" rx="2.00" ry="2.00" fill="rgb(165,95,255)"/>
<ellipse cx="86.00" cy="43.00" rx="2.00" ry="2.00" fill="rgb(165,95,255)"/>
<ellipse cx="89.00" cy="43.00" rx="2.00" ry="2.00" fill="rgb(165,95,255)"/>
<ellipse cx="90.00" cy="43.00" rx="2.00" ry="2.00" fill="rgb(165,95,255)"/>
<ellipse cx="93.00" cy="43.00" rx="2.00" ry="2.00" fill="rgb(165,95,255)"/>
<ellipse cx="96.00" cy="44.00" rx="2.00" ry="2.00" fill="rgb(165,95,255)"/>
<ellipse cx="98.00" cy="44.00" rx="2.00" ry="2.00" fill="rgb(165,95,255)"/>
<ellipse cx="101.00" cy="45.00" rx="2.00" ry="2.00" fill="rgb(165,95,255)"/>
<ellipse cx="103.00" cy="45.00" rx="2.00" ry="2.00" fill="rgb(165,95,255)"/>
<ellipse cx="106.00" cy="46.00" rx="2.00" ry="2.00" fill="rgb(165,95,255)"/>
<ellipse cx="108.00" cy="47.00" rx="2.00" ry="2.00" fill="rgb(165,95,255)"/>
<ellipse cx="109.00" cy="48.00" rx="2.00" ry="2.00" fill="rgb(165,95,255)"/>
<ellipse cx="111.00" cy="50.00" rx="2.00" ry="2.00" fill="rgb(165,95,255)"/>
<ellipse cx="112.00" cy="51.00" rx="2.00" ry="2.00" fill="rgb(165,95,255)"/>
<ellipse cx="68.00" cy="53.00" rx="2.00" ry="2.00" fill="rgb(165,95,255)"/>
<ellipse cx="69.00" cy="52.00" rx="2.00" ry="2.00" fill="rgb(165,95,255)"/>
<ellipse cx="70.00" cy="51.00" rx="2.00" ry="2.00" fill="rgb(165,95,255)"/>
<ellipse cx="72.00" cy="49.00" rx="2.00" ry="2.00" fill="rgb(165,95,255)"/>
<ellipse cx="73.00" cy="48.00" rx="2.00" ry="2.00" fill="rgb(165,95,255)"/>
<ellipse cx="75.00" cy="47.00" rx="2.00" ry="2.00" fill="rgb(165,95,255)"/>
<ellipse cx="77.00" cy="47.00" rx="2.00" ry="2.00" fill="rgb(165,95,255)"/>
<ellipse cx="79.00" cy="46.00" rx="2.00" ry="2.00" fill="rgb(165,95,255)"/>
<ellipse cx="82.00" cy="45.00" rx="2.00" ry="2.00" fill="rgb(165,95,255)"/>
<ellipse cx="84.00" cy="45.00" rx="2.00" ry="2.00" fill="rgb(165,95,255)"/>
<ellipse cx="86.00" cy="45.00" rx="2.00" ry="2.00" fill="rgb(165,95,255)"/>
<ellipse cx="89.00" cy="44.00" rx="2.00" ry="2.00" fill="rgb(165,95,255)"/>
<ellipse cx="90.00" cy="44.00" rx="2.00" ry="2.00" fill="rgb(165,95,255)"/>
<ellipse cx="93.00" cy="44.00" rx="2.00" ry="2.00" fill="rgb(165,95,255)"/>
<ellipse cx="95.00" cy="45.00" rx="2.00" ry="2.00" fill="rgb(165,95,255)"/>
<ellipse cx="98.00" cy="45.00" rx="2.00" ry="2.00" fill="rgb(165,95,255)"/>
<ellipse cx="100.00" cy="46.00" rx="2.00" ry="2.00" fill="rgb(165,95,255)"/>
<ellipse cx="102.00" cy="46.00" rx="2.00" ry="2.00" fill="rgb(165,95,255)"/>
<ellipse cx="104.00" cy="47.00" rx="2.00" ry="2.00" fill="rgb(165,95,255)"/>
<ellipse cx="106.00" cy="48.00" rx="2.00" ry="2.00" fill="rgb(165,95,255)"/>
<ellipse cx="108.00" cy="49.00" rx="2.00" ry="2.00" fill="rgb(165,95,255)"/>
<ellipse cx="109.00" cy="50.00" rx="2.00" ry="2.00" fill="rgb(165,95,255)"/>
<ellipse cx="111.00" cy="51.00" rx="2.00" ry="2.00" fill="rgb(165,95,255)"/>
<ellipse cx="70.00" cy="53.00" rx="2.00" ry="2.00" fill="rgb(165,95,255)"/>
<ellipse cx="71.00" cy="52.00" rx="2.00" ry="2.00" fill="rgb(165,95,255)"/>
<ellipse cx="72.00" cy="51.00" rx="2.00" ry="2.00" fill="rgb(165,95,255)"/>
<ellipse cx="73.00" cy="50.00" rx="2.00" ry="2.00" fill="rgb(165,95,255)"/>
<ellipse cx="75.00" cy="49.00" rx="2.00" ry="2.00" fill="rgb(165,95,255)"/>
<ellipse cx="76.00" cy="48.00" rx="2.00" ry="2.00" fill="rgb(165,95,255)"/>
<ellipse cx="78.00" cy="47.00" rx="2.00" ry="2.00" fill="rgb(165,95,255)"/>
<ellipse cx="80.00" cy="47.00" rx="2.00" ry="2.00" fill="rgb(165,95,255)"/>
<ellipse cx="82.00" cy="46.00" rx="2.00" ry="2.00" fill="rgb(165,95,255)"/>
<ellipse cx="84.00" cy="46.00" rx="2.00" ry="2.00" fill="rgb(165,95,255)"/>
<ellipse cx="87.00" cy="46.00" rx="2.00" ry="2.00" fill="rgb(165,95,255)"/>
<ellipse cx="89.00" cy="45.00" rx="2.00" ry="2.00" fill="rgb(165,95,255)"/>
<ellipse cx="90.00" cy="45.00" rx="2.00" ry="2.00" fill="rgb(165,95,255)"/>
<ellipse cx="93.00" cy="46.00" rx="2.00" ry="2.00" fill="rgb(165,95,255)"/>
<ellipse cx="95.00" cy="46.00" rx="2.00" ry="2.00" fill="rgb(165,95,255)"/>
<ellipse cx="97.00" cy="46.00" rx="2.00" ry="2.00" fill="rgb(165,95,255)"/>
<ellipse cx="99.00" cy="47.00" rx="2.00" ry="2.00" fill="rgb(165,95,255)"/>
<ellipse cx="101.00" cy="47.00" rx="2.00" ry="2.00" fill="rgb(165,95,255)"/>
<ellipse cx="103.00" cy="48.00" rx="2.00" ry="2.00" fill="rgb(165,95,255)"/>
<ellipse cx="105.00" cy="49.00" rx="2.00" ry="2.00" fill="rgb(165,95,255)"/>
<ellipse cx="106.00" cy="50.00" rx="2.00" ry="2.00" fill="rgb(165,95,255)"/>
<ellipse cx="108.00" cy="51.00" rx="2.00" ry="2.00" fill="rgb(165,95,255)"/>
<ellipse cx="109.00" cy="52.00" rx="2.00" ry="2.00" fill="rgb(165,95,255)"/>
<ellipse cx="72.00" cy="54.00" rx="2.00" ry="2.00" fill="rgb(165,95,255)"/>
<ellipse cx="73.00" cy="53.00" rx="2.00" ry="2.00" fill="rgb(165,95,255)"/>
<ellipse cx="74.00" cy="52.00" rx="2.00" ry="2.00" fill="rgb(165,95,255)"/>
<ellipse cx="75.00" cy="51.00" rx="2.00" ry="2.00" fill="rgb(165,95,255)"/>
<ellipse cx="76.00" cy="50.00" rx="2.00" ry="2.00" fill="rgb(165,95,255)"/>
<ellipse cx="78.00" cy="49.00" rx="2.00" ry="2.00" fill="rgb(165,95,255)"/>
<ellipse cx="79.00" cy="48.00" rx="2.00" ry="2.00" fill="rgb(165,95,255)"/>
<ellipse cx="81.00" cy="48.00" rx="2.00" ry="2.00" fill="rgb(165,95,255)"/>
<ellipse cx="83.00" cy="47.00" rx="2.00" ry="2.00" fill="rgb(165,95,255)"/>
<ellipse cx="85.00" cy="47.00" rx="2.00" ry="2.00" fill="rgb(165,95,255)"/>
<ellipse cx="87.00" cy="47.00" rx="2.00" ry="2.00" fill="rgb(165,95,255)"/>
<ellipse cx="89.00" cy="47.00" rx="2.00" ry="2.00" fill="rgb(165,95,255)"/>
<ellipse cx="90.00" cy="47.00" rx="2.00" ry="2.00" fill="rgb(165,95,255)"/>
<ellipse cx="92.00" cy="47.00" rx="2.00" ry="2.00" fill="rgb(165,95,255)"/>
<ellipse cx="94.00" cy="47.00" rx="2.00" ry="2.00" fill="rgb(165,95,255)"/>
<ellipse cx="96.00" cy="47.00" rx="2.00" ry="2.00" fill="rgb(165,95,255)"/>
<ellipse cx="98.00" cy="48.00" rx="2.00" ry="2.00" fill="rgb(165,95,255)"/>
<ellipse cx="100.00" cy="48.00" rx="2.00" ry="2.00" fill="rgb(165,95,255)"/>
<ellipse cx="102.00" cy="49.00" rx="2.00" ry="2.00" fill="rgb(165,95,255)"/>
<ellipse cx="103.00" cy="50.00" rx="2.00" ry="2.00" fill="rgb(165,95,255)"/>
<ellipse cx="105.00" cy="50.00" rx="2.00" ry="2.00" fill="rgb(165,95,255)"/>
<ellipse cx="106.00" cy="51.00" rx="2.00" ry="2.00" fill="rgb(165,95,255)"/>
<ellipse cx="107.00" cy="52.00" rx="2.00" ry="2.00" fill="rgb(165,95,255)"/>
<ellipse cx="74.00" cy="54.00" rx="2.00" ry="2.00" fill="rgb(165,95,255)"/>
<ellipse cx="74.00" cy="53.00" rx="2.00" ry="2.00" fill="rgb(165,95,255)"/>
<ellipse cx="75.00" cy="52.00" rx="2.00" ry="2.00" fill="rgb(165,95,255)"/>
<ellipse cx="76.00" cy="51.00" rx="2.00" ry="2.00" fill="rgb(165,95,255)"/>
<ellipse cx="78.00" cy="51.00" rx="2.00" ry="2.00" fill="rgb(165,95,255)"/>
<ellipse cx="79.00" cy="50.00" rx="2.00" ry="2.00" fill="rgb(165,95,255)"/>
<ellipse cx="80.00" cy="49.00" rx="2.00" ry="2.00" fill="rgb(165,95,255)"/>
<ellipse cx="82.00" cy="49.00" rx="2.00" ry="2.00" fill="rgb(165,95,255)"/>
<ellipse cx="84.00" cy="48.00" rx="2.00" ry="2.00" fill="rgb(165,95,255)"/>
<ellipse cx="86.00" cy="48.00" rx="2.00" ry="2.00" fill="rgb(165,95,255)"/>
<ellipse cx="87.00" cy="48.00" rx="2.00" ry="2.00" fill="rgb(165,95,255)"/>
<ellipse cx="89.00" cy="48.00" rx="2.00" ry="2.00" fill="rgb(165,95,255)"/>
<ellipse cx="90.00" cy="48.00" rx="2.00" ry="2.00" fill="rgb(165,95,255)"/>
<ellipse cx="92.00" cy="48.00" rx="2.00" ry="2.00" fill="rgb(165,95,255)"/>
<ellipse cx="94.00" cy="48.00" rx="2.00" ry="2.00" fill="rgb(165,95,255)"/>
<ellipse cx="96.00" cy="48.00" rx="2.00" ry="2.00" fill="rgb(165,95,255)"/>
<ellipse cx="97.00" cy="49.00" rx="2.00" ry="2.00" fill="rgb(165,95,255)"/>
<ellipse cx="99.00" cy="49.00" rx="2.00" ry="2.00" fill="rgb(165,95,255)"/>
<ellipse cx="101.00" cy="50.00" rx="2.00" ry="2.00" fill="rgb(165,95,255)"/>
<ellipse cx="102.00" cy="50.00" rx="2.00" ry="2.00" fill="rgb(165,95,255)"/>
<ellipse cx="103.00" cy="51.00" rx="2.00" ry="2.00" fill="rgb(165,95,255)"/>
<ellipse cx="104.00" cy="52.00" rx="2.00" ry="2.00" fill="rgb(165,95,255)"/>
<ellipse cx="105.00" cy="53.00" rx="2.00" ry="2.00" fill="rgb(165,95,255)"/>
<ellipse cx="75.00" cy="54.00" rx="2.00" ry="2.00" fill="rgb(165,95,255)"/>
<ellipse cx="76.00" cy="54.00" rx="2.00" ry="2.00" fill="rgb(165,95,255)"/>
<ellipse cx="77.00" cy="53.00" rx="2.00" ry="2.00" fill="rgb(165,95,255)"/>
<ellipse cx="78.00" cy="52.00" rx="2.00" ry="2.00" fill="rgb(165,95,255)"/>
<ellipse cx="79.00" cy="51.00" rx="2.00" ry="2.00" fill="rgb(165,95,255)"/>
<ellipse cx="80.00" cy="51.00" rx="2.00" ry="2.00" fill="rgb(165,95,255)"/>
<ellipse cx="82.00" cy="50.00" rx="2.00" ry="2.00" fill="rgb(165,95,255)"/>
<ellipse cx="83.00" cy="50.00" rx="2.00" ry="2.00" fill="rgb(165,95,255)"/>
<ellipse cx="85.00" cy="49.00" rx="2.00" ry="2.00" fill="rgb(165,95,255)"/>
<ellipse cx="86.00" cy="49.00" rx="2.00" ry="2.00" fill="rgb(165,95,255)"/>
<ellipse cx="88.00" cy="49.00" rx="2.00" ry="2.00" fill="rgb(165,95,255)"/>
<ellipse cx="89.00" cy="49.00" rx="2.00" ry="2.00" fill="rgb(165,95,255)"/>
<ellipse cx="90.00" cy="49.00" rx="2.00" ry="2.00" fill="rgb(165,95,255)"/>
<ellipse cx="92.00" cy="49.00" rx="2.00" ry="2.00" fill="rgb(165,95,255)"/>
<ellipse cx="93.00" cy="49.00" rx="2.00" ry="2.00" fill="rgb(165,95,255)"/>
<ellipse cx="95.00" cy="49.00" rx="2.00" ry="2.00" fill="rgb(165,95,255)"/>
<ellipse cx="97.00" cy="50.00" rx="2.00" ry="2.00" fill="rgb(165,95,255)"/>
<ellipse cx="98.00" cy="50.00" rx="2.00" ry="2.00" fill="rgb(165,95,255)"/>
<ellipse cx="99.00" cy="51.00" rx="2.00" ry="2.00" fill="rgb(165,95,255)"/>
<ellipse cx="101.00" cy="51.00" rx="2.00" ry="2.00" fill="rgb(165,95,255)"/>
<ellipse cx="102.00" cy="52.00" rx="2.00" ry="2.00" fill="rgb(165,95,255)"/>
<ellipse cx="103.00" cy="53.00" rx="2.00" ry="2.00" fill="rgb(165,95,255)"/>
<ellipse cx="104.00" cy="53.00" rx="2.00" ry="2.00" fill="rgb(165,95,255)"/>
<path transform="translate(9.00,27.42) scale(0.01074,-0.01074)" d="M1094 272H492L397 0H10L563 1493H1022L1575 0H1188ZM588 549H997L793 1143Z" fill="rgb(215,185,255)"/>
<path transform="translate(10.00,44.92) scale(0.00732,-0.00732)" d="M920 1492Q1014 1325 1230 1049Q1467 771 1473 714Q1512 629 1512 549V509Q1512 342 1350 246Q1297 224 1233 224Q1079 224 984 445H942V433Q942 150 1025 0H810V6Q895 157 895 442L892 445H854L807 357Q722 224 595 224Q408 224 332 433L323 506V552Q323 735 510 938Q825 1324 914 1489L917 1492Z" fill="rgb(115,65,205)"/>
<rect x="7" y="162" width="135" height="40" fill="rgb(28,15,58)"/>
<rect x="7" y="162" width="135" height="40" fill="none" stroke="rgb(58,32,118)" stroke-width="1"/>
<path transform="translate(30.00,180.35) scale(0.00439,-0.00439)" d="M1227 1446V1130Q1104 1185 987.0 1213.0Q870 1241 766 1241Q628 1241 562.0 1203.0Q496 1165 496 1085Q496 1025 540.5 991.5Q585 958 702 934L866 901Q1115 851 1220.0 749.0Q1325 647 1325 459Q1325 212 1178.5 91.5Q1032 -29 731 -29Q589 -29 446.0 -2.0Q303 25 160 78V403Q303 327 436.5 288.5Q570 250 694 250Q820 250 887.0 292.0Q954 334 954 412Q954 482 908.5 520.0Q863 558 727 588L578 621Q354 669 250.5 774.0Q147 879 147 1057Q147 1280 291.0 1400.0Q435 1520 705 1520Q828 1520 958.0 1501.5Q1088 1483 1227 1446Z" fill="rgb(215,185,255)"/>
<path transform="translate(36.48,180.35) scale(0.00439,-0.00439)" d="M188 1493H573V924H1141V1493H1526V0H1141V633H573V0H188Z" fill="rgb(215,185,255)"/>
<path transform="translate(44.01,180.35) scale(0.00439,-0.00439)" d="M1094 272H492L397 0H10L563 1493H1022L1575 0H1188ZM588 549H997L793 1143Z" fill="rgb(215,185,255)"/>
<path transform="translate(50.98,180.35) scale(0.00439,-0.00439)" d="M573 1202V291H711Q947 291 1071.5 408.0Q1196 525 1196 748Q1196 970 1072.0 1086.0Q948 1202 711 1202ZM188 1493H594Q934 1493 1100.5 1444.5Q1267 1396 1386 1280Q1491 1179 1542.0 1047.0Q1593 915 1593 748Q1593 579 1542.0 446.5Q1491 314 1386 213Q1266 97 1098.0 48.5Q930 0 594 0H188Z" fill="rgb(215,185,255)"/>
<path transform="translate(58.45,180.35) scale(0.00439,-0.00439)" d="M870 1241Q694 1241 597.0 1111.0Q500 981 500 745Q500 510 597.0 380.0Q694 250 870 250Q1047 250 1144.0 380.0Q1241 510 1241 745Q1241 981 1144.0 1111.0Q1047 1241 870 1241ZM870 1520Q1230 1520 1434.0 1314.0Q1638 1108 1638 745Q1638 383 1434.0 177.0Q1230 -29 870 -29Q511 -29 306.5 177.0Q102 383 102 745Q102 1108 306.5 1314.0Q511 1520 870 1520Z" fill="rgb(215,185,255)"/>
<path transform="translate(66.10,180.35) scale(0.00439,-0.00439)" d="M61 1493H430L688 408L944 1493H1315L1571 408L1829 1493H2195L1843 0H1399L1128 1135L860 0H416Z" fill="rgb(215,185,255)"/>
<path transform="translate(79.16,180.35) scale(0.00439,-0.00439)" d="M735 831Q856 831 908.5 876.0Q961 921 961 1024Q961 1126 908.5 1170.0Q856 1214 735 1214H573V831ZM573 565V0H188V1493H776Q1071 1493 1208.5 1394.0Q1346 1295 1346 1081Q1346 933 1274.5 838.0Q1203 743 1059 698Q1138 680 1200.5 616.5Q1263 553 1327 424L1536 0H1126L944 371Q889 483 832.5 524.0Q776 565 682 565Z" fill="rgb(215,185,255)"/>
<path transform="translate(86.09,180.35) scale(0.00439,-0.00439)" d="M188 1493H1227V1202H573V924H1188V633H573V291H1249V0H188Z" fill="rgb(215,185,255)"/>
<path transform="translate(92.24,180.35) scale(0.00439,-0.00439)" d="M1094 272H492L397 0H10L563 1493H1022L1575 0H1188ZM588 549H997L793 1143Z" fill="rgb(215,185,255)"/>
<path transform="translate(99.21,180.35) scale(0.00439,-0.00439)" d="M188 1493H827Q1112 1493 1264.5 1366.5Q1417 1240 1417 1006Q1417 771 1264.5 644.5Q1112 518 827 518H573V0H188ZM573 1214V797H786Q898 797 959.0 851.5Q1020 906 1020 1006Q1020 1106 959.0 1160.0Q898 1214 786 1214Z" fill="rgb(215,185,255)"/>
<path transform="translate(105.80,180.35) scale(0.00439,-0.00439)" d="M188 1493H1227V1202H573V924H1188V633H573V291H1249V0H188Z" fill="rgb(215,185,255)"/>
<path transform="translate(111.95,180.35) scale(0.00439,-0.00439)" d="M735 831Q856 831 908.5 876.0Q961 921 961 1024Q961 1126 908.5 1170.0Q856 1214 735 1214H573V831ZM573 565V0H188V1493H776Q1071 1493 1208.5 1394.0Q1346 1295 1346 1081Q1346 933 1274.5 838.0Q1203 743 1059 698Q1138 680 1200.5 616.5Q1263 553 1327 424L1536 0H1126L944 371Q889 483 832.5 524.0Q776 565 682 565Z" fill="rgb(215,185,255)"/>
</svg>
