<svg xmlns="http://www.w3.org/2000/svg" width="150" height="210" viewBox="0 0 150 210">
<rect x="0" y="0" width="150" height="210" fill="rgb(8,8,22)"/>
<line x1="-210" y1="0" x2="0" y2="210" stroke="rgb(15,15,29)" stroke-width="1" stroke-linecap="round"/>
<line x1="-196" y1="0" x2="14" y2="210" stroke="rgb(15,15,29)" stroke-width="1" stroke-linecap="round"/>
<line x1="-182" y1="0" x2="28" y2="210" stroke="rgb(15,15,29)" stroke-width="1" stroke-linecap="round"/>
<line x1="-168" y1="0" x2="42" y2="210" stroke="rgb(15,15,29)" stroke-width="1" stroke-linecap="round"/>
<line x1="-154" y1="0" x2="56" y2="210" stroke="rgb(15,15,29)" stroke-width="1" stroke-linecap="round"/>
<line x1="-140" y1="0" x2="70" y2="210" stroke="rgb(15,15,29)" stroke-width="1" stroke-linecap="round"/>
<line x1="-126" y1="0" x2="84" y2="210" stroke="rgb(15,15,29)" stroke-width="1" stroke-linecap="round"/>
<line x1="-112" y1="0" x2="98" y2="210" stroke="rgb(15,15,29)" stroke-width="1" stroke-linecap="round"/>
<line x1="-98" y1="0" x2="112" y2="210" stroke="rgb(15,15,29)" stroke-width="1" stroke-linecap="round"/>
<line x1="-84" y1="0" x2="126" y2="210" stroke="rgb(15,15,29)" stroke-width="1" stroke-linecap="round"/>
<line x1="-70" y1="0" x2="140" y2="210" stroke="rgb(15,15,29)" stroke-width="1" stroke-linecap="round"/>
<line x1="-56" y1="0" x2="154" y2="210" stroke="rgb(15,15,29)" stroke-width="1" stroke-linecap="round"/>
<line x1="-42" y1="0" x2="168" y2="210" stroke="rgb(15,15,29)" stroke-width="1" stroke-linecap="round"/>
<line x1="-28" y1="0" x2="182" y2="210" stroke="rgb(15,15,29)" stroke-width="1" stroke-linecap="round"/>
<line x1="-14" y1="0" x2="196" y2="210" stroke="rgb(15,15,29)" stroke-width="1" stroke-linecap="round"/>
<line x1="0" y1="0" x2="210" y2="210" stroke="rgb(15,15,29)" stroke-width="1" stroke-linecap="round"/>
<line x1="14" y1="0" x2="224" y2="210" stroke="rgb(15,15,29)" stroke-width="1" stroke-linecap="round"/>
<line x1="28" y1="0" x2="238" y2="210" stroke="rgb(15,15,29)" stroke-width="1" stroke-linecap="round"/>
<line x1="42" y1="0" x2="252" y2="210" stroke="rgb(15,15,29)" stroke-width="1" stroke-linecap="round"/>
<line x1="56" y1="0" x2="266" y2="210" stroke="rgb(15,15,29)" stroke-width="1" stroke-linecap="round"/>
<line x1="70" y1="0" x2="280" y2="210" stroke="rgb(15,15,29)" stroke-width="1" stroke-linecap="round"/>
<line x1="84" y1="0" x2="294" y2="210" stroke="rgb(15,15,29)" stroke-width="1" stroke-linecap="round"/>
<line x1="98" y1="0" x2="308" y2="210" stroke="rgb(15,15,29)" stroke-width="1" stroke-linecap="round"/>
<line x1="112" y1="0" x2="322" y2="210" stroke="rgb(15,15,29)" stroke-width="1" stroke-linecap="round"/>
<line x1="126" y1="0" x2="336" y2="210" stroke="rgb(15,15,29)" stroke-width="1" stroke-linecap="round"/>
<line x1="140" y1="0" x2="350" y2="210" stroke="rgb(15,15,29)" stroke-width="1" stroke-linecap="round"/>
<line x1="154" y1="0" x2="364" y2="210" stroke="rgb(15,15,29)" stroke-width="1" stroke-linecap="round"/>
<line x1="168" y1="0" x2="378" y2="210" stroke="rgb(15,15,29)" stroke-width="1" stroke-linecap="round"/>
<line x1="182" y1="0" x2="392" y2="210" stroke="rgb(15,15,29)" stroke-width="1" stroke-linecap="round"/>
<line x1="196" y1="0" x2="406" y2="210" stroke="rgb(15,15,29)" stroke-width="1" stroke-linecap="round"/>
<line x1="210" y1="0" x2="420" y2="210" stroke="rgb(15,15,29)" stroke-width="1" stroke-linecap="round"/>
<line x1="224" y1="0" x2="434" y2="210" stroke="rgb(15,15,29)" stroke-width="1" stroke-linecap="round"/>
<line x1="238" y1="0" x2="448" y2="210" stroke="rgb(15,15,29)" stroke-width="1" stroke-linecap="round"/>
<line x1="252" y1="0" x2="462" y2="210" stroke="rgb(15,15,29)" stroke-width="1" stroke-linecap="round"/>
<line x1="266" y1="0" x2="476" y2="210" stroke="rgb(15,15,29)" stroke-width="1" stroke-linecap="round"/>
<line x1="280" y1="0" x2="490" y2="210" stroke="rgb(15,15,29)" stroke-width="1" stroke-linecap="round"/>
<line x1="294" y1="0" x2="504" y2="210" stroke="rgb(15,15,29)" stroke-width="1" stroke-linecap="round"/>
<line x1="308" y1="0" x2="518" y2="210" stroke="rgb(15,15,29)" stroke-width="1" stroke-linecap="round"/>
<line x1="322" y1="0" x2="532" y2="210" stroke="rgb(15,15,29)" stroke-width="1" stroke-linecap="round"/>
<line x1="336" y1="0" x2="546" y2="210" stroke="rgb(15,15,29)" stroke-width="1" stroke-linecap="round"/>
<line x1="350" y1="0" x2="560" y2="210" stroke="rgb(15,15,29)" stroke-width="1" stroke-linecap="round"/>
<rect x="1" y="1" width="147" height="207" fill="none" stroke="rgb(58,32,118)" stroke-width="3"/>
<rect x="5" y="5" width="139" height="199" fill="none" stroke="rgb(28,15,58)" stroke-width="1"/>
<polygon points="2,-1 5,2 2,5 -1,2" fill="rgb(115,65,205)" stroke-linejoin="round"/>
<polygon points="147,-1 150,2 147,5 144,2" fill="rgb(115,65,205)" stroke-linejoin="round"/>
<polygon points="2,204 5,207 2,210 -1,207" fill="rgb(115,65,205)" stroke-linejoin="round"/>
<polygon points="147,204 150,207 147,210 144,207" fill="rgb(115,65,205)" stroke-linejoin="round"/>
<polygon points="43,129 107,129 87,55 63,55" fill="rgb(38,33,45)" stroke-linejoin="round"/>
<ellipse cx="75.00" cy="56.00" rx="16.00" ry="11.00" fill="rgb(38,33,45)"/>
<ellipse cx="68.00" cy="54.00" rx="4.00" ry="3.00" fill="rgb(165,95,255)"/>
<ellipse cx="82.00" cy="54.00" rx="4.00" ry="3.00" fill="rgb(165,95,255)"/>
<line x1="90" y1="42" x2="95" y2="129" stroke="rgb(58,32,118)" stroke-width="4" stroke-linecap="round"/>
<ellipse cx="64.00" cy="52.00" rx="2.00" ry="2.00" fill="rgb(165,95,255)"/>
<ellipse cx="65.00" cy="51.00" rx="2.00" ry="2.00" fill="rgb(165,95,255)"/>
<ellipse cx="67.00" cy="49.00" rx="2.00" ry="2.00" fill="rgb(165,95,255)"/>
<ellipse cx="68.00" cy="48.00" rx="2.00" ry="2.00" fill="rgb(165,95,255)"/>
<ellipse cx="70.00" cy="47.00" rx="2.00" ry="2.00" fill="rgb(165,95,255)"/>
<ellipse cx="73.00" cy="46.00" rx="2.00" ry="2.00" fill="rgb(165,95,255)"/>
<ellipse cx="75.00" cy="45.00" rx="2.00" ry="2.00" fill="rgb(165,95,255)"/>
<ellipse cx="77.00" cy="44.00" rx="2.00" ry="2.00" fill="rgb(165,95,255)"/>
<ellipse cx="80.00" cy="43.00" rx="2.00" ry="2.00" fill="rgb(165,95,255)"/>
<ellipse cx="83.00" cy="43.00" rx="2.00" ry="2.00" fill="rgb(165,95,255)"/>
<ellipse cx="86.00" cy="42.00" rx="2.00" ry="2.00" fill="rgb(165,95,255)"/>
<ellipse cx="89.00" cy="42.00" rx="2.00" ry="2.00" fill="rgb(165,95,255)"/>
<ellipse cx="90.00" cy="42.00" rx="2.00" ry="2.00" fill="rgb(165,95,255)"/>
<ellipse cx="93.00" cy="42.00" rx="2.00" ry="2.00" fill="rgb(165,95,255)"/>
<ellipse cx="96.00" cy="43.00" rx="2.00" ry="2.00" fill="rgb(165,95,255)"/>
<ellipse cx="99.00" cy="43.00" rx="2.00" ry="2.00" fill="rgb(165,95,255)"/>
<ellipse cx="102.00" cy="44.00" rx="2.00" ry="2.00" fill="rgb(165,95,255)"/>
<ellipse cx="104.00" cy="44.00" rx="2.00" ry="2.00" fill="rgb(165,95,255)"/>
<ellipse cx="107.00" cy="45.00" rx="2.00" ry="2.00" fill="rgb(165,95,255)"/>
<ellipse cx="109.00" cy="46.00" rx="2.00" ry="2.00" fill="rgb(165,95,255)"/>
<ellipse cx="111.00" cy="48.00" rx="2.00" ry="2.00" fill="rgb(165,95,255)"/>
<ellipse cx="113.00" cy="49.00" rx="2.00" ry="2.00" fill="rgb(165,95,255)"/>
<ellipse cx="114.00" cy="50.00" rx="2.00" ry="2.00" fill="rgb(165,95,255)"/>
<ellipse cx="66.00" cy="53.00" rx="2.00" ry="2.00" fill="rgb(165,95,255)"/>
<ellipse cx="67.00" cy="51.00" rx="2.00" ry="2.00" fill="rgb(165,95,255)"/>
<ellipse cx="68.00" cy="50.00" rx="2.00" ry="2.00" fill="rgb(165,95,255)"/>
<ellipse cx="70.00" cy="49.00" rx="2.00" ry="2.00" fill="rgb(165,95,255)"/>
<ellipse cx="72.00" cy="48.00" rx="2.00" ry="2.00" fill="rgb(165,95,255)"/>
<ellipse cx="74.00" cy="47.00" rx="2.00" ry="2.00" fill="rgb(165,95,255)"/>
<ellipse cx="76.00" cy="46.00" rx="2.00" ry="2.00" fill="rgb(165,95,255)"/>
<ellipse cx="78.00" cy="45.00" rx="2.00" ry="2.00" fill="rgb(165,95,255)"/>
<ellipse cx="81.00" cy="44.00" rx="2.00" ry="2.00" fill="rgb(165,95,255)"/>
<ellipse cx="83.00" cy="44.00" rx="2.00" ry="2.00" fill="rgb(165,95,255)"/>
<ellipse cx="86.00" cy="43.00" rx="2.00" ry="2.00" fill="rgb(165,95,255)"/>
<ellipse cx="89.00" cy="43.00" rx="2.00" ry="2.00" fill="rgb(165,95,255)"/>
<ellipse cx="90.00" cy="43.00" rx="2.00" ry="2.00" fill="rgb(165,95,255)"/>
<ellipse cx="93.00" cy="43.00" rx="2.00" ry="2.00" fill="rgb(165,95,255)"/>
<ellipse cx="96.00" cy="44.00" rx="2.00" ry="2.00" fill="rgb(165,95,255)"/>
<ellipse cx="98.00" cy="44.00" rx="2.00" ry="2.00" fill="rgb(165,95,255)"/>
<ellipse cx="101.00" cy="45.00" rx="2.00" ry="2.00" fill="rgb(165,95,255)"/>
<ellipse cx="103.00" cy="45.00" rx="2.00" ry="2.00" fill="rgb(165,95,255)"/>
<ellipse cx="106.00" cy="46.00" rx="2.00" ry="2.00" fill="rgb(165,95,255)"/>
<ellipse cx="108.00" cy="47.00" rx="2.00" ry="2.00" fill="rgb(165,95,255)"/>
<ellipse cx="109.00" cy="48.00" rx="2.00" ry="2.00" fill="rgb(165,95,255)"/>
<ellipse cx="111.00" cy="50.00" rx="2.00" ry="2.00" fill="rgb(165,95,255)"/>
<ellipse cx="112.00" cy="51.00" rx="2.00" ry="2.00" fill="rgb(165,95,255)"/>
<ellipse cx="68.00" cy="53.00" rx="2.00" ry="2.00" fill="rgb(165,95,255)"/>
<ellipse cx="69.00" cy="52.00" rx="2.00" ry="2.00" fill="rgb(165,95,255)"/>
<ellipse cx="70.00" cy="51.00" rx="2.00" ry="2.00" fill="rgb(165,95,255)"/>
<ellipse cx="72.00" cy="49.00" rx="2.00" ry="2.00" fill="rgb(165,95,255)"/>
<ellipse cx="73.00" cy="48.00" rx="2.00" ry="2.00" fill="rgb(165,95,255)"/>
<ellipse cx="75.00" cy="47.00" rx="2.00" ry="2.00" fill="rgb(165,95,255)"/>
<ellipse cx="77.00" cy="47.00" rx="2.00" ry="2.00" fill="rgb(165,95,255)"/>
<ellipse cx="79.00" cy="46.00" rx="2.00" ry="2.00" fill="rgb(165,95,255)"/>
<ellipse cx="82.00" cy="45.00" rx="2.00" ry="2.00" fill="rgb(165,95,255)"/>
<ellipse cx="84.00" cy="45.00" rx="2.00" ry="2.00" fill="rgb(165,95,255)"/>
<ellipse cx="86.00" cy="45.00" rx="2.00" ry="2.00" fill="rgb(165,95,255)"/>
<ellipse cx="89.00" cy="44.00" rx="2.00" ry="2.00" fill="rgb(165,95,255)"/>
<ellipse cx="90.00" cy="44.00" rx="2.00" ry="2.00" fill="rgb(165,95,255)"/>
<ellipse cx="93.00" cy="44.00" rx="2.00" ry="2.00" fill="rgb(165,95,255)"/>
<ellipse cx="95.00" cy="45.00" rx="2.00" ry="2.00" fill="rgb(165,95,255)"/>
<ellipse cx="98.00" cy="45.00" rx="2.00" ry="2.00" fill="rgb(165,95,255)"/>
<ellipse cx="100.00" cy="46.00" rx="2.00" ry="2.00" fill="rgb(165,95,255)"/>
<ellipse cx="102.00" cy="46.00" rx="2.00" ry="2.00" fill="rgb(165,95,255)"/>
<ellipse cx="104.00" cy="47.00" rx="2.00" ry="2.00" fill="rgb(165,95,255)"/>
<ellipse cx="106.00" cy="48.00" rx="2.00" ry="2.00" fill="rgb(165,95,255)"/>
<ellipse cx="108.00" cy="49.00" rx="2.00" ry="2.00" fill="rgb(165,95,255)"/>
<ellipse cx="109.00" cy="50.00" rx="2.00" ry="2.00" fill="rgb(165,95,255)"/>
<ellipse cx="111.00" cy="51.00" rx="2.00" ry="2.00" fill="rgb(165,95,255)"/>
<ellipse cx="70.00" cy="53.00" rx="2.00" ry="2.00" fill="rgb(165,95,255)"/>
<ellipse cx="71.00" cy="52.00" rx="2.00" ry="2.00" fill="rgb(165,95,255)"/>
<ellipse cx="72.00" cy="51.00" rx="2.00" ry="2.00" fill="rgb(165,95,255)"/>
<ellipse cx="73.00" cy="50.00" rx="2.00" ry="2.00" fill="rgb(165,95,255)"/>
<ellipse cx="75.00" cy="49.00" rx="2.00" ry="2.00" fill="rgb(165,95,255)"/>
<ellipse cx="76.00" cy="48.00" rx="2.00" ry="2.00" fill="rgb(165,95,255)"/>
<ellipse cx="78.00" cy="47.00" rx="2.00" ry="2.00" fill="rgb(165,95,255)"/>
<ellipse cx="80.00" cy="47.00" rx="2.00" ry="2.00" fill="rgb(165,95,255)"/>
<ellipse cx="82.00" cy="46.00" rx="2.00" ry="2.00" fill="rgb(165,95,255)"/>
<ellipse cx="84.00" cy="46.00" rx="2.00" ry="2.00" fill="rgb(165,95,255)"/>
<ellipse cx="87.00" cy="46.00" rx="2.00" ry="2.00" fill="rgb(165,95,255)"/>
<ellipse cx="89.00" cy="45.00" rx="2.00" ry="2.00" fill="rgb(165,95,255)"/>
<ellipse cx="90.00" cy="45.00" rx="2.00" ry="2.00" fill="rgb(165,95,255)"/>
<ellipse cx="93.00" cy="46.00" rx="2.00" ry="2.00" fill="rgb(165,95,255)"/>
<ellipse cx="95.00" cy="46.00" rx="2.00" ry="2.00" fill="rgb(165,95,255)"/>
<ellipse cx="97.00" cy="46.00" rx="2.00" ry="2.00" fill="rgb(165,95,255)"/>
<ellipse cx="99.00" cy="47.00" rx="2.00" ry="2.00" fill="rgb(165,95,255)"/>
<ellipse cx="101.00" cy="47.00" rx="2.00" ry="2.00" fill="rgb(165,95,255)"/>
<ellipse cx="103.00" cy="48.00" rx="2.00" ry="2.00" fill="rgb(165,95,255)"/>
<ellipse cx="105.00" cy="49.00" rx="2.00" ry="2.00" fill="rgb(165,95,255)"/>
<ellipse cx="106.00" cy="50.00" rx="2.00" ry="2.00" fill="rgb(165,95,255)"/>
<ellipse cx="108.00" cy="51.00" rx="2.00" ry="2.00" fill="rgb(165,95,255)"/>
<ellipse cx="109.00" cy="52.00" rx="2.00" ry="2.00" fill="rgb(165,95,255)"/>
<ellipse cx="72.00" cy="54.00" rx="2.00" ry="2.00" fill="rgb(165,95,255)"/>
<ellipse cx="73.00" cy="53.00" rx="2.00" ry="2.00" fill="rgb(165,95,255)"/>
<ellipse cx="74.00" cy="52.00" rx="2.00" ry="2.00" fill="rgb(165,95,255)"/>
<ellipse cx="75.00" cy="51.00" rx="2.00" ry="2.00" fill="rgb(165,95,255)"/>
<ellipse cx="76.00" cy="50.00" rx="2.00" ry="2.00" fill="rgb(165,95,255)"/>
<ellipse cx="78.00" cy="49.00" rx="2.00" ry="2.00" fill="rgb(165,95,255)"/>
<ellipse cx="79.00" cy="48.00" rx="2.00" ry="2.00" fill="rgb(165,95,255)"/>
<ellipse cx="81.00" cy="48.00" rx="2.00" ry="2.00" fill="rgb(165,95,255)"/>
<ellipse cx="83.00" cy="47.00" rx="2.00" ry="2.00" fill="rgb(165,95,255)"/>
<ellipse cx="85.00" cy="47.00" rx="2.00" ry="2.00" fill="rgb(165,95,255)"/>
<ellipse cx="87.00" cy="47.00" rx="2.00" ry="2.00" fill="rgb(165,95,255)"/>
<ellipse cx="89.00" cy="47.00" rx="2.00" ry="2.00" fill="rgb(165,95,255)"/>
<ellipse cx="90.00" cy="47.00" rx="2.00" ry="2.00" fill="rgb(165,95,255)"/>
<ellipse cx="92.00" cy="47.00" rx="2.00" ry="2.00" fill="rgb(165,95,255)"/>
<ellipse cx="94.00" cy="47.00" rx="2.00" ry="2.00" fill="rgb(165,95,255)"/>
<ellipse cx="96.00" cy="47.00" rx="2.00" ry="2.00" fill="rgb(165,95,255)"/>
<ellipse cx="98.00" cy="48.00" rx="2.00" ry="2.00" fill="rgb(165,95,255)"/>
<ellipse cx="100.00" cy="48.00" rx="2.00" ry="2.00" fill="rgb(165,95,255)"/>
<ellipse cx="102.00" cy="49.00" rx="2.00" ry="2.00" fill="rgb(165,95,255)"/>
<ellipse cx="103.00" cy="50.00" rx="2.00" ry="2.00" fill="rgb(165,95,255)"/>
<ellipse cx="105.00" cy="50.00" rx="2.00" ry="2.00" fill="rgb(165,95,255)"/>
<ellipse cx="106.00" cy="51.00" rx="2.00" ry="2.00" fill="rgb(165,95,255)"/>
<ellipse cx="107.00" cy="52.00" rx="2.00" ry="2.00" fill="rgb(165,95,255)"/>
<ellipse cx="74.00" cy="54.00" rx="2.00" ry="2.00" fill="rgb(165,95,255)"/>
<ellipse cx="74.00" cy="53.00" rx="2.00" ry="2.00" fill="rgb(165,95,255)"/>
<ellipse cx="75.00" cy="52.00" rx="2.00" ry="2.00" fill="rgb(165,95,255)"/>
<ellipse cx="76.00" cy="51.00" rx="2.00" ry="2.00" fill="rgb(165,95,255)"/>
<ellipse cx="78.00" cy="51.00" rx="2.00" ry="2.00" fill="rgb(165,95,255)"/>
<ellipse cx="79.00" cy="50.00" rx="2.00" ry="2.00" fill="rgb(165,95,255)"/>
<ellipse cx="80.00" cy="49.00" rx="2.00" ry="2.00" fill="rgb(165,95,255)"/>
<ellipse cx="82.00" cy="49.00" rx="2.00" ry="2.00" fill="rgb(165,95,255)"/>
<ellipse cx="84.00" cy="48.00" rx="2.00" ry="2.00" fill="rgb(165,95,255)"/>
<ellipse cx="86.00" cy="48.00" rx="2.00" ry="2.00" fill="rgb(165,95,255)"/>
<ellipse cx="87.00" cy="48.00" rx="2.00" ry="2.00" fill="rgb(165,95,255)"/>
<ellipse cx="89.00" cy="48.00" rx="2.00" ry="2.00" fill="rgb(165,95,255)"/>
<ellipse cx="90.00" cy="48.00" rx="2.00" ry="2.00" fill="rgb(165,95,255)"/>
<ellipse cx="92.00" cy="48.00" rx="2.00" ry="2.00" fill="rgb(165,95,255)"/>
<ellipse cx="94.00" cy="48.00" rx="2.00" ry="2.00" fill="rgb(165,95,255)"/>
<ellipse cx="96.00" cy="48.00" rx="2.00" ry="2.00" fill="rgb(165,95,255)"/>
<ellipse cx="97.00" cy="49.00" rx="2.00" ry="2.00" fill="rgb(165,95,255)"/>
<ellipse cx="99.00" cy="49.00" rx="2.00" ry="2.00" fill="rgb(165,95,255)"/>
<ellipse cx="101.00" cy="50.00" rx="2.00" ry="2.00" fill="rgb(165,95,255)"/>
<ellipse cx="102.00" cy="50.00" rx="2.00" ry="2.00" fill="rgb(165,95,255)"/>
<ellipse cx="103.00" cy="51.00" rx="2.00" ry="2.00" fill="rgb(165,95,255)"/>
<ellipse cx="104.00" cy="52.00" rx="2.00" ry="2.00" fill="rgb(165,95,255)"/>
<ellipse cx="105.00" cy="53.00" rx="2.00" ry="2.00" fill="rgb(165,95,255)"/>
<ellipse cx="75.00" cy="54.00" rx="2.00" ry="2.00" fill="rgb(165,95,255)"/>
<ellipse cx="76.00" cy="54.00" rx="2.00" ry="2.00" fill="rgb(165,95,255)"/>
<ellipse cx="77.00" cy="53.00" rx="2.00" ry="2.00" fill="rgb(165,95,255)"/>
<ellipse cx="78.00" cy="52.00" rx="2.00" ry="2.00" fill="rgb(165,95,255)"/>
<ellipse cx="79.00" cy="51.00" rx="2.00" ry="2.00" fill="rgb(165,95,255)"/>
<ellipse cx="80.00" cy="51.00" rx="2.00" ry="2.00" fill="rgb(165,95,255)"/>
<ellipse cx="82.00" cy="50.00" rx="2.00" ry="2.00" fill="rgb(165,95,255)"/>
<ellipse cx="83.00" cy="50.00" rx="2.00" ry="2.00" fill="rgb(165,95,255)"/>
<ellipse cx="85.00" cy="49.00" rx="2.00" ry="2.00" fill="rgb(165,95,255)"/>
<ellipse cx="86.00" cy="49.00" rx="2.00" ry="2.00" fill="rgb(165,95,255)"/>
<ellipse cx="88.00" cy="49.00" rx="2.00" ry="2.00" fill="rgb(165,95,255)"/>
<ellipse cx="89.00" cy="49.00" rx="2.00" ry="2.00" fill="rgb(165,95,255)"/>
<ellipse cx="90.00" cy="49.00" rx="2.00" ry="2.00" fill="rgb(165,95,255)"/>
<ellipse cx="92.00" cy="49.00" rx="2.00" ry="2.00" fill="rgb(165,95,255)"/>
<ellipse cx="93.00" cy="49.00" rx="2.00" ry="2.00" fill="rgb(165,95,255)"/>
<ellipse cx="95.00" cy="49.00" rx="2.00" ry="2.00" fill="rgb(165,95,255)"/>
<ellipse cx="97.00" cy="50.00" rx="2.00" ry="2.00" fill="rgb(165,95,255)"/>
<ellipse cx="98.00" cy="50.00" rx="2.00" ry="2.00" fill="rgb(165,95,255)"/>
<ellipse cx="99.00" cy="51.00" rx="2.00" ry="2.00" fill="rgb(165,95,255)"/>
<ellipse cx="101.00" cy="51.00" rx="2.00" ry="2.00" fill="rgb(165,95,255)"/>
<ellipse cx="102.00" cy="52.00" rx="2.00" ry="2.00" fill="rgb(165,95,255)"/>
<ellipse cx="103.00" cy="53.00" rx="2.00" ry="2.00" fill="rgb(165,95,255)"/>
<ellipse cx="104.00" cy="53.00" rx="2.00" ry="2.00" fill="rgb(165,95,255)"/>
<text x="9" y="7" font-family="'DejaVu Sans Bold',sans-serif" font-weight="bold" font-size="22" fill="rgb(215,185,255)" dominant-baseline="hanging">A</text>
<text x="10" y="31" font-family="'DejaVu Sans Bold',sans-serif" font-weight="bold" font-size="15" fill="rgb(115,65,205)" dominant-baseline="hanging">♠</text>
<rect x="7" y="162" width="135" height="40" fill="rgb(28,15,58)"/>
<rect x="7" y="162" width="135" height="40" fill="none" stroke="rgb(58,32,118)" stroke-width="1"/>
<text x="38.0" y="172" font-family="'DejaVu Sans Bold',sans-serif" font-weight="bold" font-size="9" fill="rgb(215,185,255)" dominant-baseline="hanging">SHADOW REAPER</text>
</svg>
