<svg xmlns="http://www.w3.org/2000/svg" width="150" height="210" viewBox="0 0 150 210">
<rect x="0" y="0" width="150" height="210" fill="rgb(8,18,12)"/>
<line x1="-210" y1="0" x2="0" y2="210" stroke="rgb(15,25,19)" stroke-width="1" stroke-linecap="round"/>
<line x1="-196" y1="0" x2="14" y2="210" stroke="rgb(15,25,19)" stroke-width="1" stroke-linecap="round"/>
<line x1="-182" y1="0" x2="28" y2="210" stroke="rgb(15,25,19)" stroke-width="1" stroke-linecap="round"/>
<line x1="-168" y1="0" x2="42" y2="210" stroke="rgb(15,25,19)" stroke-width="1" stroke-linecap="round"/>
<line x1="-154" y1="0" x2="56" y2="210" stroke="rgb(15,25,19)" stroke-width="1" stroke-linecap="round"/>
<line x1="-140" y1="0" x2="70" y2="210" stroke="rgb(15,25,19)" stroke-width="1" stroke-linecap="round"/>
<line x1="-126" y1="0" x2="84" y2="210" stroke="rgb(15,25,19)" stroke-width="1" stroke-linecap="round"/>
<line x1="-112" y1="0" x2="98" y2="210" stroke="rgb(15,25,19)" stroke-width="1" stroke-linecap="round"/>
<line x1="-98" y1="0" x2="112" y2="210" stroke="rgb(15,25,19)" stroke-width="1" stroke-linecap="round"/>
<line x1="-84" y1="0" x2="126" y2="210" stroke="rgb(15,25,19)" stroke-width="1" stroke-linecap="round"/>
<line x1="-70" y1="0" x2="140" y2="210" stroke="rgb(15,25,19)" stroke-width="1" stroke-linecap="round"/>
<line x1="-56" y1="0" x2="154" y2="210" stroke="rgb(15,25,19)" stroke-width="1" stroke-linecap="round"/>
<line x1="-42" y1="0" x2="168" y2="210" stroke="rgb(15,25,19)" stroke-width="1" stroke-linecap="round"/>
<line x1="-28" y1="0" x2="182" y2="210" stroke="rgb(15,25,19)" stroke-width="1" stroke-linecap="round"/>
<line x1="-14" y1="0" x2="196" y2="210" stroke="rgb(15,25,19)" stroke-width="1" stroke-linecap="round"/>
<line x1="0" y1="0" x2="210" y2="210" stroke="rgb(15,25,19)" stroke-width="1" stroke-linecap="round"/>
<line x1="14" y1="0" x2="224" y2="210" stroke="rgb(15,25,19)" stroke-width="1" stroke-linecap="round"/>
<line x1="28" y1="0" x2="238" y2="210" stroke="rgb(15,25,19)" stroke-width="1" stroke-linecap="round"/>
<line x1="42" y1="0" x2="252" y2="210" stroke="rgb(15,25,19)" stroke-width="1" stroke-linecap="round"/>
<line x1="56" y1="0" x2="266" y2="210" stroke="rgb(15,25,19)" stroke-width="1" stroke-linecap="round"/>
<line x1="70" y1="0" x2="280" y2="210" stroke="rgb(15,25,19)" stroke-width="1" stroke-linecap="round"/>
<line x1="84" y1="0" x2="294" y2="210" stroke="rgb(15,25,19)" stroke-width="1" stroke-linecap="round"/>
<line x1="98" y1="0" x2="308" y2="210" stroke="rgb(15,25,19)" stroke-width="1" stroke-linecap="round"/>
<line x1="112" y1="0" x2="322" y2="210" stroke="rgb(15,25,19)" stroke-width="1" stroke-linecap="round"/>
<line x1="126" y1="0" x2="336" y2="210" stroke="rgb(15,25,19)" stroke-width="1" stroke-linecap="round"/>
<line x1="140" y1="0" x2="350" y2="210" stroke="rgb(15,25,19)" stroke-width="1" stroke-linecap="round"/>
<line x1="154" y1="0" x2="364" y2="210" stroke="rgb(15,25,19)" stroke-width="1" stroke-linecap="round"/>
<line x1="168" y1="0" x2="378" y2="210" stroke="rgb(15,25,19)" stroke-width="1" stroke-linecap="round"/>
<line x1="182" y1="0" x2="392" y2="210" stroke="rgb(15,25,19)" stroke-width="1" stroke-linecap="round"/>
<line x1="196" y1="0" x2="406" y2="210" stroke="rgb(15,25,19)" stroke-width="1" stroke-linecap="round"/>
<line x1="210" y1="0" x2="420" y2="210" stroke="rgb(15,25,19)" stroke-width="1" stroke-linecap="round"/>
<line x1="224" y1="0" x2="434" y2="210" stroke="rgb(15,25,19)" stroke-width="1" stroke-linecap="round"/>
<line x1="238" y1="0" x2="448" y2="210" stroke="rgb(15,25,19)" stroke-width="1" stroke-linecap="round"/>
<line x1="252" y1="0" x2="462" y2="210" stroke="rgb(15,25,19)" stroke-width="1" stroke-linecap="round"/>
<line x1="266" y1="0" x2="476" y2="210" stroke="rgb(15,25,19)" stroke-width="1" stroke-linecap="round"/>
<line x1="280" y1="0" x2="490" y2="210" stroke="rgb(15,25,19)" stroke-width="1" stroke-linecap="round"/>
<line x1="294" y1="0" x2="504" y2="210" stroke="rgb(15,25,19)" stroke-width="1" stroke-linecap="round"/>
<line x1="308" y1="0" x2="518" y2="210" stroke="rgb(15,25,19)" stroke-width="1" stroke-linecap="round"/>
<line x1="322" y1="0" x2="532" y2="210" stroke="rgb(15,25,19)" stroke-width="1" stroke-linecap="round"/>
<line x1="336" y1="0" x2="546" y2="210" stroke="rgb(15,25,19)" stroke-width="1" stroke-linecap="round"/>
<line x1="350" y1="0" x2="560" y2="210" stroke="rgb(15,25,19)" stroke-width="1" stroke-linecap="round"/>
<rect x="1" y="1" width="147" height="207" fill="none" stroke="rgb(40,105,62)" stroke-width="3"/>
<rect x="5" y="5" width="139" height="199" fill="none" stroke="rgb(22,50,32)" stroke-width="1"/>
<polygon points="2,-1 5,2 2,5 -1,2" fill="rgb(65,175,105)" stroke-linejoin="round"/>
<polygon points="147,-1 150,2 147,5 144,2" fill="rgb(65,175,105)" stroke-linejoin="round"/>
<polygon points="2,204 5,207 2,210 -1,207" fill="rgb(65,175,105)" stroke-linejoin="round"/>
<polygon points="147,204 150,207 147,210 144,207" fill="rgb(65,175,105)" stroke-linejoin="round"/>
<ellipse cx="75.00" cy="97.00" rx="38.00" ry="38.00" fill="rgb(95,255,140)"/>
<ellipse cx="75.00" cy="97.00" rx="34.00" ry="34.00" fill="rgb(85,228,125)"/>
<ellipse cx="75.00" cy="97.00" rx="30.00" ry="30.00" fill="rgb(75,201,110)"/>
<ellipse cx="75.00" cy="97.00" rx="26.00" ry="26.00" fill="rgb(65,174,95)"/>
<ellipse cx="75.00" cy="97.00" rx="22.00" ry="22.00" fill="rgb(55,147,81)"/>
<ellipse cx="75.00" cy="97.00" rx="18.00" ry="18.00" fill="rgb(45,120,66)"/>
<ellipse cx="75.00" cy="97.00" rx="14.00" ry="14.00" fill="rgb(35,93,51)"/>
<ellipse cx="75.00" cy="97.00" rx="10.00" ry="10.00" fill="rgb(25,67,36)"/>
<ellipse cx="75.00" cy="97.00" rx="6.00" ry="6.00" fill="rgb(15,40,22)"/>
<ellipse cx="75.00" cy="97.00" rx="2.00" ry="2.00" fill="rgb(5,13,7)"/>
<ellipse cx="75.00" cy="97.00" rx="16.00" ry="16.00" fill="rgb(8,18,12)"/>
<ellipse cx="87.00" cy="97.00" rx="3.00" ry="3.00" fill="rgb(95,255,140)"/>
<ellipse cx="95.00" cy="97.00" rx="3.00" ry="3.00" fill="rgb(95,255,140)"/>
<ellipse cx="103.00" cy="97.00" rx="3.00" ry="3.00" fill="rgb(95,255,140)"/>
<ellipse cx="83.00" cy="105.00" rx="3.00" ry="3.00" fill="rgb(95,255,140)"/>
<ellipse cx="89.00" cy="111.00" rx="3.00" ry="3.00" fill="rgb(95,255,140)"/>
<ellipse cx="94.00" cy="116.00" rx="3.00" ry="3.00" fill="rgb(95,255,140)"/>
<ellipse cx="75.00" cy="109.00" rx="3.00" ry="3.00" fill="rgb(95,255,140)"/>
<ellipse cx="75.00" cy="117.00" rx="3.00" ry="3.00" fill="rgb(95,255,140)"/>
<ellipse cx="75.00" cy="125.00" rx="3.00" ry="3.00" fill="rgb(95,255,140)"/>
<ellipse cx="67.00" cy="105.00" rx="3.00" ry="3.00" fill="rgb(95,255,140)"/>
<ellipse cx="61.00" cy="111.00" rx="3.00" ry="3.00" fill="rgb(95,255,140)"/>
<ellipse cx="56.00" cy="116.00" rx="3.00" ry="3.00" fill="rgb(95,255,140)"/>
<ellipse cx="63.00" cy="97.00" rx="3.00" ry="3.00" fill="rgb(95,255,140)"/>
<ellipse cx="55.00" cy="97.00" rx="3.00" ry="3.00" fill="rgb(95,255,140)"/>
<ellipse cx="47.00" cy="97.00" rx="3.00" ry="3.00" fill="rgb(95,255,140)"/>
<ellipse cx="67.00" cy="89.00" rx="3.00" ry="3.00" fill="rgb(95,255,140)"/>
<ellipse cx="61.00" cy="83.00" rx="3.00" ry="3.00" fill="rgb(95,255,140)"/>
<ellipse cx="56.00" cy="78.00" rx="3.00" ry="3.00" fill="rgb(95,255,140)"/>
<ellipse cx="75.00" cy="85.00" rx="3.00" ry="3.00" fill="rgb(95,255,140)"/>
<ellipse cx="75.00" cy="77.00" rx="3.00" ry="3.00" fill="rgb(95,255,140)"/>
<ellipse cx="75.00" cy="69.00" rx="3.00" ry="3.00" fill="rgb(95,255,140)"/>
<ellipse cx="83.00" cy="89.00" rx="3.00" ry="3.00" fill="rgb(95,255,140)"/>
<ellipse cx="89.00" cy="83.00" rx="3.00" ry="3.00" fill="rgb(95,255,140)"/>
<ellipse cx="94.00" cy="78.00" rx="3.00" ry="3.00" fill="rgb(95,255,140)"/>
<ellipse cx="67.00" cy="92.00" rx="4.00" ry="3.00" fill="rgb(95,255,140)"/>
<ellipse cx="83.00" cy="92.00" rx="4.00" ry="3.00" fill="rgb(95,255,140)"/>
<path transform="translate(9.00,27.42) scale(0.01074,-0.01074)" d="M1094 272H492L397 0H10L563 1493H1022L1575 0H1188ZM588 549H997L793 1143Z" fill="rgb(210,255,225)"/>
<path transform="translate(10.00,44.92) scale(0.00732,-0.00732)" d="M919 1492Q1133 1492 1234 1265Q1247 1213 1250 1157Q1250 1040 1130 880L1070 820H1073Q1147 848 1231 848H1250Q1488 848 1584 646Q1607 580 1607 520Q1607 315 1398 211Q1358 199 1287 193Q1045 193 944 467H941V458Q941 115 1023 6V0H815L809 6Q894 134 894 467V470H891Q791 193 546 193Q355 193 253 394Q228 462 228 520Q228 753 474 836Q540 848 591 848H600Q686 848 764 820H767V823Q683 894 654 963Q594 1073 594 1154V1168Q594 1369 809 1473Q880 1492 919 1492Z" fill="rgb(65,175,105)"/>
<rect x="7" y="162" width="135" height="40" fill="rgb(22,50,32)"/>
<rect x="7" y="162" width="135" height="40" fill="none" stroke="rgb(40,105,62)" stroke-width="1"/>
<path transform="translate(40.00,180.35) scale(0.00439,-0.00439)" d="M10 1493H397L793 391L1188 1493H1575L1022 0H563Z" fill="rgb(210,255,225)"/>
<path transform="translate(46.97,180.35) scale(0.00439,-0.00439)" d="M870 1241Q694 1241 597.0 1111.0Q500 981 500 745Q500 510 597.0 380.0Q694 250 870 250Q1047 250 1144.0 380.0Q1241 510 1241 745Q1241 981 1144.0 1111.0Q1047 1241 870 1241ZM870 1520Q1230 1520 1434.0 1314.0Q1638 1108 1638 745Q1638 383 1434.0 177.0Q1230 -29 870 -29Q511 -29 306.5 177.0Q102 383 102 745Q102 1108 306.5 1314.0Q511 1520 870 1520Z" fill="rgb(210,255,225)"/>
<path transform="translate(54.62,180.35) scale(0.00439,-0.00439)" d="M188 1493H573V0H188Z" fill="rgb(210,255,225)"/>
<path transform="translate(57.96,180.35) scale(0.00439,-0.00439)" d="M573 1202V291H711Q947 291 1071.5 408.0Q1196 525 1196 748Q1196 970 1072.0 1086.0Q948 1202 711 1202ZM188 1493H594Q934 1493 1100.5 1444.5Q1267 1396 1386 1280Q1491 1179 1542.0 1047.0Q1593 915 1593 748Q1593 579 1542.0 446.5Q1491 314 1386 213Q1266 97 1098.0 48.5Q930 0 594 0H188Z" fill="rgb(210,255,225)"/>
<path transform="translate(68.57,180.35) scale(0.00439,-0.00439)" d="M61 1493H430L688 408L944 1493H1315L1571 408L1829 1493H2195L1843 0H1399L1128 1135L860 0H416Z" fill="rgb(210,255,225)"/>
<path transform="translate(78.50,180.35) scale(0.00439,-0.00439)" d="M735 831Q856 831 908.5 876.0Q961 921 961 1024Q961 1126 908.5 1170.0Q856 1214 735 1214H573V831ZM573 565V0H188V1493H776Q1071 1493 1208.5 1394.0Q1346 1295 1346 1081Q1346 933 1274.5 838.0Q1203 743 1059 698Q1138 680 1200.5 616.5Q1263 553 1327 424L1536 0H1126L944 371Q889 483 832.5 524.0Q776 565 682 565Z" fill="rgb(210,255,225)"/>
<path transform="translate(85.43,180.35) scale(0.00439,-0.00439)" d="M1094 272H492L397 0H10L563 1493H1022L1575 0H1188ZM588 549H997L793 1143Z" fill="rgb(210,255,225)"/>
<path transform="translate(92.39,180.35) scale(0.00439,-0.00439)" d="M188 1493H573V0H188Z" fill="rgb(210,255,225)"/>
<path transform="translate(95.74,180.35) scale(0.00439,-0.00439)" d="M10 1493H1386V1202H891V0H506V1202H10Z" fill="rgb(210,255,225)"/>
<path transform="translate(101.88,180.35) scale(0.00439,-0.00439)" d="M188 1493H573V924H1141V1493H1526V0H1141V633H573V0H188Z" fill="rgb(210,255,225)"/>
</svg>
