<svg xmlns="http://www.w3.org/2000/svg" width="150" height="210" viewBox="0 0 150 210">
<rect x="0" y="0" width="150" height="210" fill="rgb(8,18,12)"/>
<line x1="-210" y1="0" x2="0" y2="210" stroke="rgb(15,25,19)" stroke-width="1" stroke-linecap="round"/>
<line x1="-196" y1="0" x2="14" y2="210" stroke="rgb(15,25,19)" stroke-width="1" stroke-linecap="round"/>
<line x1="-182" y1="0" x2="28" y2="210" stroke="rgb(15,25,19)" stroke-width="1" stroke-linecap="round"/>
<line x1="-168" y1="0" x2="42" y2="210" stroke="rgb(15,25,19)" stroke-width="1" stroke-linecap="round"/>
<line x1="-154" y1="0" x2="56" y2="210" stroke="rgb(15,25,19)" stroke-width="1" stroke-linecap="round"/>
<line x1="-140" y1="0" x2="70" y2="210" stroke="rgb(15,25,19)" stroke-width="1" stroke-linecap="round"/>
<line x1="-126" y1="0" x2="84" y2="210" stroke="rgb(15,25,19)" stroke-width="1" stroke-linecap="round"/>
<line x1="-112" y1="0" x2="98" y2="210" stroke="rgb(15,25,19)" stroke-width="1" stroke-linecap="round"/>
<line x1="-98" y1="0" x2="112" y2="210" stroke="rgb(15,25,19)" stroke-width="1" stroke-linecap="round"/>
<line x1="-84" y1="0" x2="126" y2="210" stroke="rgb(15,25,19)" stroke-width="1" stroke-linecap="round"/>
<line x1="-70" y1="0" x2="140" y2="210" stroke="rgb(15,25,19)" stroke-width="1" stroke-linecap="round"/>
<line x1="-56" y1="0" x2="154" y2="210" stroke="rgb(15,25,19)" stroke-width="1" stroke-linecap="round"/>
<line x1="-42" y1="0" x2="168" y2="210" stroke="rgb(15,25,19)" stroke-width="1" stroke-linecap="round"/>
<line x1="-28" y1="0" x2="182" y2="210" stroke="rgb(15,25,19)" stroke-width="1" stroke-linecap="round"/>
<line x1="-14" y1="0" x2="196" y2="210" stroke="rgb(15,25,19)" stroke-width="1" stroke-linecap="round"/>
<line x1="0" y1="0" x2="210" y2="210" stroke="rgb(15,25,19)" stroke-width="1" stroke-linecap="round"/>
<line x1="14" y1="0" x2="224" y2="210" stroke="rgb(15,25,19)" stroke-width="1" stroke-linecap="round"/>
<line x1="28" y1="0" x2="238" y2="210" stroke="rgb(15,25,19)" stroke-width="1" stroke-linecap="round"/>
<line x1="42" y1="0" x2="252" y2="210" stroke="rgb(15,25,19)" stroke-width="1" stroke-linecap="round"/>
<line x1="56" y1="0" x2="266" y2="210" stroke="rgb(15,25,19)" stroke-width="1" stroke-linecap="round"/>
<line x1="70" y1="0" x2="280" y2="210" stroke="rgb(15,25,19)" stroke-width="1" stroke-linecap="round"/>
<line x1="84" y1="0" x2="294" y2="210" stroke="rgb(15,25,19)" stroke-width="1" stroke-linecap="round"/>
<line x1="98" y1="0" x2="308" y2="210" stroke="rgb(15,25,19)" stroke-width="1" stroke-linecap="round"/>
<line x1="112" y1="0" x2="322" y2="210" stroke="rgb(15,25,19)" stroke-width="1" stroke-linecap="round"/>
<line x1="126" y1="0" x2="336" y2="210" stroke="rgb(15,25,19)" stroke-width="1" stroke-linecap="round"/>
<line x1="140" y1="0" x2="350" y2="210" stroke="rgb(15,25,19)" stroke-width="1" stroke-linecap="round"/>
<line x1="154" y1="0" x2="364" y2="210" stroke="rgb(15,25,19)" stroke-width="1" stroke-linecap="round"/>
<line x1="168" y1="0" x2="378" y2="210" stroke="rgb(15,25,19)" stroke-width="1" stroke-linecap="round"/>
<line x1="182" y1="0" x2="392" y2="210" stroke="rgb(15,25,19)" stroke-width="1" stroke-linecap="round"/>
<line x1="196" y1="0" x2="406" y2="210" stroke="rgb(15,25,19)" stroke-width="1" stroke-linecap="round"/>
<line x1="210" y1="0" x2="420" y2="210" stroke="rgb(15,25,19)" stroke-width="1" stroke-linecap="round"/>
<line x1="224" y1="0" x2="434" y2="210" stroke="rgb(15,25,19)" stroke-width="1" stroke-linecap="round"/>
<line x1="238" y1="0" x2="448" y2="210" stroke="rgb(15,25,19)" stroke-width="1" stroke-linecap="round"/>
<line x1="252" y1="0" x2="462" y2="210" stroke="rgb(15,25,19)" stroke-width="1" stroke-linecap="round"/>
<line x1="266" y1="0" x2="476" y2="210" stroke="rgb(15,25,19)" stroke-width="1" stroke-linecap="round"/>
<line x1="280" y1="0" x2="490" y2="210" stroke="rgb(15,25,19)" stroke-width="1" stroke-linecap="round"/>
<line x1="294" y1="0" x2="504" y2="210" stroke="rgb(15,25,19)" stroke-width="1" stroke-linecap="round"/>
<line x1="308" y1="0" x2="518" y2="210" stroke="rgb(15,25,19)" stroke-width="1" stroke-linecap="round"/>
<line x1="322" y1="0" x2="532" y2="210" stroke="rgb(15,25,19)" stroke-width="1" stroke-linecap="round"/>
<line x1="336" y1="0" x2="546" y2="210" stroke="rgb(15,25,19)" stroke-width="1" stroke-linecap="round"/>
<line x1="350" y1="0" x2="560" y2="210" stroke="rgb(15,25,19)" stroke-width="1" stroke-linecap="round"/>
<rect x="1" y="1" width="147" height="207" fill="none" stroke="rgb(40,105,62)" stroke-width="3"/>
<rect x="5" y="5" width="139" height="199" fill="none" stroke="rgb(22,50,32)" stroke-width="1"/>
<polygon points="2,-1 5,2 2,5 -1,2" fill="rgb(65,175,105)" stroke-linejoin="round"/>
<polygon points="147,-1 150,2 147,5 144,2" fill="rgb(65,175,105)" stroke-linejoin="round"/>
<polygon points="2,204 5,207 2,210 -1,207" fill="rgb(65,175,105)" stroke-linejoin="round"/>
<polygon points="147,204 150,207 147,210 144,207" fill="rgb(65,175,105)" stroke-linejoin="round"/>
<ellipse cx="75.00" cy="97.00" rx="38.00" ry="38.00" fill="rgb(95,255,140)"/>
<ellipse cx="75.00" cy="97.00" rx="34.00" ry="34.00" fill="rgb(85,228,125)"/>
<ellipse cx="75.00" cy="97.00" rx="30.00" ry="30.00" fill="rgb(75,201,110)"/>
<ellipse cx="75.00" cy="97.00" rx="26.00" ry="26.00" fill="rgb(65,174,95)"/>
<ellipse cx="75.00" cy="97.00" rx="22.00" ry="22.00" fill="rgb(55,147,81)"/>
<ellipse cx="75.00" cy="97.00" rx="18.00" ry="18.00" fill="rgb(45,120,66)"/>
<ellipse cx="75.00" cy="97.00" rx="14.00" ry="14.00" fill="rgb(35,93,51)"/>
<ellipse cx="75.00" cy="97.00" rx="10.00" ry="10.00" fill="rgb(25,67,36)"/>
<ellipse cx="75.00" cy="97.00" rx="6.00" ry="6.00" fill="rgb(15,40,22)"/>
<ellipse cx="75.00" cy="97.00" rx="2.00" ry="2.00" fill="rgb(5,13,7)"/>
<ellipse cx="75.00" cy="97.00" rx="16.00" ry="16.00" fill="rgb(8,18,12)"/>
<ellipse cx="87.00" cy="97.00" rx="3.00" ry="3.00" fill="rgb(95,255,140)"/>
<ellipse cx="95.00" cy="97.00" rx="3.00" ry="3.00" fill="rgb(95,255,140)"/>
<ellipse cx="103.00" cy="97.00" rx="3.00" ry="3.00" fill="rgb(95,255,140)"/>
<ellipse cx="83.00" cy="105.00" rx="3.00" ry="3.00" fill="rgb(95,255,140)"/>
<ellipse cx="89.00" cy="111.00" rx="3.00" ry="3.00" fill="rgb(95,255,140)"/>
<ellipse cx="94.00" cy="116.00" rx="3.00" ry="3.00" fill="rgb(95,255,140)"/>
<ellipse cx="75.00" cy="109.00" rx="3.00" ry="3.00" fill="rgb(95,255,140)"/>
<ellipse cx="75.00" cy="117.00" rx="3.00" ry="3.00" fill="rgb(95,255,140)"/>
<ellipse cx="75.00" cy="125.00" rx="3.00" ry="3.00" fill="rgb(95,255,140)"/>
<ellipse cx="67.00" cy="105.00" rx="3.00" ry="3.00" fill="rgb(95,255,140)"/>
<ellipse cx="61.00" cy="111.00" rx="3.00" ry="3.00" fill="rgb(95,255,140)"/>
<ellipse cx="56.00" cy="116.00" rx="3.00" ry="3.00" fill="rgb(95,255,140)"/>
<ellipse cx="63.00" cy="97.00" rx="3.00" ry="3.00" fill="rgb(95,255,140)"/>
<ellipse cx="55.00" cy="97.00" rx="3.00" ry="3.00" fill="rgb(95,255,140)"/>
<ellipse cx="47.00" cy="97.00" rx="3.00" ry="3.00" fill="rgb(95,255,140)"/>
<ellipse cx="67.00" cy="89.00" rx="3.00" ry="3.00" fill="rgb(95,255,140)"/>
<ellipse cx="61.00" cy="83.00" rx="3.00" ry="3.00" fill="rgb(95,255,140)"/>
<ellipse cx="56.00" cy="78.00" rx="3.00" ry="3.00" fill="rgb(95,255,140)"/>
<ellipse cx="75.00" cy="85.00" rx="3.00" ry="3.00" fill="rgb(95,255,140)"/>
<ellipse cx="75.00" cy="77.00" rx="3.00" ry="3.00" fill="rgb(95,255,140)"/>
<ellipse cx="75.00" cy="69.00" rx="3.00" ry="3.00" fill="rgb(95,255,140)"/>
<ellipse cx="83.00" cy="89.00" rx="3.00" ry="3.00" fill="rgb(95,255,140)"/>
<ellipse cx="89.00" cy="83.00" rx="3.00" ry="3.00" fill="rgb(95,255,140)"/>
<ellipse cx="94.00" cy="78.00" rx="3.00" ry="3.00" fill="rgb(95,255,140)"/>
<ellipse cx="67.00" cy="92.00" rx="4.00" ry="3.00" fill="rgb(95,255,140)"/>
<ellipse cx="83.00" cy="92.00" rx="4.00" ry="3.00" fill="rgb(95,255,140)"/>
<text x="9" y="7" font-family="'DejaVu Sans Bold',sans-serif" font-weight="bold" font-size="22" fill="rgb(210,255,225)" dominant-baseline="hanging">A</text>
<text x="10" y="31" font-family="'DejaVu Sans Bold',sans-serif" font-weight="bold" font-size="15" fill="rgb(65,175,105)" dominant-baseline="hanging">♣</text>
<rect x="7" y="162" width="135" height="40" fill="rgb(22,50,32)"/>
<rect x="7" y="162" width="135" height="40" fill="none" stroke="rgb(40,105,62)" stroke-width="1"/>
<text x="44.0" y="172" font-family="'DejaVu Sans Bold',sans-serif" font-weight="bold" font-size="9" fill="rgb(210,255,225)" dominant-baseline="hanging">VOID WRAITH</text>
</svg>
