<svg xmlns="http://www.w3.org/2000/svg" width="150" height="210" viewBox="0 0 150 210">
<rect x="0" y="0" width="150" height="210" fill="rgb(42,20,12)"/>
<line x1="-210" y1="0" x2="0" y2="210" stroke="rgb(55,28,18)" stroke-width="1" stroke-linecap="round"/>
<line x1="-198" y1="0" x2="12" y2="210" stroke="rgb(55,28,18)" stroke-width="1" stroke-linecap="round"/>
<line x1="-186" y1="0" x2="24" y2="210" stroke="rgb(55,28,18)" stroke-width="1" stroke-linecap="round"/>
<line x1="-174" y1="0" x2="36" y2="210" stroke="rgb(55,28,18)" stroke-width="1" stroke-linecap="round"/>
<line x1="-162" y1="0" x2="48" y2="210" stroke="rgb(55,28,18)" stroke-width="1" stroke-linecap="round"/>
<line x1="-150" y1="0" x2="60" y2="210" stroke="rgb(55,28,18)" stroke-width="1" stroke-linecap="round"/>
<line x1="-138" y1="0" x2="72" y2="210" stroke="rgb(55,28,18)" stroke-width="1" stroke-linecap="round"/>
<line x1="-126" y1="0" x2="84" y2="210" stroke="rgb(55,28,18)" stroke-width="1" stroke-linecap="round"/>
<line x1="-114" y1="0" x2="96" y2="210" stroke="rgb(55,28,18)" stroke-width="1" stroke-linecap="round"/>
<line x1="-102" y1="0" x2="108" y2="210" stroke="rgb(55,28,18)" stroke-width="1" stroke-linecap="round"/>
<line x1="-90" y1="0" x2="120" y2="210" stroke="rgb(55,28,18)" stroke-width="1" stroke-linecap="round"/>
<line x1="-78" y1="0" x2="132" y2="210" stroke="rgb(55,28,18)" stroke-width="1" stroke-linecap="round"/>
<line x1="-66" y1="0" x2="144" y2="210" stroke="rgb(55,28,18)" stroke-width="1" stroke-linecap="round"/>
<line x1="-54" y1="0" x2="156" y2="210" stroke="rgb(55,28,18)" stroke-width="1" stroke-linecap="round"/>
<line x1="-42" y1="0" x2="168" y2="210" stroke="rgb(55,28,18)" stroke-width="1" stroke-linecap="round"/>
<line x1="-30" y1="0" x2="180" y2="210" stroke="rgb(55,28,18)" stroke-width="1" stroke-linecap="round"/>
<line x1="-18" y1="0" x2="192" y2="210" stroke="rgb(55,28,18)" stroke-width="1" stroke-linecap="round"/>
<line x1="-6" y1="0" x2="204" y2="210" stroke="rgb(55,28,18)" stroke-width="1" stroke-linecap="round"/>
<line x1="6" y1="0" x2="216" y2="210" stroke="rgb(55,28,18)" stroke-width="1" stroke-linecap="round"/>
<line x1="18" y1="0" x2="228" y2="210" stroke="rgb(55,28,18)" stroke-width="1" stroke-linecap="round"/>
<line x1="30" y1="0" x2="240" y2="210" stroke="rgb(55,28,18)" stroke-width="1" stroke-linecap="round"/>
<line x1="42" y1="0" x2="252" y2="210" stroke="rgb(55,28,18)" stroke-width="1" stroke-linecap="round"/>
<line x1="54" y1="0" x2="264" y2="210" stroke="rgb(55,28,18)" stroke-width="1" stroke-linecap="round"/>
<line x1="66" y1="0" x2="276" y2="210" stroke="rgb(55,28,18)" stroke-width="1" stroke-linecap="round"/>
<line x1="78" y1="0" x2="288" y2="210" stroke="rgb(55,28,18)" stroke-width="1" stroke-linecap="round"/>
<line x1="90" y1="0" x2="300" y2="210" stroke="rgb(55,28,18)" stroke-width="1" stroke-linecap="round"/>
<line x1="102" y1="0" x2="312" y2="210" stroke="rgb(55,28,18)" stroke-width="1" stroke-linecap="round"/>
<line x1="114" y1="0" x2="324" y2="210" stroke="rgb(55,28,18)" stroke-width="1" stroke-linecap="round"/>
<line x1="126" y1="0" x2="336" y2="210" stroke="rgb(55,28,18)" stroke-width="1" stroke-linecap="round"/>
<line x1="138" y1="0" x2="348" y2="210" stroke="rgb(55,28,18)" stroke-width="1" stroke-linecap="round"/>
<line x1="150" y1="0" x2="360" y2="210" stroke="rgb(55,28,18)" stroke-width="1" stroke-linecap="round"/>
<line x1="162" y1="0" x2="372" y2="210" stroke="rgb(55,28,18)" stroke-width="1" stroke-linecap="round"/>
<line x1="174" y1="0" x2="384" y2="210" stroke="rgb(55,28,18)" stroke-width="1" stroke-linecap="round"/>
<line x1="186" y1="0" x2="396" y2="210" stroke="rgb(55,28,18)" stroke-width="1" stroke-linecap="round"/>
<line x1="198" y1="0" x2="408" y2="210" stroke="rgb(55,28,18)" stroke-width="1" stroke-linecap="round"/>
<line x1="210" y1="0" x2="420" y2="210" stroke="rgb(55,28,18)" stroke-width="1" stroke-linecap="round"/>
<line x1="222" y1="0" x2="432" y2="210" stroke="rgb(55,28,18)" stroke-width="1" stroke-linecap="round"/>
<line x1="234" y1="0" x2="444" y2="210" stroke="rgb(55,28,18)" stroke-width="1" stroke-linecap="round"/>
<line x1="246" y1="0" x2="456" y2="210" stroke="rgb(55,28,18)" stroke-width="1" stroke-linecap="round"/>
<line x1="258" y1="0" x2="468" y2="210" stroke="rgb(55,28,18)" stroke-width="1" stroke-linecap="round"/>
<line x1="270" y1="0" x2="480" y2="210" stroke="rgb(55,28,18)" stroke-width="1" stroke-linecap="round"/>
<line x1="282" y1="0" x2="492" y2="210" stroke="rgb(55,28,18)" stroke-width="1" stroke-linecap="round"/>
<line x1="294" y1="0" x2="504" y2="210" stroke="rgb(55,28,18)" stroke-width="1" stroke-linecap="round"/>
<line x1="306" y1="0" x2="516" y2="210" stroke="rgb(55,28,18)" stroke-width="1" stroke-linecap="round"/>
<line x1="318" y1="0" x2="528" y2="210" stroke="rgb(55,28,18)" stroke-width="1" stroke-linecap="round"/>
<line x1="330" y1="0" x2="540" y2="210" stroke="rgb(55,28,18)" stroke-width="1" stroke-linecap="round"/>
<line x1="342" y1="0" x2="552" y2="210" stroke="rgb(55,28,18)" stroke-width="1" stroke-linecap="round"/>
<line x1="354" y1="0" x2="564" y2="210" stroke="rgb(55,28,18)" stroke-width="1" stroke-linecap="round"/>
<rect x="1" y="1" width="147" height="207" fill="none" stroke="rgb(95,55,35)" stroke-width="3"/>
<rect x="6" y="6" width="137" height="197" fill="none" stroke="rgb(65,35,22)" stroke-width="1"/>
<polygon points="4,0 8,4 4,8 0,4" fill="rgb(120,78,50)" stroke-linejoin="round"/>
<polygon points="145,0 149,4 145,8 141,4" fill="rgb(120,78,50)" stroke-linejoin="round"/>
<polygon points="4,201 8,205 4,209 0,205" fill="rgb(120,78,50)" stroke-linejoin="round"/>
<polygon points="145,201 149,205 145,209 141,205" fill="rgb(120,78,50)" stroke-linejoin="round"/>
<path transform="translate(13.14,112.71) scale(0.00879,-0.00879)" d="M1227 1446V1130Q1104 1185 987.0 1213.0Q870 1241 766 1241Q628 1241 562.0 1203.0Q496 1165 496 1085Q496 1025 540.5 991.5Q585 958 702 934L866 901Q1115 851 1220.0 749.0Q1325 647 1325 459Q1325 212 1178.5 91.5Q1032 -29 731 -29Q589 -29 446.0 -2.0Q303 25 160 78V403Q303 327 436.5 288.5Q570 250 694 250Q820 250 887.0 292.0Q954 334 954 412Q954 482 908.5 520.0Q863 558 727 588L578 621Q354 669 250.5 774.0Q147 879 147 1057Q147 1280 291.0 1400.0Q435 1520 705 1520Q828 1520 958.0 1501.5Q1088 1483 1227 1446Z" fill="rgb(175,140,110)"/>
<path transform="translate(26.10,112.71) scale(0.00879,-0.00879)" d="M1372 82Q1266 27 1151.0 -1.0Q1036 -29 911 -29Q538 -29 320.0 179.5Q102 388 102 745Q102 1103 320.0 1311.5Q538 1520 911 1520Q1036 1520 1151.0 1492.0Q1266 1464 1372 1409V1100Q1265 1173 1161.0 1207.0Q1057 1241 942 1241Q736 1241 618.0 1109.0Q500 977 500 745Q500 514 618.0 382.0Q736 250 942 250Q1057 250 1161.0 284.0Q1265 318 1372 391Z" fill="rgb(175,140,110)"/>
<path transform="translate(39.31,112.71) scale(0.00879,-0.00879)" d="M870 1241Q694 1241 597.0 1111.0Q500 981 500 745Q500 510 597.0 380.0Q694 250 870 250Q1047 250 1144.0 380.0Q1241 510 1241 745Q1241 981 1144.0 1111.0Q1047 1241 870 1241ZM870 1520Q1230 1520 1434.0 1314.0Q1638 1108 1638 745Q1638 383 1434.0 177.0Q1230 -29 870 -29Q511 -29 306.5 177.0Q102 383 102 745Q102 1108 306.5 1314.0Q511 1520 870 1520Z" fill="rgb(175,140,110)"/>
<path transform="translate(54.61,112.71) scale(0.00879,-0.00879)" d="M188 1493H573V598Q573 413 633.5 333.5Q694 254 831 254Q969 254 1029.5 333.5Q1090 413 1090 598V1493H1475V598Q1475 281 1316.0 126.0Q1157 -29 831 -29Q506 -29 347.0 126.0Q188 281 188 598Z" fill="rgb(175,140,110)"/>
<path transform="translate(69.23,112.71) scale(0.00879,-0.00879)" d="M188 1493H618L1161 469V1493H1526V0H1096L553 1024V0H188Z" fill="rgb(175,140,110)"/>
<path transform="translate(84.29,112.71) scale(0.00879,-0.00879)" d="M573 1202V291H711Q947 291 1071.5 408.0Q1196 525 1196 748Q1196 970 1072.0 1086.0Q948 1202 711 1202ZM188 1493H594Q934 1493 1100.5 1444.5Q1267 1396 1386 1280Q1491 1179 1542.0 1047.0Q1593 915 1593 748Q1593 579 1542.0 446.5Q1491 314 1386 213Q1266 97 1098.0 48.5Q930 0 594 0H188Z" fill="rgb(175,140,110)"/>
<path transform="translate(99.24,112.71) scale(0.00879,-0.00879)" d="M735 831Q856 831 908.5 876.0Q961 921 961 1024Q961 1126 908.5 1170.0Q856 1214 735 1214H573V831ZM573 565V0H188V1493H776Q1071 1493 1208.5 1394.0Q1346 1295 1346 1081Q1346 933 1274.5 838.0Q1203 743 1059 698Q1138 680 1200.5 616.5Q1263 553 1327 424L1536 0H1126L944 371Q889 483 832.5 524.0Q776 565 682 565Z" fill="rgb(175,140,110)"/>
<path transform="translate(113.10,112.71) scale(0.00879,-0.00879)" d="M188 1493H1227V1202H573V924H1188V633H573V291H1249V0H188Z" fill="rgb(175,140,110)"/>
<path transform="translate(125.39,112.71) scale(0.00879,-0.00879)" d="M188 1493H573V291H1249V0H188Z" fill="rgb(175,140,110)"/>
</svg>
