<svg xmlns="http://www.w3.org/2000/svg" width="150" height="210" viewBox="0 0 150 210">
<rect x="0" y="0" width="150" height="210" fill="rgb(8,18,12)"/>
<line x1="-210" y1="0" x2="0" y2="210" stroke="rgb(15,25,19)" stroke-width="1" stroke-linecap="round"/>
<line x1="-196" y1="0" x2="14" y2="210" stroke="rgb(15,25,19)" stroke-width="1" stroke-linecap="round"/>
<line x1="-182" y1="0" x2="28" y2="210" stroke="rgb(15,25,19)" stroke-width="1" stroke-linecap="round"/>
<line x1="-168" y1="0" x2="42" y2="210" stroke="rgb(15,25,19)" stroke-width="1" stroke-linecap="round"/>
<line x1="-154" y1="0" x2="56" y2="210" stroke="rgb(15,25,19)" stroke-width="1" stroke-linecap="round"/>
<line x1="-140" y1="0" x2="70" y2="210" stroke="rgb(15,25,19)" stroke-width="1" stroke-linecap="round"/>
<line x1="-126" y1="0" x2="84" y2="210" stroke="rgb(15,25,19)" stroke-width="1" stroke-linecap="round"/>
<line x1="-112" y1="0" x2="98" y2="210" stroke="rgb(15,25,19)" stroke-width="1" stroke-linecap="round"/>
<line x1="-98" y1="0" x2="112" y2="210" stroke="rgb(15,25,19)" stroke-width="1" stroke-linecap="round"/>
<line x1="-84" y1="0" x2="126" y2="210" stroke="rgb(15,25,19)" stroke-width="1" stroke-linecap="round"/>
<line x1="-70" y1="0" x2="140" y2="210" stroke="rgb(15,25,19)" stroke-width="1" stroke-linecap="round"/>
<line x1="-56" y1="0" x2="154" y2="210" stroke="rgb(15,25,19)" stroke-width="1" stroke-linecap="round"/>
<line x1="-42" y1="0" x2="168" y2="210" stroke="rgb(15,25,19)" stroke-width="1" stroke-linecap="round"/>
<line x1="-28" y1="0" x2="182" y2="210" stroke="rgb(15,25,19)" stroke-width="1" stroke-linecap="round"/>
<line x1="-14" y1="0" x2="196" y2="210" stroke="rgb(15,25,19)" stroke-width="1" stroke-linecap="round"/>
<line x1="0" y1="0" x2="210" y2="210" stroke="rgb(15,25,19)" stroke-width="1" stroke-linecap="round"/>
<line x1="14" y1="0" x2="224" y2="210" stroke="rgb(15,25,19)" stroke-width="1" stroke-linecap="round"/>
<line x1="28" y1="0" x2="238" y2="210" stroke="rgb(15,25,19)" stroke-width="1" stroke-linecap="round"/>
<line x1="42" y1="0" x2="252" y2="210" stroke="rgb(15,25,19)" stroke-width="1" stroke-linecap="round"/>
<line x1="56" y1="0" x2="266" y2="210" stroke="rgb(15,25,19)" stroke-width="1" stroke-linecap="round"/>
<line x1="70" y1="0" x2="280" y2="210" stroke="rgb(15,25,19)" stroke-width="1" stroke-linecap="round"/>
<line x1="84" y1="0" x2="294" y2="210" stroke="rgb(15,25,19)" stroke-width="1" stroke-linecap="round"/>
<line x1="98" y1="0" x2="308" y2="210" stroke="rgb(15,25,19)" stroke-width="1" stroke-linecap="round"/>
<line x1="112" y1="0" x2="322" y2="210" stroke="rgb(15,25,19)" stroke-width="1" stroke-linecap="round"/>
<line x1="126" y1="0" x2="336" y2="210" stroke="rgb(15,25,19)" stroke-width="1" stroke-linecap="round"/>
<line x1="140" y1="0" x2="350" y2="210" stroke="rgb(15,25,19)" stroke-width="1" stroke-linecap="round"/>
<line x1="154" y1="0" x2="364" y2="210" stroke="rgb(15,25,19)" stroke-width="1" stroke-linecap="round"/>
<line x1="168" y1="0" x2="378" y2="210" stroke="rgb(15,25,19)" stroke-width="1" stroke-linecap="round"/>
<line x1="182" y1="0" x2="392" y2="210" stroke="rgb(15,25,19)" stroke-width="1" stroke-linecap="round"/>
<line x1="196" y1="0" x2="406" y2="210" stroke="rgb(15,25,19)" stroke-width="1" stroke-linecap="round"/>
<line x1="210" y1="0" x2="420" y2="210" stroke="rgb(15,25,19)" stroke-width="1" stroke-linecap="round"/>
<line x1="224" y1="0" x2="434" y2="210" stroke="rgb(15,25,19)" stroke-width="1" stroke-linecap="round"/>
<line x1="238" y1="0" x2="448" y2="210" stroke="rgb(15,25,19)" stroke-width="1" stroke-linecap="round"/>
<line x1="252" y1="0" x2="462" y2="210" stroke="rgb(15,25,19)" stroke-width="1" stroke-linecap="round"/>
<line x1="266" y1="0" x2="476" y2="210" stroke="rgb(15,25,19)" stroke-width="1" stroke-linecap="round"/>
<line x1="280" y1="0" x2="490" y2="210" stroke="rgb(15,25,19)" stroke-width="1" stroke-linecap="round"/>
<line x1="294" y1="0" x2="504" y2="210" stroke="rgb(15,25,19)" stroke-width="1" stroke-linecap="round"/>
<line x1="308" y1="0" x2="518" y2="210" stroke="rgb(15,25,19)" stroke-width="1" stroke-linecap="round"/>
<line x1="322" y1="0" x2="532" y2="210" stroke="rgb(15,25,19)" stroke-width="1" stroke-linecap="round"/>
<line x1="336" y1="0" x2="546" y2="210" stroke="rgb(15,25,19)" stroke-width="1" stroke-linecap="round"/>
<line x1="350" y1="0" x2="560" y2="210" stroke="rgb(15,25,19)" stroke-width="1" stroke-linecap="round"/>
<rect x="1" y="1" width="147" height="207" fill="none" stroke="rgb(40,105,62)" stroke-width="3"/>
<rect x="5" y="5" width="139" height="199" fill="none" stroke="rgb(22,50,32)" stroke-width="1"/>
<polygon points="2,-1 5,2 2,5 -1,2" fill="rgb(65,175,105)" stroke-linejoin="round"/>
<polygon points="147,-1 150,2 147,5 144,2" fill="rgb(65,175,105)" stroke-linejoin="round"/>
<polygon points="2,204 5,207 2,210 -1,207" fill="rgb(65,175,105)" stroke-linejoin="round"/>
<polygon points="147,204 150,207 147,210 144,207" fill="rgb(65,175,105)" stroke-linejoin="round"/>
<ellipse cx="75.00" cy="84.00" rx="26.00" ry="19.00" fill="rgb(187,226,201)"/>
<rect x="55" y="103" width="40" height="12" fill="rgb(187,226,201)"/>
<ellipse cx="64.00" cy="87.00" rx="8.00" ry="9.00" fill="rgb(41,49,44)"/>
<ellipse cx="64.00" cy="87.00" rx="5.00" ry="6.00" fill="rgb(95,255,140)"/>
<ellipse cx="86.00" cy="87.00" rx="8.00" ry="9.00" fill="rgb(41,49,44)"/>
<ellipse cx="86.00" cy="87.00" rx="5.00" ry="6.00" fill="rgb(95,255,140)"/>
<polygon points="75,93 70,104 80,104" fill="rgb(41,49,44)" stroke-linejoin="round"/>
<rect x="59" y="105" width="3" height="6" fill="rgb(41,49,44)"/>
<rect x="65" y="105" width="3" height="6" fill="rgb(41,49,44)"/>
<rect x="71" y="105" width="3" height="6" fill="rgb(41,49,44)"/>
<rect x="77" y="105" width="3" height="6" fill="rgb(41,49,44)"/>
<rect x="83" y="105" width="3" height="6" fill="rgb(41,49,44)"/>
<rect x="44" y="59" width="62" height="8" fill="rgb(95,255,140)"/>
<polygon points="40,59 48,59 44,51" fill="rgb(95,255,140)" stroke-linejoin="round"/>
<polygon points="55,59 63,59 59,51" fill="rgb(95,255,140)" stroke-linejoin="round"/>
<polygon points="71,59 79,59 75,51" fill="rgb(95,255,140)" stroke-linejoin="round"/>
<polygon points="86,59 94,59 90,51" fill="rgb(95,255,140)" stroke-linejoin="round"/>
<polygon points="102,59 110,59 106,51" fill="rgb(95,255,140)" stroke-linejoin="round"/>
<line x1="107" y1="55" x2="107" y2="119" stroke="rgb(22,50,32)" stroke-width="5" stroke-linecap="round"/>
<polygon points="107,59 127,49 129,69 107,79" fill="rgb(65,175,105)" stroke-linejoin="round"/>
<text x="9" y="7" font-family="'DejaVu Sans Bold',sans-serif" font-weight="bold" font-size="22" fill="rgb(210,255,225)" dominant-baseline="hanging">J</text>
<text x="10" y="31" font-family="'DejaVu Sans Bold',sans-serif" font-weight="bold" font-size="15" fill="rgb(65,175,105)" dominant-baseline="hanging">♣</text>
<rect x="7" y="162" width="135" height="40" fill="rgb(22,50,32)"/>
<rect x="7" y="162" width="135" height="40" fill="none" stroke="rgb(40,105,62)" stroke-width="1"/>
<text x="41.0" y="172" font-family="'DejaVu Sans Bold',sans-serif" font-weight="bold" font-size="9" fill="rgb(210,255,225)" dominant-baseline="hanging">ORC WARCHIEF</text>
</svg>
