<svg xmlns="http://www.w3.org/2000/svg" width="150" height="210" viewBox="0 0 150 210">
<rect x="0" y="0" width="150" height="210" fill="rgb(18,6,10)"/>
<rect x="1" y="1" width="147" height="207" fill="none" stroke="rgb(200,60,110)" stroke-width="3"/>
<rect x="5" y="5" width="139" height="199" fill="none" stroke="rgb(75,20,40)" stroke-width="1"/>
<polygon points="2,-1 5,2 2,5 -1,2" fill="rgb(255,110,160)" stroke-linejoin="round"/>
<polygon points="147,-1 150,2 147,5 144,2" fill="rgb(255,110,160)" stroke-linejoin="round"/>
<polygon points="2,204 5,207 2,210 -1,207" fill="rgb(255,110,160)" stroke-linejoin="round"/>
<polygon points="147,204 150,207 147,210 144,207" fill="rgb(255,110,160)" stroke-linejoin="round"/>
<circle cx="57" cy="80" r="24" fill="rgb(255,110,160)"/>
<circle cx="93" cy="80" r="24" fill="rgb(255,110,160)"/>
<polygon points="75,165 24,95 126,95" fill="rgb(255,110,160)"/>
<rect x="7" y="162" width="135" height="40" fill="rgb(75,20,40)"/>
<rect x="7" y="162" width="135" height="40" fill="none" stroke="rgb(200,60,110)" stroke-width="1"/>
<!-- extended-card-label:start -->
<path transform="translate(41.20,180.35) scale(0.00439,-0.00439)" d="M188 1493H678L1018 694L1360 1493H1849V0H1485V1092L1141 287H897L553 1092V0H188Z" fill="rgb(255,195,195)"/>
<path transform="translate(50.16,180.35) scale(0.00439,-0.00439)" d="M188 1493H1227V1202H573V924H1188V633H573V291H1249V0H188Z" fill="rgb(255,195,195)"/>
<path transform="translate(56.31,180.35) scale(0.00439,-0.00439)" d="M735 831Q856 831 908.5 876.0Q961 921 961 1024Q961 1126 908.5 1170.0Q856 1214 735 1214H573V831ZM573 565V0H188V1493H776Q1071 1493 1208.5 1394.0Q1346 1295 1346 1081Q1346 933 1274.5 838.0Q1203 743 1059 698Q1138 680 1200.5 616.5Q1263 553 1327 424L1536 0H1126L944 371Q889 483 832.5 524.0Q776 565 682 565Z" fill="rgb(255,195,195)"/>
<path transform="translate(63.24,180.35) scale(0.00439,-0.00439)" d="M1372 82Q1266 27 1151.0 -1.0Q1036 -29 911 -29Q538 -29 320.0 179.5Q102 388 102 745Q102 1103 320.0 1311.5Q538 1520 911 1520Q1036 1520 1151.0 1492.0Q1266 1464 1372 1409V1100Q1265 1173 1161.0 1207.0Q1057 1241 942 1241Q736 1241 618.0 1109.0Q500 977 500 745Q500 514 618.0 382.0Q736 250 942 250Q1057 250 1161.0 284.0Q1265 318 1372 391Z" fill="rgb(255,195,195)"/>
<path transform="translate(69.84,180.35) scale(0.00439,-0.00439)" d="M188 1493H573V924H1141V1493H1526V0H1141V633H573V0H188Z" fill="rgb(255,195,195)"/>
<path transform="translate(77.38,180.35) scale(0.00439,-0.00439)" d="M1094 272H492L397 0H10L563 1493H1022L1575 0H1188ZM588 549H997L793 1143Z" fill="rgb(255,195,195)"/>
<path transform="translate(84.34,180.35) scale(0.00439,-0.00439)" d="M188 1493H618L1161 469V1493H1526V0H1096L553 1024V0H188Z" fill="rgb(255,195,195)"/>
<path transform="translate(91.87,180.35) scale(0.00439,-0.00439)" d="M10 1493H1386V1202H891V0H506V1202H10Z" fill="rgb(255,195,195)"/>
<path transform="translate(101.15,180.35) scale(0.00439,-0.00439)" d="M911 -27H881Q512 -27 307.0 177.0Q102 381 102 745Q102 1108 306.5 1314.0Q511 1520 870 1520Q1233 1520 1435.5 1316.0Q1638 1112 1638 745Q1638 493 1530.5 311.0Q1423 129 1221 37L1522 -299H1155ZM870 1241Q694 1241 597.0 1111.0Q500 981 500 745Q500 505 595.0 377.5Q690 250 870 250Q1047 250 1144.0 380.0Q1241 510 1241 745Q1241 981 1144.0 1111.0Q1047 1241 870 1241Z" fill="rgb(255,195,195)"/>
<!-- extended-card-label:end -->
</svg>
