<svg xmlns="http://www.w3.org/2000/svg" width="150" height="210" viewBox="5 22 140 150">
<polyline points="50,41 51,44 53,48 54,52 55,58 56,64 57,71 58,79 58,86 58,94 58,102 58,110 58,117 57,125 56,131 55,138 54,143 52,147 51,151" fill="none" stroke="rgb(202,162,44)" stroke-width="4" stroke-linecap="round" stroke-linejoin="round"/>
<polyline points="59,39 70,97 59,155" fill="none" stroke="rgb(200,195,175)" stroke-width="1" stroke-linecap="round" stroke-linejoin="round"/>
<line x1="70" y1="97" x2="130" y2="97" stroke="rgb(255,242,185)" stroke-width="2" stroke-linecap="round"/>
<polygon points="130,93 130,101 140,97" fill="rgb(255,242,185)" stroke-linejoin="round"/>
<polygon points="70,97 62,91 65,97" fill="rgb(95,72,50)" stroke-linejoin="round"/>
<polygon points="70,97 62,103 65,97" fill="rgb(72,52,35)" stroke-linejoin="round"/>
</svg>
